<?xml version="1.0" encoding="utf-8" standalone="no"?>
<!DOCTYPE svg PUBLIC "-//W3C//DTD SVG 1.1//EN"
  "http://www.w3.org/Graphics/SVG/1.1/DTD/svg11.dtd">
<svg xmlns:xlink="http://www.w3.org/1999/xlink" width="649.412468pt" height="347.711328pt" viewBox="0 0 649.412468 347.711328" xmlns="http://www.w3.org/2000/svg" version="1.1">
 <metadata>
  <rdf:RDF xmlns:dc="http://purl.org/dc/elements/1.1/" xmlns:cc="http://creativecommons.org/ns#" xmlns:rdf="http://www.w3.org/1999/02/22-rdf-syntax-ns#">
   <cc:Work>
    <dc:type rdf:resource="http://purl.org/dc/dcmitype/StillImage"/>
    <dc:date>2025-07-11T16:35:27.318510</dc:date>
    <dc:format>image/svg+xml</dc:format>
    <dc:creator>
     <cc:Agent>
      <dc:title>Matplotlib v3.9.0, https://matplotlib.org/</dc:title>
     </cc:Agent>
    </dc:creator>
   </cc:Work>
  </rdf:RDF>
 </metadata>
 <defs>
  <style type="text/css">*{stroke-linejoin: round; stroke-linecap: butt}</style>
 </defs>
 <g id="figure_1">
  <g id="patch_1">
   <path d="M 0 347.711328 
L 649.412468 347.711328 
L 649.412468 0 
L 0 0 
z
" style="fill: #ffffff"/>
  </g>
  <g id="axes_1">
   <g id="patch_2">
    <path d="M 63.691392 178.97594 
L 621.691392 178.97594 
L 621.691392 49.61594 
L 63.691392 49.61594 
L 63.691392 178.97594 
z
" style="fill: none"/>
   </g>
   <g id="matplotlib.axis_1">
    <g id="xtick_1">
     <g id="line2d_1"/>
    </g>
    <g id="xtick_2">
     <g id="line2d_2"/>
    </g>
    <g id="xtick_3">
     <g id="line2d_3"/>
    </g>
    <g id="xtick_4">
     <g id="line2d_4"/>
    </g>
    <g id="xtick_5">
     <g id="line2d_5"/>
    </g>
    <g id="xtick_6">
     <g id="line2d_6"/>
    </g>
    <g id="xtick_7">
     <g id="line2d_7"/>
    </g>
   </g>
   <g id="matplotlib.axis_2">
    <g id="ytick_1">
     <g id="line2d_8">
      <defs>
       <path id="mf3394501ed" d="M 0 0 
L -4 0 
" style="stroke: #ff9200; stroke-opacity: 0.9"/>
      </defs>
      <g>
       <use xlink:href="#mf3394501ed" x="63.691392" y="60.39594" style="fill: #ff9200; fill-opacity: 0.9; stroke: #ff9200; stroke-opacity: 0.9"/>
      </g>
     </g>
     <g id="text_1">
      <!-- $\mathdefault{0}$ -->
      <g style="fill: #ff9200; opacity: 0.9" transform="translate(44.768773 69.044067) scale(0.25 -0.25)">
       <defs>
        <path id="CMR17-30" d="M 2688 2025 
C 2688 2416 2682 3080 2413 3591 
C 2176 4039 1798 4198 1466 4198 
C 1158 4198 768 4058 525 3597 
C 269 3118 243 2524 243 2025 
C 243 1661 250 1106 448 619 
C 723 -39 1216 -128 1466 -128 
C 1760 -128 2208 -7 2470 600 
C 2662 1042 2688 1559 2688 2025 
z
M 1466 -26 
C 1056 -26 813 325 723 812 
C 653 1188 653 1738 653 2096 
C 653 2588 653 2997 736 3387 
C 858 3929 1216 4096 1466 4096 
C 1728 4096 2067 3923 2189 3400 
C 2272 3036 2278 2607 2278 2096 
C 2278 1680 2278 1169 2202 792 
C 2067 95 1690 -26 1466 -26 
z
" transform="scale(0.015625)"/>
       </defs>
       <use xlink:href="#CMR17-30" transform="scale(0.996264)"/>
      </g>
     </g>
    </g>
   </g>
   <g id="line2d_9">
    <path d="M 63.691392 60.39594 
L 621.691392 60.39594 
" clip-path="url(#p5f9432bc85)" style="fill: none; stroke-dasharray: 2.775,1.2; stroke-dashoffset: 0; stroke: #ff9200; stroke-width: 0.75"/>
   </g>
   <g id="line2d_10">
    <path d="M 63.691392 168.102154 
L 65.179392 168.479459 
L 65.923392 168.341927 
L 66.667392 167.125263 
L 67.411392 167.3955 
L 68.155392 167.419991 
L 71.131392 166.233157 
L 71.875392 165.121674 
L 72.619392 165.492974 
L 73.363392 165.060908 
L 74.107392 164.1401 
L 74.851392 163.94052 
L 75.595392 162.756989 
L 76.339392 163.168364 
L 77.083392 161.165818 
L 77.827392 161.145202 
L 79.315392 160.337561 
L 80.059392 158.412792 
L 80.803392 157.898733 
L 82.291392 156.090629 
L 83.035392 155.32462 
L 83.779392 154.764616 
L 84.523392 153.373949 
L 85.267392 152.431932 
L 86.755392 149.573878 
L 87.499392 148.917024 
L 88.243392 147.771795 
L 88.987392 147.065388 
L 90.475392 144.383766 
L 91.963392 140.857958 
L 93.451392 138.760521 
L 95.683392 134.12569 
L 96.427392 133.205495 
L 97.171392 131.229982 
L 98.659392 128.511854 
L 99.403392 127.583138 
L 100.891392 124.709718 
L 102.379392 121.34354 
L 103.123392 120.311558 
L 104.611392 117.262388 
L 105.355392 116.061151 
L 106.843392 112.983085 
L 109.075392 108.477963 
L 109.819392 106.914232 
L 110.563392 105.929191 
L 111.307392 104.424179 
L 112.051392 102.378921 
L 112.795392 101.312961 
L 113.539392 99.922388 
L 114.283392 98.177266 
L 117.259392 92.566019 
L 118.747392 90.263552 
L 119.491392 88.435045 
L 120.979392 86.221431 
L 121.723392 84.690046 
L 123.211392 82.690968 
L 125.443392 78.470605 
L 126.187392 77.910537 
L 126.931392 76.896918 
L 127.675392 75.537343 
L 128.419392 74.666998 
L 129.163392 73.389817 
L 129.907392 72.427884 
L 130.651392 71.814674 
L 131.395392 70.992014 
L 133.627392 68.08595 
L 134.371392 67.88748 
L 135.115392 66.909096 
L 136.603392 65.637882 
L 138.091392 64.425156 
L 138.835392 64.107449 
L 139.579392 63.23881 
L 140.323392 62.841494 
L 141.067392 62.588699 
L 141.811392 61.903869 
L 142.555392 61.41705 
L 144.043392 61.245404 
L 144.787392 60.623797 
L 145.531392 60.72826 
L 147.019392 60.503367 
L 147.763392 60.117528 
L 148.507392 60.42312 
L 149.995392 60.501803 
L 155.203392 60.400895 
L 155.947392 60.178043 
L 163.387392 60.050077 
L 164.131392 60.254464 
L 203.563392 59.672666 
L 205.051392 59.765043 
L 207.283392 59.704251 
L 220.675392 59.585512 
L 221.419392 59.30539 
L 227.371392 59.334558 
L 231.091392 59.284061 
L 231.835392 59.113539 
L 256.387392 58.864173 
L 257.131392 59.005234 
L 269.035392 59.009304 
L 269.779392 59.530082 
L 280.939392 59.507096 
L 281.683392 59.181947 
L 288.379392 59.119615 
L 289.123392 59.311238 
L 297.307392 59.299723 
L 298.051392 58.971742 
L 301.771392 58.894504 
L 302.515392 59.250552 
L 304.747392 59.255088 
L 305.491392 59.613397 
L 312.187392 59.651935 
L 313.675392 59.746985 
L 318.883392 59.693903 
L 319.627392 59.522399 
L 326.323392 59.434009 
L 327.067392 59.322209 
L 330.043392 59.33199 
L 330.787392 59.457471 
L 335.251392 59.519243 
L 335.995392 59.269753 
L 337.483392 59.183653 
L 338.227392 59.301821 
L 341.947392 59.317571 
L 342.691392 59.461821 
L 344.179392 59.468765 
L 344.923392 59.134457 
L 349.387392 59.170358 
L 350.131392 59.388182 
L 350.875392 59.460639 
L 351.619392 59.345182 
L 356.083392 59.340224 
L 356.827392 59.168534 
L 365.755392 59.24501 
L 366.499392 59.137637 
L 371.707392 59.215087 
L 372.451392 59.409233 
L 375.427392 59.452161 
L 376.915392 59.282246 
L 378.403392 59.294567 
L 379.147392 59.560766 
L 381.379392 59.577972 
L 382.123392 59.394751 
L 394.771392 59.593144 
L 396.259392 59.701937 
L 401.467392 59.819318 
L 402.211392 59.955622 
L 424.531392 60.313182 
L 425.275392 60.014476 
L 463.219392 60.594001 
L 463.963392 60.916683 
L 473.635392 61.057736 
L 474.379392 60.718515 
L 478.843392 60.845116 
L 479.587392 61.049408 
L 481.075392 60.979534 
L 484.795392 61.044892 
L 485.539392 60.84891 
L 488.515392 60.973654 
L 490.747392 61.046288 
L 493.723392 61.081398 
L 494.467392 60.93351 
L 497.443392 61.054186 
L 498.187392 60.810047 
L 499.675392 60.826362 
L 500.419392 61.034588 
L 501.163392 60.813096 
L 504.139392 61.018437 
L 504.883392 60.835732 
L 513.811392 60.726353 
L 514.555392 60.914047 
L 515.299392 60.92314 
L 516.043392 61.254819 
L 516.787392 61.260279 
L 517.531392 61.389805 
L 518.275392 61.712191 
L 520.507392 61.741148 
L 521.251392 61.478798 
L 521.995392 61.488091 
L 522.739392 61.360049 
L 523.483392 61.475941 
L 524.971392 61.265184 
L 525.715392 61.361238 
L 526.459392 60.982119 
L 527.947392 60.937995 
L 528.691392 61.152116 
L 529.435392 61.155612 
L 530.179392 61.278918 
L 530.923392 61.288819 
L 531.667392 61.060991 
L 533.155392 61.066201 
L 533.899392 60.899095 
L 536.131392 60.972286 
L 536.875392 61.209033 
L 539.107392 61.211186 
L 540.595392 61.915959 
L 541.339392 61.919617 
L 542.083392 61.267492 
L 545.059392 61.291175 
L 545.803392 61.459022 
L 547.291392 61.522193 
L 548.035392 61.133686 
L 550.267392 61.141836 
L 551.011392 61.686283 
L 553.243392 61.632509 
L 553.987392 61.837824 
L 557.707392 61.888234 
L 558.451392 61.743392 
L 559.195392 61.303916 
L 559.939392 61.304403 
L 560.683392 61.819595 
L 565.147392 61.816626 
L 565.891392 61.595841 
L 567.379392 61.597469 
L 568.123392 61.357076 
L 569.611392 61.46958 
L 570.355392 61.449361 
L 571.099392 61.250177 
L 572.587392 61.361441 
L 574.075392 61.365809 
L 574.819392 61.035256 
L 575.563392 61.628088 
L 576.307392 61.606842 
L 577.051392 61.924038 
L 578.539392 61.919801 
L 579.283392 61.773853 
L 580.027392 61.771719 
L 580.771392 62.025988 
L 581.515392 62.023342 
L 582.259392 62.235015 
L 583.003392 61.991527 
L 583.747392 62.075771 
L 585.235392 62.008365 
L 586.723392 61.452801 
L 588.955392 61.605681 
L 589.699392 61.834969 
L 591.187392 61.487382 
L 592.675392 61.506931 
L 594.163392 61.565371 
L 595.651392 61.210004 
L 596.395392 61.462728 
L 600.115392 61.505769 
L 600.859392 61.288518 
L 609.043392 61.367927 
L 609.787392 61.12685 
L 610.531392 61.265485 
L 611.275392 61.260893 
L 612.763392 61.423063 
L 613.507392 61.085969 
L 614.251392 60.968769 
L 615.739392 60.982434 
L 616.483392 61.287878 
L 617.971392 61.301532 
L 618.715392 61.77037 
L 620.203392 61.858547 
L 622.435392 61.930334 
L 623.923392 61.92181 
L 624.667392 61.633503 
L 625.411392 61.480326 
L 628.387392 61.702414 
L 632.107392 61.718795 
L 632.851392 61.469457 
L 633.595392 61.513592 
L 634.339392 61.363324 
L 635.827392 61.352237 
L 636.571392 61.12896 
L 638.059392 61.33284 
L 646.987392 61.250722 
L 647.731392 61.050015 
L 648.475392 61.237703 
L 650.412468 61.274897 
L 650.412468 61.274897 
" clip-path="url(#p5f9432bc85)" style="fill: none; stroke: #ff9200; stroke-opacity: 0.75; stroke-width: 6; stroke-linecap: square"/>
   </g>
   <g id="patch_3">
    <path d="M 63.691392 178.97594 
L 63.691392 49.61594 
" style="fill: none; stroke: #000000; stroke-width: 0.8; stroke-linejoin: miter; stroke-linecap: square"/>
   </g>
   <g id="text_2">
    <!-- correlation function $\left&lt; S_i S_{i+1} \right&gt;$ -->
    <g transform="translate(171.581566 29.61594) scale(0.3 -0.3)">
     <defs>
      <path id="CMR17-63" d="M 2234 2240 
C 2112 2240 1933 2240 1933 2017 
C 1933 1838 2080 1787 2163 1787 
C 2208 1787 2394 1807 2394 2024 
C 2394 2467 1958 2803 1466 2803 
C 787 2803 211 2178 211 1363 
C 211 516 813 -64 1466 -64 
C 2259 -64 2458 677 2458 748 
C 2458 774 2451 793 2406 793 
C 2362 793 2355 787 2330 703 
C 2163 180 1798 51 1523 51 
C 1114 51 621 427 621 1369 
C 621 2338 1094 2688 1472 2688 
C 1722 2688 2093 2573 2234 2240 
z
" transform="scale(0.015625)"/>
      <path id="CMR17-6f" d="M 2758 1356 
C 2758 2176 2163 2816 1466 2816 
C 768 2816 173 2176 173 1356 
C 173 551 768 -64 1466 -64 
C 2163 -64 2758 551 2758 1356 
z
M 1466 51 
C 1165 51 909 230 762 480 
C 602 767 582 1126 582 1408 
C 582 1677 595 2010 762 2298 
C 890 2509 1139 2714 1466 2714 
C 1754 2714 1997 2554 2150 2330 
C 2349 2029 2349 1607 2349 1408 
C 2349 1158 2336 775 2163 467 
C 1984 173 1709 51 1466 51 
z
" transform="scale(0.015625)"/>
      <path id="CMR17-72" d="M 960 1497 
C 960 2112 1222 2688 1702 2688 
C 1747 2688 1792 2682 1837 2662 
C 1837 2662 1696 2617 1696 2452 
C 1696 2298 1818 2234 1914 2234 
C 1990 2234 2131 2279 2131 2458 
C 2131 2663 1926 2790 1709 2790 
C 1222 2790 1011 2317 947 2093 
L 941 2093 
L 941 2790 
L 198 2720 
L 198 2554 
C 576 2554 634 2515 634 2208 
L 634 428 
C 634 184 608 153 198 153 
L 198 -13 
C 352 0 646 0 813 0 
C 998 0 1325 0 1498 -13 
L 1498 153 
C 1037 153 960 153 960 440 
L 960 1497 
z
" transform="scale(0.015625)"/>
      <path id="CMR17-65" d="M 2438 1472 
C 2464 1498 2464 1511 2464 1576 
C 2464 2238 2118 2816 1389 2816 
C 710 2816 173 2169 173 1383 
C 173 551 781 -64 1459 -64 
C 2176 -64 2458 607 2458 740 
C 2458 784 2419 784 2406 784 
C 2362 784 2355 771 2330 696 
C 2189 265 1837 51 1504 51 
C 1229 51 954 203 781 480 
C 582 803 582 1176 582 1472 
L 2438 1472 
z
M 589 1568 
C 634 2505 1126 2714 1382 2714 
C 1818 2714 2112 2297 2118 1568 
L 589 1568 
z
" transform="scale(0.015625)"/>
      <path id="CMR17-6c" d="M 979 4396 
L 218 4326 
L 218 4160 
C 595 4160 653 4122 653 3817 
L 653 426 
C 653 184 627 153 218 153 
L 218 -13 
C 371 0 653 0 813 0 
C 979 0 1261 0 1414 -13 
L 1414 153 
C 1005 153 979 178 979 426 
L 979 4396 
z
" transform="scale(0.015625)"/>
      <path id="CMR17-61" d="M 2304 1653 
C 2304 2072 2304 2294 2035 2543 
C 1798 2752 1523 2816 1306 2816 
C 800 2816 435 2407 435 1971 
C 435 1728 627 1728 666 1728 
C 749 1728 896 1778 896 1954 
C 896 2112 774 2181 666 2181 
C 640 2181 608 2174 589 2168 
C 723 2592 1069 2714 1293 2714 
C 1613 2714 1965 2429 1965 1885 
L 1965 1600 
C 1587 1600 1133 1549 774 1357 
C 371 1133 256 813 256 570 
C 256 77 832 -64 1171 -64 
C 1523 -64 1850 139 1990 511 
C 2003 233 2182 -18 2464 -18 
C 2598 -18 2938 70 2938 567 
L 2938 920 
L 2822 920 
L 2822 562 
C 2822 178 2650 128 2566 128 
C 2304 128 2304 458 2304 738 
L 2304 1653 
z
M 1965 870 
C 1965 317 1568 38 1216 38 
C 896 38 646 275 646 570 
C 646 761 730 1100 1101 1305 
C 1408 1478 1760 1504 1965 1504 
L 1965 870 
z
" transform="scale(0.015625)"/>
      <path id="CMR17-74" d="M 966 2560 
L 1862 2560 
L 1862 2725 
L 966 2725 
L 966 3904 
L 851 3904 
C 838 3245 614 2668 70 2668 
L 70 2560 
L 627 2560 
L 627 771 
C 627 650 627 -64 1370 -64 
C 1747 -64 1965 306 1965 777 
L 1965 1140 
L 1850 1140 
L 1850 783 
C 1850 344 1677 51 1408 51 
C 1222 51 966 178 966 758 
L 966 2560 
z
" transform="scale(0.015625)"/>
      <path id="CMR17-69" d="M 992 3909 
C 992 4049 877 4170 730 4170 
C 589 4170 467 4056 467 3909 
C 467 3769 582 3648 730 3648 
C 870 3648 992 3763 992 3909 
z
M 243 2706 
L 243 2541 
C 602 2541 653 2502 653 2197 
L 653 427 
C 653 184 627 153 218 153 
L 218 -13 
C 371 0 646 0 806 0 
C 960 0 1222 0 1370 -13 
L 1370 153 
C 992 153 979 191 979 420 
L 979 2776 
L 243 2706 
z
" transform="scale(0.015625)"/>
      <path id="CMR17-6e" d="M 2656 1933 
C 2656 2259 2592 2790 1837 2790 
C 1331 2790 1069 2400 973 2144 
L 966 2144 
L 966 2790 
L 211 2720 
L 211 2554 
C 589 2554 646 2515 646 2208 
L 646 428 
C 646 184 621 153 211 153 
L 211 -13 
C 365 0 646 0 813 0 
C 979 0 1267 0 1421 -13 
L 1421 153 
C 1011 153 986 178 986 428 
L 986 1658 
C 986 2247 1344 2688 1792 2688 
C 2266 2688 2317 2266 2317 1958 
L 2317 428 
C 2317 184 2291 153 1882 153 
L 1882 -13 
C 2035 0 2317 0 2483 0 
C 2650 0 2938 0 3091 -13 
L 3091 153 
C 2682 153 2656 178 2656 428 
L 2656 1933 
z
" transform="scale(0.015625)"/>
      <path id="CMR17-66" d="M 979 2560 
L 1709 2560 
L 1709 2725 
L 966 2725 
L 966 3494 
C 966 4022 1235 4352 1510 4352 
C 1594 4352 1690 4327 1754 4282 
C 1702 4269 1568 4225 1568 4067 
C 1568 3901 1696 3850 1786 3850 
C 1875 3850 2003 3901 2003 4067 
C 2003 4308 1773 4454 1517 4454 
C 1152 4454 653 4156 653 3481 
L 653 2725 
L 141 2725 
L 141 2560 
L 653 2560 
L 653 427 
C 653 184 627 153 218 153 
L 218 -13 
C 371 0 666 0 832 0 
C 1018 0 1344 0 1517 -13 
L 1517 153 
C 1056 153 979 153 979 439 
L 979 2560 
z
" transform="scale(0.015625)"/>
      <path id="CMR17-75" d="M 1882 2693 
L 1882 2528 
C 2259 2528 2317 2489 2317 2186 
L 2317 1032 
C 2317 500 2029 38 1555 38 
C 1030 38 986 348 986 678 
L 986 2763 
L 211 2693 
L 211 2528 
C 467 2528 640 2528 646 2274 
L 646 1058 
C 646 633 646 361 813 183 
C 896 101 1056 -64 1517 -64 
C 2061 -64 2272 377 2323 506 
L 2330 506 
L 2330 -63 
L 3091 -63 
L 3091 128 
C 2714 128 2656 166 2656 473 
L 2656 2763 
L 1882 2693 
z
" transform="scale(0.015625)"/>
      <path id="CMSY10-68" d="M 2099 4557 
C 2131 4627 2131 4640 2131 4672 
C 2131 4742 2074 4800 2003 4800 
C 1946 4800 1901 4768 1856 4653 
L 736 1715 
C 723 1677 704 1638 704 1600 
C 704 1581 704 1568 736 1491 
L 1856 -1446 
C 1882 -1517 1914 -1600 2003 -1600 
C 2074 -1600 2131 -1542 2131 -1472 
C 2131 -1453 2131 -1440 2099 -1370 
L 966 1600 
L 2099 4557 
z
" transform="scale(0.015625)"/>
      <path id="CMMI12-53" d="M 4064 4423 
C 4064 4480 4019 4480 4006 4480 
C 3981 4480 3974 4474 3898 4378 
C 3859 4333 3597 4001 3590 3995 
C 3379 4410 2957 4480 2688 4480 
C 1875 4480 1139 3743 1139 3025 
C 1139 2549 1427 2269 1741 2161 
C 1811 2135 2189 2033 2381 1989 
C 2707 1900 2790 1875 2925 1735 
C 2950 1703 3078 1557 3078 1258 
C 3078 667 2528 57 1888 57 
C 1363 57 781 280 781 991 
C 781 1112 806 1265 826 1328 
C 826 1348 832 1378 832 1391 
C 832 1417 819 1449 768 1449 
C 710 1449 704 1436 678 1328 
L 352 24 
C 352 18 326 -64 326 -71 
C 326 -128 378 -128 390 -128 
C 416 -128 422 -122 499 -26 
L 794 356 
C 947 126 1280 -128 1875 -128 
C 2701 -128 3456 666 3456 1460 
C 3456 1728 3392 1963 3149 2197 
C 3014 2331 2899 2363 2310 2516 
C 1882 2630 1824 2649 1709 2751 
C 1600 2858 1517 3011 1517 3227 
C 1517 3761 2061 4308 2669 4308 
C 3296 4308 3590 3926 3590 3323 
C 3590 3158 3558 2986 3558 2961 
C 3558 2903 3610 2903 3629 2903 
C 3686 2903 3693 2922 3718 3024 
L 4064 4423 
z
" transform="scale(0.015625)"/>
      <path id="CMMI12-69" d="M 1811 913 
C 1811 945 1786 971 1747 971 
C 1690 971 1683 952 1651 843 
C 1485 262 1222 64 1011 64 
C 934 64 845 83 845 275 
C 845 447 922 639 992 830 
L 1440 2018 
C 1459 2069 1504 2184 1504 2305 
C 1504 2574 1312 2816 998 2816 
C 410 2816 173 1890 173 1839 
C 173 1814 198 1782 243 1782 
C 301 1782 307 1807 333 1896 
C 486 2428 730 2682 979 2682 
C 1037 2682 1146 2682 1146 2478 
C 1146 2312 1062 2101 1011 1961 
L 563 773 
C 525 671 486 568 486 453 
C 486 166 685 -64 992 -64 
C 1581 -64 1811 869 1811 913 
z
M 1760 4013 
C 1760 4109 1683 4224 1542 4224 
C 1395 4224 1229 4083 1229 3917 
C 1229 3758 1363 3707 1440 3707 
C 1613 3707 1760 3873 1760 4013 
z
" transform="scale(0.015625)"/>
      <path id="CMR17-2b" d="M 2413 1472 
L 4109 1472 
C 4198 1472 4307 1472 4307 1580 
C 4307 1695 4205 1695 4109 1695 
L 2413 1695 
L 2413 3386 
C 2413 3475 2413 3584 2304 3584 
C 2189 3584 2189 3482 2189 3386 
L 2189 1695 
L 493 1695 
C 403 1695 294 1695 294 1587 
C 294 1472 397 1472 493 1472 
L 2189 1472 
L 2189 -218 
C 2189 -307 2189 -416 2298 -416 
C 2413 -416 2413 -314 2413 -218 
L 2413 1472 
z
" transform="scale(0.015625)"/>
      <path id="CMR17-31" d="M 1702 4058 
C 1702 4192 1696 4192 1606 4192 
C 1357 3916 979 3827 621 3827 
C 602 3827 570 3827 563 3808 
C 557 3795 557 3782 557 3648 
C 755 3648 1088 3686 1344 3839 
L 1344 461 
C 1344 236 1331 160 781 160 
L 589 160 
L 589 0 
C 896 0 1216 0 1523 0 
C 1830 0 2150 0 2458 0 
L 2458 160 
L 2266 160 
C 1715 160 1702 230 1702 458 
L 1702 4058 
z
" transform="scale(0.015625)"/>
      <path id="CMSY10-69" d="M 1747 1491 
C 1779 1568 1779 1581 1779 1600 
C 1779 1619 1779 1632 1747 1709 
L 627 4653 
C 589 4762 550 4800 480 4800 
C 410 4800 352 4742 352 4672 
C 352 4653 352 4640 384 4570 
L 1517 1600 
L 384 -1357 
C 352 -1427 352 -1440 352 -1472 
C 352 -1542 410 -1600 480 -1600 
C 563 -1600 589 -1536 614 -1472 
L 1747 1491 
z
" transform="scale(0.015625)"/>
     </defs>
     <use xlink:href="#CMR17-63" transform="scale(0.996264)"/>
     <use xlink:href="#CMR17-6f" transform="translate(40.48566 0) scale(0.996264)"/>
     <use xlink:href="#CMR17-72" transform="translate(86.176138 0) scale(0.996264)"/>
     <use xlink:href="#CMR17-72" transform="translate(121.456905 0) scale(0.996264)"/>
     <use xlink:href="#CMR17-65" transform="translate(156.737673 0) scale(0.996264)"/>
     <use xlink:href="#CMR17-6c" transform="translate(197.223334 0) scale(0.996264)"/>
     <use xlink:href="#CMR17-61" transform="translate(222.094392 0) scale(0.996264)"/>
     <use xlink:href="#CMR17-74" transform="translate(267.784869 0) scale(0.996264)"/>
     <use xlink:href="#CMR17-69" transform="translate(303.065637 0) scale(0.996264)"/>
     <use xlink:href="#CMR17-6f" transform="translate(327.936696 0) scale(0.996264)"/>
     <use xlink:href="#CMR17-6e" transform="translate(373.627173 0) scale(0.996264)"/>
     <use xlink:href="#CMR17-66" transform="translate(454.598509 0) scale(0.996264)"/>
     <use xlink:href="#CMR17-75" transform="translate(482.072021 0) scale(0.996264)"/>
     <use xlink:href="#CMR17-6e" transform="translate(532.967391 0) scale(0.996264)"/>
     <use xlink:href="#CMR17-63" transform="translate(583.862761 0) scale(0.996264)"/>
     <use xlink:href="#CMR17-74" transform="translate(624.348421 0) scale(0.996264)"/>
     <use xlink:href="#CMR17-69" transform="translate(659.629189 0) scale(0.996264)"/>
     <use xlink:href="#CMR17-6f" transform="translate(684.500247 0) scale(0.996264)"/>
     <use xlink:href="#CMR17-6e" transform="translate(730.190725 0) scale(0.996264)"/>
     <use xlink:href="#CMSY10-68" transform="translate(811.162061 0) scale(0.996264)"/>
     <use xlink:href="#CMMI12-53" transform="translate(849.905795 0) scale(0.996264)"/>
     <use xlink:href="#CMMI12-69" transform="translate(909.900282 -14.943915) scale(0.697382)"/>
     <use xlink:href="#CMMI12-53" transform="translate(933.693322 0) scale(0.996264)"/>
     <use xlink:href="#CMMI12-69" transform="translate(993.68781 -14.943915) scale(0.697382)"/>
     <use xlink:href="#CMR17-2b" transform="translate(1016.982717 -14.943915) scale(0.697382)"/>
     <use xlink:href="#CMR17-31" transform="translate(1067.182848 -14.943915) scale(0.697382)"/>
     <use xlink:href="#CMSY10-69" transform="translate(1099.664162 0) scale(0.996264)"/>
    </g>
   </g>
  </g>
  <g id="axes_2">
   <g id="patch_4">
    <path d="M 63.691392 204.84794 
L 621.691392 204.84794 
L 621.691392 75.48794 
L 63.691392 75.48794 
L 63.691392 204.84794 
z
" style="fill: none"/>
   </g>
   <g id="matplotlib.axis_3">
    <g id="xtick_8">
     <g id="line2d_11"/>
    </g>
    <g id="xtick_9">
     <g id="line2d_12"/>
    </g>
    <g id="xtick_10">
     <g id="line2d_13"/>
    </g>
    <g id="xtick_11">
     <g id="line2d_14"/>
    </g>
    <g id="xtick_12">
     <g id="line2d_15"/>
    </g>
    <g id="xtick_13">
     <g id="line2d_16"/>
    </g>
    <g id="xtick_14">
     <g id="line2d_17"/>
    </g>
   </g>
   <g id="matplotlib.axis_4">
    <g id="ytick_2">
     <g id="line2d_18">
      <defs>
       <path id="m0a107cbd4b" d="M 0 0 
L -4 0 
" style="stroke: #ff6d00; stroke-opacity: 0.9"/>
      </defs>
      <g>
       <use xlink:href="#m0a107cbd4b" x="63.691392" y="86.26794" style="fill: #ff6d00; fill-opacity: 0.9; stroke: #ff6d00; stroke-opacity: 0.9"/>
      </g>
     </g>
     <g id="text_3">
      <!-- $\mathdefault{0}$ -->
      <g style="fill: #ff6d00; opacity: 0.9" transform="translate(44.768773 94.916067) scale(0.25 -0.25)">
       <use xlink:href="#CMR17-30" transform="scale(0.996264)"/>
      </g>
     </g>
    </g>
   </g>
   <g id="line2d_19">
    <path d="M 63.691392 86.26794 
L 621.691392 86.26794 
" clip-path="url(#pb2568b5316)" style="fill: none; stroke-dasharray: 2.775,1.2; stroke-dashoffset: 0; stroke: #ff6d00; stroke-width: 0.75"/>
   </g>
   <g id="line2d_20">
    <path d="M 63.691392 193.974154 
L 65.179392 194.271466 
L 65.923392 194.214965 
L 66.667392 193.005139 
L 68.155392 193.538345 
L 68.899392 193.004413 
L 69.643392 192.805682 
L 70.387392 192.102318 
L 71.131392 192.151388 
L 71.875392 191.012774 
L 72.619392 191.378743 
L 73.363392 190.991341 
L 74.107392 189.988845 
L 74.851392 190.026581 
L 75.595392 188.392573 
L 76.339392 189.033162 
L 77.083392 187.943192 
L 78.571392 186.554312 
L 79.315392 186.239786 
L 80.059392 184.735091 
L 80.803392 183.646713 
L 81.547392 182.812306 
L 82.291392 182.382719 
L 83.035392 181.213777 
L 83.779392 180.645794 
L 84.523392 179.38668 
L 85.267392 178.664219 
L 86.011392 176.795282 
L 88.243392 173.826565 
L 88.987392 173.132126 
L 89.731392 171.489257 
L 90.475392 170.405637 
L 91.219392 168.041098 
L 91.963392 166.908124 
L 92.707392 166.06877 
L 94.195392 163.654124 
L 94.939392 161.744369 
L 96.427392 159.236154 
L 97.171392 157.285037 
L 101.635392 149.050049 
L 103.123392 145.697718 
L 103.867392 144.807401 
L 104.611392 143.115897 
L 105.355392 142.100358 
L 106.099392 139.937241 
L 106.843392 138.470434 
L 107.587392 137.460405 
L 109.075392 134.130374 
L 110.563392 131.964844 
L 111.307392 130.061073 
L 115.771392 121.063993 
L 116.515392 120.059307 
L 118.003392 116.963615 
L 118.747392 115.938863 
L 119.491392 114.145601 
L 120.979392 112.184256 
L 121.723392 110.325786 
L 122.467392 109.911614 
L 123.955392 107.118088 
L 125.443392 104.438815 
L 126.187392 103.816858 
L 126.931392 102.795485 
L 128.419392 100.356069 
L 129.163392 99.496615 
L 129.907392 98.29322 
L 130.651392 97.812109 
L 132.883392 94.792799 
L 133.627392 93.970114 
L 135.115392 92.953636 
L 135.859392 91.992492 
L 137.347392 90.926132 
L 138.091392 90.372198 
L 138.835392 89.961513 
L 139.579392 89.111658 
L 140.323392 88.643032 
L 141.067392 88.42242 
L 141.811392 87.892847 
L 142.555392 87.755213 
L 143.299392 87.20689 
L 144.043392 87.071675 
L 144.787392 86.496656 
L 145.531392 86.637732 
L 148.507392 86.168398 
L 153.715392 86.119786 
L 225.883392 85.306267 
L 237.787392 85.140254 
L 238.531392 85.345177 
L 283.915392 85.175518 
L 310.699392 85.173013 
L 333.019392 85.23838 
L 333.763392 84.948857 
L 363.523392 85.142793 
L 364.267392 85.409809 
L 395.515392 85.719632 
L 396.259392 85.896624 
L 487.027392 86.684468 
L 487.771392 86.857059 
L 508.603392 87.078534 
L 509.347392 87.324655 
L 519.763392 87.448782 
L 520.507392 87.226759 
L 524.971392 87.2695 
L 525.715392 86.966018 
L 554.731392 87.136187 
L 555.475392 87.294466 
L 571.843392 87.405828 
L 572.587392 87.021338 
L 594.907392 87.03367 
L 595.651392 87.566219 
L 646.987392 87.429898 
L 647.731392 87.303735 
L 650.412468 87.261576 
L 650.412468 87.261576 
" clip-path="url(#pb2568b5316)" style="fill: none; stroke: #ff6d00; stroke-opacity: 0.75; stroke-width: 6; stroke-linecap: square"/>
   </g>
   <g id="patch_5">
    <path d="M 63.691392 204.84794 
L 63.691392 75.48794 
" style="fill: none; stroke: #000000; stroke-width: 0.8; stroke-linejoin: miter; stroke-linecap: square"/>
   </g>
  </g>
  <g id="axes_3">
   <g id="patch_6">
    <path d="M 63.691392 230.71994 
L 621.691392 230.71994 
L 621.691392 101.35994 
L 63.691392 101.35994 
L 63.691392 230.71994 
z
" style="fill: none"/>
   </g>
   <g id="matplotlib.axis_5">
    <g id="xtick_15">
     <g id="line2d_21"/>
    </g>
    <g id="xtick_16">
     <g id="line2d_22"/>
    </g>
    <g id="xtick_17">
     <g id="line2d_23"/>
    </g>
    <g id="xtick_18">
     <g id="line2d_24"/>
    </g>
    <g id="xtick_19">
     <g id="line2d_25"/>
    </g>
    <g id="xtick_20">
     <g id="line2d_26"/>
    </g>
    <g id="xtick_21">
     <g id="line2d_27"/>
    </g>
   </g>
   <g id="matplotlib.axis_6">
    <g id="ytick_3">
     <g id="line2d_28">
      <defs>
       <path id="md056f1e3e4" d="M 0 0 
L -4 0 
" style="stroke: #ff4900; stroke-opacity: 0.9"/>
      </defs>
      <g>
       <use xlink:href="#md056f1e3e4" x="63.691392" y="112.13994" style="fill: #ff4900; fill-opacity: 0.9; stroke: #ff4900; stroke-opacity: 0.9"/>
      </g>
     </g>
     <g id="text_4">
      <!-- $\mathdefault{0}$ -->
      <g style="fill: #ff4900; opacity: 0.9" transform="translate(44.768773 120.788067) scale(0.25 -0.25)">
       <use xlink:href="#CMR17-30" transform="scale(0.996264)"/>
      </g>
     </g>
    </g>
   </g>
   <g id="line2d_29">
    <path d="M 63.691392 112.13994 
L 621.691392 112.13994 
" clip-path="url(#p63c8e71de5)" style="fill: none; stroke-dasharray: 2.775,1.2; stroke-dashoffset: 0; stroke: #ff4900; stroke-width: 0.75"/>
   </g>
   <g id="line2d_30">
    <path d="M 63.691392 219.846154 
L 64.435392 220.510373 
L 65.179392 220.059716 
L 65.923392 219.763984 
L 66.667392 219.255199 
L 67.411392 219.599584 
L 68.155392 219.506437 
L 68.899392 219.184358 
L 70.387392 218.022123 
L 71.131392 218.0768 
L 71.875392 217.316154 
L 72.619392 217.196095 
L 73.363392 216.746288 
L 74.107392 216.528261 
L 74.851392 215.258069 
L 77.827392 213.539684 
L 78.571392 211.760215 
L 79.315392 211.662878 
L 80.059392 210.50667 
L 81.547392 209.398586 
L 82.291392 207.788677 
L 83.779392 206.222269 
L 84.523392 204.542485 
L 85.267392 204.430245 
L 87.499392 201.089462 
L 88.243392 199.390452 
L 89.731392 197.361329 
L 91.963392 193.354518 
L 93.451392 190.947745 
L 94.195392 189.352874 
L 94.939392 188.246615 
L 96.427392 184.971194 
L 97.171392 183.330677 
L 97.915392 182.441328 
L 98.659392 180.330944 
L 99.403392 179.194478 
L 100.147392 177.25703 
L 100.891392 176.760872 
L 101.635392 174.997629 
L 102.379392 173.606972 
L 103.123392 171.832517 
L 103.867392 170.72078 
L 105.355392 167.635939 
L 106.099392 166.05923 
L 107.587392 163.629426 
L 108.331392 161.876483 
L 109.075392 160.606539 
L 109.819392 159.109263 
L 110.563392 158.001047 
L 111.307392 156.438963 
L 112.051392 154.195501 
L 112.795392 153.421188 
L 113.539392 151.825072 
L 114.283392 150.535561 
L 115.027392 148.582457 
L 115.771392 147.196999 
L 116.515392 146.09973 
L 119.491392 140.579511 
L 120.235392 138.833402 
L 120.979392 137.816957 
L 121.723392 137.0297 
L 123.211392 134.350546 
L 124.699392 131.437084 
L 125.443392 130.720761 
L 127.675392 127.264921 
L 128.419392 126.9027 
L 129.163392 125.371871 
L 129.907392 124.575481 
L 130.651392 123.467048 
L 132.139392 122.180683 
L 132.883392 121.006106 
L 133.627392 120.407803 
L 136.603392 117.212577 
L 138.835392 115.620225 
L 139.579392 114.948832 
L 141.067392 114.417106 
L 141.811392 113.806235 
L 142.555392 113.759641 
L 143.299392 112.899504 
L 144.043392 112.93545 
L 144.787392 112.402351 
L 146.275392 112.42588 
L 147.019392 112.279178 
L 147.763392 111.953347 
L 148.507392 112.102845 
L 150.739392 112.037677 
L 214.723392 111.629522 
L 215.467392 111.444395 
L 219.187392 111.409972 
L 219.931392 111.2174 
L 223.651392 111.178971 
L 224.395392 111.33955 
L 237.787392 111.136159 
L 238.531392 110.959429 
L 239.275392 111.146189 
L 246.715392 111.098957 
L 247.459392 110.733289 
L 248.947392 110.666231 
L 257.131392 110.508043 
L 257.875392 110.762555 
L 260.851392 110.758381 
L 261.595392 110.933245 
L 263.083392 110.81986 
L 263.827392 111.099636 
L 265.315392 111.099252 
L 266.059392 110.696294 
L 267.547392 110.696742 
L 268.291392 110.465765 
L 269.035392 110.365919 
L 269.779392 110.522417 
L 272.011392 110.476478 
L 273.499392 110.465386 
L 274.243392 110.880984 
L 275.731392 110.874017 
L 276.475392 110.995599 
L 277.219392 110.869431 
L 277.963392 110.934441 
L 278.707392 110.807669 
L 280.195392 110.905689 
L 283.915392 110.977873 
L 284.659392 110.759955 
L 287.635392 110.746768 
L 288.379392 111.043026 
L 289.123392 110.785173 
L 289.867392 110.785325 
L 290.611392 110.393186 
L 291.355392 110.519517 
L 292.099392 110.521516 
L 292.843392 110.646894 
L 294.331392 110.640621 
L 295.075392 110.821758 
L 298.795392 110.706462 
L 300.283392 110.623365 
L 301.771392 110.79433 
L 303.259392 110.728177 
L 306.235392 110.837481 
L 307.723392 110.904305 
L 312.187392 110.885153 
L 312.931392 110.699354 
L 315.907392 110.835348 
L 316.651392 110.690982 
L 319.627392 110.734788 
L 320.371392 110.854859 
L 329.299392 110.829211 
L 330.043392 111.048715 
L 333.019392 111.39771 
L 335.995392 111.264414 
L 337.483392 110.957631 
L 338.971392 110.963488 
L 339.715392 111.099391 
L 340.459392 111.429476 
L 341.203392 110.961007 
L 341.947392 110.284385 
L 342.691392 110.861112 
L 344.923392 110.909402 
L 345.667392 111.173172 
L 347.155392 111.068885 
L 347.899392 110.674136 
L 348.643392 110.68199 
L 349.387392 110.499287 
L 350.131392 110.503376 
L 350.875392 110.706013 
L 352.363392 110.72879 
L 354.595392 110.779483 
L 357.571392 110.601304 
L 359.803392 110.517176 
L 365.755392 110.629326 
L 367.987392 111.227543 
L 368.731392 111.096604 
L 370.963392 111.025513 
L 371.707392 110.922935 
L 372.451392 110.960281 
L 373.195392 111.257348 
L 378.403392 111.304072 
L 379.147392 111.426103 
L 379.891392 111.204065 
L 380.635392 111.51466 
L 381.379392 111.193757 
L 388.819392 111.196784 
L 389.563392 110.817416 
L 390.307392 110.825591 
L 391.051392 111.02579 
L 391.795392 111.03411 
L 392.539392 111.162449 
L 395.515392 111.163941 
L 402.211392 111.272034 
L 406.675392 111.42849 
L 415.603392 111.882947 
L 416.347392 111.685839 
L 417.091392 111.80747 
L 437.179392 111.959133 
L 437.923392 111.83679 
L 462.475392 112.262457 
L 463.963392 112.384404 
L 468.427392 112.381784 
L 469.171392 112.23695 
L 472.891392 112.20641 
L 473.635392 112.418339 
L 481.075392 112.492558 
L 481.819392 112.34683 
L 488.515392 112.522519 
L 491.491392 112.514952 
L 492.979392 112.575437 
L 493.723392 112.382949 
L 505.627392 112.718357 
L 507.115392 112.571271 
L 507.859392 112.687536 
L 509.347392 112.628461 
L 510.835392 112.652807 
L 512.323392 112.72802 
L 513.067392 112.627651 
L 514.555392 112.708193 
L 516.043392 112.645792 
L 516.787392 112.525955 
L 517.531392 112.84326 
L 519.019392 112.878246 
L 520.507392 112.854034 
L 521.251392 112.861579 
L 522.739392 112.581071 
L 523.483392 112.71376 
L 524.227392 112.508089 
L 524.971392 112.496401 
L 526.459392 112.76562 
L 527.203392 112.634633 
L 530.179392 112.691502 
L 530.923392 112.87915 
L 531.667392 112.666296 
L 532.411392 112.794142 
L 533.899392 112.673022 
L 534.643392 112.797873 
L 535.387392 112.801947 
L 536.875392 112.585691 
L 538.363392 112.880887 
L 539.851392 112.717141 
L 540.595392 112.837347 
L 542.827392 112.873485 
L 544.315392 113.127338 
L 545.059392 113.194555 
L 546.547392 112.932965 
L 547.291392 112.988749 
L 549.523392 112.633382 
L 551.011392 112.625349 
L 551.755392 113.024288 
L 552.499392 112.814999 
L 553.243392 112.987291 
L 555.475392 113.254496 
L 556.219392 112.718615 
L 556.963392 113.054997 
L 557.707392 113.236572 
L 559.939392 113.179593 
L 560.683392 112.880568 
L 562.915392 112.764786 
L 563.659392 113.209151 
L 564.403392 112.798379 
L 565.147392 112.829135 
L 565.891392 112.585003 
L 567.379392 112.735967 
L 568.123392 112.592569 
L 568.867392 112.821706 
L 569.611392 112.927776 
L 570.355392 113.34684 
L 571.843392 112.420431 
L 572.587392 112.423241 
L 574.075392 112.611408 
L 574.819392 113.03628 
L 576.307392 113.1734 
L 577.051392 112.925593 
L 577.795392 113.112566 
L 578.539392 113.144009 
L 579.283392 113.551539 
L 580.027392 113.197526 
L 580.771392 113.570568 
L 581.515392 113.574567 
L 583.003392 112.84972 
L 583.747392 113.165182 
L 584.491392 112.650495 
L 585.979392 112.640584 
L 586.723392 112.565222 
L 587.467392 112.62614 
L 588.211392 113.179797 
L 588.955392 113.31341 
L 591.187392 113.343234 
L 591.931392 113.555769 
L 592.675392 112.865699 
L 593.419392 113.256655 
L 594.163392 112.99014 
L 596.395392 112.909098 
L 597.883392 112.490693 
L 598.627392 112.4877 
L 599.371392 112.713518 
L 600.115392 112.698299 
L 600.859392 112.870784 
L 601.603392 112.747244 
L 602.347392 113.044815 
L 603.091392 112.881345 
L 603.835392 112.88991 
L 604.579392 112.711915 
L 606.067392 113.123779 
L 606.811392 112.918948 
L 607.555392 113.024023 
L 608.299392 112.921609 
L 609.043392 113.116177 
L 610.531392 113.102935 
L 611.275392 112.777543 
L 612.763392 112.671602 
L 613.507392 112.856907 
L 614.251392 112.927445 
L 614.995392 112.80494 
L 615.739392 113.374586 
L 616.483392 113.111688 
L 617.227392 113.510197 
L 618.715392 113.427771 
L 619.459392 113.096093 
L 620.203392 112.981213 
L 621.691392 113.026604 
L 623.179392 113.431989 
L 624.667392 113.136248 
L 625.411392 113.197916 
L 626.155392 113.405716 
L 626.899392 113.095903 
L 627.643392 113.194528 
L 628.387392 112.84189 
L 629.875392 112.689021 
L 630.619392 112.971873 
L 631.363392 112.930239 
L 632.107392 113.128295 
L 633.595392 113.147429 
L 634.339392 113.339599 
L 635.083392 113.182297 
L 635.827392 113.287131 
L 636.571392 113.054689 
L 637.315392 112.125442 
L 638.059392 112.415656 
L 638.803392 112.829885 
L 640.291392 112.863297 
L 641.035392 112.579295 
L 642.523392 113.150217 
L 643.267392 112.93836 
L 644.011392 112.955607 
L 644.755392 113.085597 
L 645.499392 112.88007 
L 646.987392 113.197346 
L 648.475392 112.829891 
L 649.963392 113.273314 
L 650.412468 113.178703 
L 650.412468 113.178703 
" clip-path="url(#p63c8e71de5)" style="fill: none; stroke: #ff4900; stroke-opacity: 0.75; stroke-width: 6; stroke-linecap: square"/>
   </g>
   <g id="patch_7">
    <path d="M 63.691392 230.71994 
L 63.691392 101.35994 
" style="fill: none; stroke: #000000; stroke-width: 0.8; stroke-linejoin: miter; stroke-linecap: square"/>
   </g>
  </g>
  <g id="axes_4">
   <g id="patch_8">
    <path d="M 63.691392 256.59194 
L 621.691392 256.59194 
L 621.691392 127.23194 
L 63.691392 127.23194 
L 63.691392 256.59194 
z
" style="fill: none"/>
   </g>
   <g id="matplotlib.axis_7">
    <g id="xtick_22">
     <g id="line2d_31"/>
    </g>
    <g id="xtick_23">
     <g id="line2d_32"/>
    </g>
    <g id="xtick_24">
     <g id="line2d_33"/>
    </g>
    <g id="xtick_25">
     <g id="line2d_34"/>
    </g>
    <g id="xtick_26">
     <g id="line2d_35"/>
    </g>
    <g id="xtick_27">
     <g id="line2d_36"/>
    </g>
    <g id="xtick_28">
     <g id="line2d_37"/>
    </g>
   </g>
   <g id="matplotlib.axis_8">
    <g id="ytick_4">
     <g id="line2d_38">
      <defs>
       <path id="m8d936414c0" d="M 0 0 
L -4 0 
" style="stroke: #ff2400; stroke-opacity: 0.9"/>
      </defs>
      <g>
       <use xlink:href="#m8d936414c0" x="63.691392" y="138.01194" style="fill: #ff2400; fill-opacity: 0.9; stroke: #ff2400; stroke-opacity: 0.9"/>
      </g>
     </g>
     <g id="text_5">
      <!-- $\mathdefault{0}$ -->
      <g style="fill: #ff2400; opacity: 0.9" transform="translate(44.768773 146.660067) scale(0.25 -0.25)">
       <use xlink:href="#CMR17-30" transform="scale(0.996264)"/>
      </g>
     </g>
    </g>
   </g>
   <g id="line2d_39">
    <path d="M 63.691392 138.01194 
L 621.691392 138.01194 
" clip-path="url(#pca75099099)" style="fill: none; stroke-dasharray: 2.775,1.2; stroke-dashoffset: 0; stroke: #ff2400; stroke-width: 0.75"/>
   </g>
   <g id="line2d_40">
    <path d="M 63.691392 245.718154 
L 64.435392 246.111914 
L 65.179392 246.06633 
L 65.923392 245.349356 
L 66.667392 245.195477 
L 67.411392 245.695591 
L 68.155392 245.220471 
L 68.899392 244.902242 
L 69.643392 244.742498 
L 70.387392 243.963379 
L 71.131392 243.536632 
L 72.619392 243.295647 
L 73.363392 242.795677 
L 74.107392 241.709971 
L 74.851392 241.663215 
L 75.595392 240.243073 
L 76.339392 240.843939 
L 77.083392 239.704907 
L 78.571392 238.517092 
L 79.315392 237.332119 
L 80.059392 236.796571 
L 80.803392 235.755582 
L 81.547392 235.001609 
L 82.291392 233.467448 
L 83.035392 233.373298 
L 83.779392 232.300784 
L 84.523392 230.566519 
L 85.267392 230.358421 
L 86.011392 228.725698 
L 86.755392 228.007056 
L 87.499392 227.0132 
L 88.243392 225.363691 
L 88.987392 224.385933 
L 90.475392 221.886305 
L 95.683392 212.644398 
L 97.171392 209.251732 
L 97.915392 208.367214 
L 98.659392 206.246796 
L 99.403392 205.170155 
L 100.147392 203.415752 
L 100.891392 202.691852 
L 102.379392 199.629517 
L 103.123392 197.682502 
L 104.611392 195.339679 
L 105.355392 193.466292 
L 106.099392 192.041852 
L 106.843392 190.867218 
L 110.563392 183.740888 
L 112.051392 180.22445 
L 112.795392 179.443153 
L 113.539392 177.526593 
L 114.283392 176.419078 
L 115.027392 174.577267 
L 116.515392 171.715944 
L 117.259392 170.316792 
L 118.003392 169.48415 
L 118.747392 167.558564 
L 119.491392 166.106808 
L 120.979392 164.218577 
L 121.723392 162.372853 
L 122.467392 161.663977 
L 123.955392 159.252155 
L 124.699392 157.536138 
L 125.443392 156.673158 
L 126.187392 155.372454 
L 127.675392 153.518386 
L 128.419392 152.947542 
L 129.163392 151.283936 
L 132.139392 147.581634 
L 132.883392 146.817089 
L 133.627392 146.463331 
L 134.371392 145.490275 
L 135.115392 144.871755 
L 135.859392 143.919021 
L 136.603392 143.229857 
L 137.347392 142.795426 
L 138.091392 141.849774 
L 138.835392 141.378458 
L 139.579392 140.71204 
L 140.323392 140.617628 
L 141.811392 139.721985 
L 142.555392 139.562892 
L 143.299392 138.92688 
L 144.043392 139.004054 
L 144.787392 138.460919 
L 145.531392 138.523877 
L 146.275392 138.153688 
L 147.019392 138.263011 
L 147.763392 137.84546 
L 148.507392 138.126741 
L 149.251392 137.593605 
L 202.819392 137.21183 
L 211.747392 137.13468 
L 212.491392 137.268425 
L 213.235392 137.122964 
L 213.979392 137.114129 
L 214.723392 137.249862 
L 221.419392 137.190836 
L 222.163392 137.013722 
L 222.907392 137.163032 
L 224.395392 137.152498 
L 225.139392 137.008557 
L 226.627392 137.002597 
L 228.115392 137.09285 
L 228.859392 136.786374 
L 229.603392 136.777877 
L 230.347392 136.656372 
L 231.091392 136.648005 
L 231.835392 136.92993 
L 232.579392 136.923103 
L 233.323392 137.066494 
L 234.067392 137.061177 
L 234.811392 136.811234 
L 240.763392 136.798147 
L 241.507392 137.123235 
L 246.715392 137.113539 
L 247.459392 137.227383 
L 249.691392 137.222137 
L 250.435392 136.957678 
L 252.667392 136.9101 
L 253.411392 136.764764 
L 256.387392 136.737718 
L 257.131392 136.862116 
L 258.619392 136.852272 
L 259.363392 136.601533 
L 266.059392 136.570972 
L 266.803392 136.717365 
L 268.291392 136.70911 
L 269.035392 136.500349 
L 269.779392 136.724494 
L 273.499392 136.707691 
L 274.243392 136.544731 
L 274.987392 136.057381 
L 277.963392 136.036104 
L 278.707392 135.918948 
L 279.451392 135.918396 
L 280.195392 136.165693 
L 280.939392 136.165971 
L 281.683392 136.434472 
L 283.915392 136.442097 
L 284.659392 135.985251 
L 285.403392 136.165153 
L 286.147392 136.49711 
L 286.891392 136.498589 
L 287.635392 136.041989 
L 293.587392 136.079545 
L 294.331392 136.496091 
L 297.307392 136.395246 
L 298.051392 136.064008 
L 301.771392 136.143211 
L 302.515392 136.287185 
L 304.747392 136.292376 
L 305.491392 135.936983 
L 306.979392 135.993635 
L 307.723392 136.259256 
L 308.467392 136.12315 
L 309.955392 136.103185 
L 310.699392 136.280722 
L 314.419392 136.171347 
L 315.163392 136.097195 
L 315.907392 136.214074 
L 317.395392 136.231488 
L 319.627392 136.283475 
L 320.371392 136.006206 
L 321.115392 136.360775 
L 323.347392 136.452318 
L 324.091392 136.569378 
L 325.579392 136.571314 
L 326.323392 136.141049 
L 327.811392 136.203322 
L 329.299392 136.556174 
L 330.043392 136.425914 
L 330.787392 136.416797 
L 331.531392 136.11835 
L 333.763392 136.050334 
L 338.227392 136.270656 
L 338.971392 136.134739 
L 339.715392 135.720409 
L 341.203392 135.725949 
L 342.691392 136.039376 
L 345.667392 136.105134 
L 346.411392 136.49413 
L 347.899392 136.316548 
L 348.643392 136.170183 
L 350.131392 136.180715 
L 350.875392 136.318959 
L 351.619392 136.640196 
L 352.363392 136.047541 
L 353.107392 136.202233 
L 353.851392 136.563046 
L 354.595392 136.459268 
L 355.339392 136.613994 
L 356.083392 136.485909 
L 357.571392 136.778197 
L 358.315392 136.612776 
L 359.059392 136.699819 
L 360.547392 136.655165 
L 362.779392 136.741843 
L 365.011392 136.795137 
L 365.755392 136.428961 
L 366.499392 136.526801 
L 367.243392 136.738691 
L 370.963392 136.682848 
L 371.707392 136.586872 
L 373.939392 136.648383 
L 375.427392 136.661374 
L 376.171392 136.811281 
L 376.915392 136.619297 
L 378.403392 136.73528 
L 380.635392 136.676629 
L 381.379392 136.405211 
L 382.123392 136.558822 
L 382.867392 136.845556 
L 388.819392 136.912225 
L 389.563392 136.706088 
L 390.307392 137.006807 
L 391.051392 136.701868 
L 394.771392 136.806074 
L 395.515392 136.541632 
L 396.259392 136.900924 
L 399.235392 136.83695 
L 399.979392 136.733268 
L 407.419392 137.106414 
L 415.603392 137.235394 
L 416.347392 137.076403 
L 417.091392 137.078573 
L 417.835392 137.245357 
L 422.299392 137.336778 
L 423.787392 137.457609 
L 458.755392 137.731159 
L 459.499392 137.949262 
L 471.403392 138.124022 
L 472.147392 137.980054 
L 480.331392 138.113376 
L 483.307392 138.113073 
L 485.539392 138.169505 
L 487.027392 138.171783 
L 489.259392 138.164138 
L 495.211392 138.465556 
L 498.931392 138.519821 
L 500.419392 138.256288 
L 501.907392 138.215605 
L 502.651392 138.434343 
L 504.883392 138.499724 
L 505.627392 138.359741 
L 506.371392 138.480482 
L 508.603392 138.394948 
L 509.347392 138.453634 
L 510.091392 138.367262 
L 510.835392 138.655039 
L 513.811392 138.583979 
L 515.299392 138.400201 
L 516.043392 138.473607 
L 516.787392 138.287784 
L 517.531392 138.278108 
L 519.019392 138.874036 
L 519.763392 138.609627 
L 520.507392 138.622124 
L 521.251392 138.813564 
L 522.739392 138.833193 
L 523.483392 138.945342 
L 524.227392 138.749452 
L 524.971392 138.857658 
L 526.459392 138.677081 
L 527.203392 138.763616 
L 528.691392 138.733776 
L 529.435392 138.497035 
L 530.179392 138.517292 
L 530.923392 138.732125 
L 531.667392 138.658124 
L 534.643392 138.779861 
L 535.387392 139.026008 
L 537.619392 138.828373 
L 538.363392 138.696533 
L 539.107392 138.734928 
L 539.851392 138.478615 
L 540.595392 138.797375 
L 541.339392 138.518266 
L 542.083392 138.593777 
L 542.827392 138.93814 
L 544.315392 138.876551 
L 545.059392 138.763197 
L 545.803392 138.771429 
L 546.547392 139.183449 
L 547.291392 138.758152 
L 548.035392 138.885637 
L 548.779392 138.692856 
L 549.523392 139.028941 
L 552.499392 138.73128 
L 555.475392 138.925263 
L 556.219392 138.700097 
L 558.451392 138.552472 
L 559.195392 138.748403 
L 559.939392 138.770906 
L 560.683392 138.915222 
L 562.171392 138.095597 
L 563.659392 138.292864 
L 565.147392 138.897434 
L 565.891392 139.072146 
L 566.635392 138.939541 
L 568.123392 139.014104 
L 568.867392 139.523251 
L 569.611392 138.881572 
L 571.099392 139.222096 
L 571.843392 138.774355 
L 573.331392 138.920535 
L 574.075392 139.027074 
L 576.307392 138.824646 
L 577.051392 139.19504 
L 578.539392 139.096486 
L 579.283392 139.11766 
L 580.027392 139.360898 
L 580.771392 139.0112 
L 581.515392 139.30175 
L 582.259392 139.243201 
L 583.003392 138.862787 
L 583.747392 138.625962 
L 584.491392 138.639937 
L 585.235392 139.177724 
L 585.979392 138.683741 
L 586.723392 138.962718 
L 588.211392 138.774211 
L 588.955392 138.940307 
L 589.699392 138.871522 
L 590.443392 138.496447 
L 593.419392 139.270735 
L 594.163392 138.795238 
L 598.627392 138.851552 
L 600.115392 138.701648 
L 602.347392 139.234632 
L 603.091392 139.2831 
L 604.579392 139.034471 
L 605.323392 138.845901 
L 606.067392 139.0711 
L 606.811392 139.114363 
L 607.555392 139.593586 
L 609.043392 138.859716 
L 609.787392 138.925457 
L 610.531392 139.245189 
L 611.275392 138.896882 
L 612.763392 139.088176 
L 613.507392 138.968672 
L 614.251392 139.187994 
L 615.739392 138.865639 
L 616.483392 138.992655 
L 617.971392 138.878633 
L 618.715392 139.12463 
L 619.459392 138.344644 
L 620.203392 137.985436 
L 620.947392 138.503695 
L 621.691392 138.871215 
L 622.435392 138.592377 
L 623.179392 138.845173 
L 623.923392 139.229442 
L 624.667392 139.163085 
L 625.411392 138.927964 
L 626.155392 139.109204 
L 626.899392 139.09329 
L 627.643392 138.886481 
L 629.131392 138.944474 
L 629.875392 138.955862 
L 631.363392 138.758095 
L 632.107392 139.237704 
L 632.851392 138.834169 
L 633.595392 138.863917 
L 634.339392 138.770914 
L 635.083392 139.122741 
L 635.827392 138.946694 
L 636.571392 139.064533 
L 637.315392 139.004019 
L 638.059392 138.633752 
L 638.803392 139.075258 
L 639.547392 138.964286 
L 640.291392 139.133132 
L 641.035392 139.14896 
L 641.779392 138.785353 
L 642.523392 138.704404 
L 644.011392 138.04637 
L 644.755392 138.327713 
L 645.499392 138.812072 
L 646.243392 138.3164 
L 646.987392 138.804235 
L 647.731392 138.10022 
L 649.219392 138.344758 
L 650.412468 138.379227 
L 650.412468 138.379227 
" clip-path="url(#pca75099099)" style="fill: none; stroke: #ff2400; stroke-opacity: 0.75; stroke-width: 6; stroke-linecap: square"/>
   </g>
   <g id="patch_9">
    <path d="M 63.691392 256.59194 
L 63.691392 127.23194 
" style="fill: none; stroke: #000000; stroke-width: 0.8; stroke-linejoin: miter; stroke-linecap: square"/>
   </g>
  </g>
  <g id="axes_5">
   <g id="patch_10">
    <path d="M 63.691392 282.46394 
L 621.691392 282.46394 
L 621.691392 153.10394 
L 63.691392 153.10394 
L 63.691392 282.46394 
z
" style="fill: none"/>
   </g>
   <g id="matplotlib.axis_9">
    <g id="xtick_29">
     <g id="line2d_41">
      <defs>
       <path id="m59578476e7" d="M 0 0 
L 0 3.5 
" style="stroke: #000000; stroke-width: 0.8"/>
      </defs>
      <g>
       <use xlink:href="#m59578476e7" x="63.691392" y="282.46394" style="stroke: #000000; stroke-width: 0.8"/>
      </g>
     </g>
     <g id="text_6">
      <!-- $\mathdefault{0.00}$ -->
      <g transform="translate(43.170316 306.760194) scale(0.25 -0.25)">
       <defs>
        <path id="CMMI12-3a" d="M 1178 307 
C 1178 492 1024 619 870 619 
C 685 619 557 466 557 313 
C 557 128 710 0 864 0 
C 1050 0 1178 153 1178 307 
z
" transform="scale(0.015625)"/>
       </defs>
       <use xlink:href="#CMR17-30" transform="scale(0.996264)"/>
       <use xlink:href="#CMMI12-3a" transform="translate(45.690477 0) scale(0.996264)"/>
       <use xlink:href="#CMR17-30" transform="translate(72.787654 0) scale(0.996264)"/>
       <use xlink:href="#CMR17-30" transform="translate(118.478131 0) scale(0.996264)"/>
      </g>
     </g>
    </g>
    <g id="xtick_30">
     <g id="line2d_42">
      <g>
       <use xlink:href="#m59578476e7" x="156.691392" y="282.46394" style="stroke: #000000; stroke-width: 0.8"/>
      </g>
     </g>
     <g id="text_7">
      <!-- $\mathdefault{0.25}$ -->
      <g transform="translate(136.170316 306.760194) scale(0.25 -0.25)">
       <defs>
        <path id="CMR17-32" d="M 2669 989 
L 2554 989 
C 2490 536 2438 459 2413 420 
C 2381 369 1920 369 1830 369 
L 602 369 
C 832 619 1280 1072 1824 1597 
C 2214 1967 2669 2402 2669 3035 
C 2669 3790 2067 4224 1395 4224 
C 691 4224 262 3604 262 3030 
C 262 2780 448 2748 525 2748 
C 589 2748 781 2787 781 3010 
C 781 3207 614 3264 525 3264 
C 486 3264 448 3258 422 3245 
C 544 3790 915 4058 1306 4058 
C 1862 4058 2227 3617 2227 3035 
C 2227 2479 1901 2000 1536 1584 
L 262 146 
L 262 0 
L 2515 0 
L 2669 989 
z
" transform="scale(0.015625)"/>
        <path id="CMR17-35" d="M 730 3692 
C 794 3666 1056 3584 1325 3584 
C 1920 3584 2246 3911 2432 4100 
C 2432 4157 2432 4192 2394 4192 
C 2387 4192 2374 4192 2323 4163 
C 2099 4058 1837 3973 1517 3973 
C 1325 3973 1037 3999 723 4139 
C 653 4171 640 4171 634 4171 
C 602 4171 595 4164 595 4037 
L 595 2203 
C 595 2089 595 2057 659 2057 
C 691 2057 704 2070 736 2114 
C 941 2401 1222 2522 1542 2522 
C 1766 2522 2246 2382 2246 1289 
C 2246 1085 2246 715 2054 421 
C 1894 159 1645 25 1370 25 
C 947 25 518 320 403 814 
C 429 807 480 795 506 795 
C 589 795 749 840 749 1038 
C 749 1210 627 1280 506 1280 
C 358 1280 262 1190 262 1011 
C 262 454 704 -128 1382 -128 
C 2042 -128 2669 440 2669 1264 
C 2669 2030 2170 2624 1549 2624 
C 1222 2624 947 2503 730 2274 
L 730 3692 
z
" transform="scale(0.015625)"/>
       </defs>
       <use xlink:href="#CMR17-30" transform="scale(0.996264)"/>
       <use xlink:href="#CMMI12-3a" transform="translate(45.690477 0) scale(0.996264)"/>
       <use xlink:href="#CMR17-32" transform="translate(72.787654 0) scale(0.996264)"/>
       <use xlink:href="#CMR17-35" transform="translate(118.478131 0) scale(0.996264)"/>
      </g>
     </g>
    </g>
    <g id="xtick_31">
     <g id="line2d_43">
      <g>
       <use xlink:href="#m59578476e7" x="249.691392" y="282.46394" style="stroke: #000000; stroke-width: 0.8"/>
      </g>
     </g>
     <g id="text_8">
      <!-- $\mathdefault{0.50}$ -->
      <g transform="translate(229.170316 306.760194) scale(0.25 -0.25)">
       <use xlink:href="#CMR17-30" transform="scale(0.996264)"/>
       <use xlink:href="#CMMI12-3a" transform="translate(45.690477 0) scale(0.996264)"/>
       <use xlink:href="#CMR17-35" transform="translate(72.787654 0) scale(0.996264)"/>
       <use xlink:href="#CMR17-30" transform="translate(118.478131 0) scale(0.996264)"/>
      </g>
     </g>
    </g>
    <g id="xtick_32">
     <g id="line2d_44">
      <g>
       <use xlink:href="#m59578476e7" x="342.691392" y="282.46394" style="stroke: #000000; stroke-width: 0.8"/>
      </g>
     </g>
     <g id="text_9">
      <!-- $\mathdefault{0.75}$ -->
      <g transform="translate(322.170316 306.760194) scale(0.25 -0.25)">
       <defs>
        <path id="CMR17-37" d="M 2886 3941 
L 2886 4081 
L 1382 4081 
C 634 4081 621 4165 595 4288 
L 480 4288 
L 294 3094 
L 410 3094 
C 429 3215 474 3540 550 3661 
C 589 3712 1062 3712 1171 3712 
L 2579 3712 
L 1869 2661 
C 1395 1954 1069 999 1069 165 
C 1069 89 1069 -128 1299 -128 
C 1530 -128 1530 89 1530 171 
L 1530 465 
C 1530 1508 1709 2196 2003 2636 
L 2886 3941 
z
" transform="scale(0.015625)"/>
       </defs>
       <use xlink:href="#CMR17-30" transform="scale(0.996264)"/>
       <use xlink:href="#CMMI12-3a" transform="translate(45.690477 0) scale(0.996264)"/>
       <use xlink:href="#CMR17-37" transform="translate(72.787654 0) scale(0.996264)"/>
       <use xlink:href="#CMR17-35" transform="translate(118.478131 0) scale(0.996264)"/>
      </g>
     </g>
    </g>
    <g id="xtick_33">
     <g id="line2d_45">
      <g>
       <use xlink:href="#m59578476e7" x="435.691392" y="282.46394" style="stroke: #000000; stroke-width: 0.8"/>
      </g>
     </g>
     <g id="text_10">
      <!-- $\mathdefault{1.00}$ -->
      <g transform="translate(415.170316 306.760194) scale(0.25 -0.25)">
       <use xlink:href="#CMR17-31" transform="scale(0.996264)"/>
       <use xlink:href="#CMMI12-3a" transform="translate(45.690477 0) scale(0.996264)"/>
       <use xlink:href="#CMR17-30" transform="translate(72.787654 0) scale(0.996264)"/>
       <use xlink:href="#CMR17-30" transform="translate(118.478131 0) scale(0.996264)"/>
      </g>
     </g>
    </g>
    <g id="xtick_34">
     <g id="line2d_46">
      <g>
       <use xlink:href="#m59578476e7" x="528.691392" y="282.46394" style="stroke: #000000; stroke-width: 0.8"/>
      </g>
     </g>
     <g id="text_11">
      <!-- $\mathdefault{1.25}$ -->
      <g transform="translate(508.170316 306.760194) scale(0.25 -0.25)">
       <use xlink:href="#CMR17-31" transform="scale(0.996264)"/>
       <use xlink:href="#CMMI12-3a" transform="translate(45.690477 0) scale(0.996264)"/>
       <use xlink:href="#CMR17-32" transform="translate(72.787654 0) scale(0.996264)"/>
       <use xlink:href="#CMR17-35" transform="translate(118.478131 0) scale(0.996264)"/>
      </g>
     </g>
    </g>
    <g id="xtick_35">
     <g id="line2d_47">
      <g>
       <use xlink:href="#m59578476e7" x="621.691392" y="282.46394" style="stroke: #000000; stroke-width: 0.8"/>
      </g>
     </g>
     <g id="text_12">
      <!-- $\mathdefault{1.50}$ -->
      <g transform="translate(601.170316 306.760194) scale(0.25 -0.25)">
       <use xlink:href="#CMR17-31" transform="scale(0.996264)"/>
       <use xlink:href="#CMMI12-3a" transform="translate(45.690477 0) scale(0.996264)"/>
       <use xlink:href="#CMR17-35" transform="translate(72.787654 0) scale(0.996264)"/>
       <use xlink:href="#CMR17-30" transform="translate(118.478131 0) scale(0.996264)"/>
      </g>
     </g>
    </g>
    <g id="text_13">
     <!-- time $(1/J_0)$ -->
     <g transform="translate(285.122227 334.284678) scale(0.25 -0.25)">
      <defs>
       <path id="CMR17-6d" d="M 4326 1933 
C 4326 2252 4269 2790 3507 2790 
C 3072 2790 2771 2496 2656 2151 
L 2650 2151 
C 2573 2676 2195 2790 1837 2790 
C 1331 2790 1069 2400 973 2144 
L 966 2144 
L 966 2790 
L 211 2720 
L 211 2554 
C 589 2554 646 2515 646 2208 
L 646 428 
C 646 184 621 153 211 153 
L 211 -13 
C 365 0 646 0 813 0 
C 979 0 1267 0 1421 -13 
L 1421 153 
C 1011 153 986 178 986 428 
L 986 1658 
C 986 2247 1344 2688 1792 2688 
C 2266 2688 2317 2266 2317 1958 
L 2317 428 
C 2317 184 2291 153 1882 153 
L 1882 -13 
C 2035 0 2317 0 2483 0 
C 2650 0 2938 0 3091 -13 
L 3091 153 
C 2682 153 2656 178 2656 428 
L 2656 1658 
C 2656 2247 3014 2688 3462 2688 
C 3936 2688 3987 2266 3987 1958 
L 3987 428 
C 3987 184 3962 153 3552 153 
L 3552 -13 
C 3706 0 3987 0 4154 0 
C 4320 0 4608 0 4762 -13 
L 4762 153 
C 4352 153 4326 178 4326 428 
L 4326 1933 
z
" transform="scale(0.015625)"/>
       <path id="CMR17-28" d="M 1958 -1561 
C 1958 -1555 1958 -1542 1939 -1523 
C 1645 -1224 858 -407 858 1581 
C 858 3569 1632 4379 1946 4697 
C 1946 4704 1958 4717 1958 4736 
C 1958 4755 1939 4768 1914 4768 
C 1843 4768 1299 4296 986 3594 
C 666 2887 576 2199 576 1588 
C 576 1128 621 351 1005 -471 
C 1312 -1135 1837 -1600 1914 -1600 
C 1946 -1600 1958 -1587 1958 -1561 
z
" transform="scale(0.015625)"/>
       <path id="CMMI12-3d" d="M 2746 4562 
C 2746 4569 2784 4666 2784 4678 
C 2784 4755 2720 4800 2669 4800 
C 2637 4800 2579 4800 2528 4659 
L 384 -1363 
C 384 -1370 346 -1465 346 -1478 
C 346 -1555 410 -1600 461 -1600 
C 499 -1600 557 -1593 602 -1459 
L 2746 4562 
z
" transform="scale(0.015625)"/>
       <path id="CMMI12-4a" d="M 3418 3912 
C 3469 4103 3482 4167 3795 4167 
C 3898 4167 3962 4167 3962 4282 
C 3962 4352 3904 4352 3878 4352 
C 3770 4352 3648 4352 3533 4352 
L 3181 4352 
C 2912 4352 2630 4352 2362 4352 
C 2304 4352 2227 4352 2227 4237 
C 2227 4173 2278 4173 2278 4167 
L 2438 4167 
C 2950 4167 2950 4116 2950 4020 
C 2950 4013 2950 3969 2925 3868 
L 2189 960 
C 2022 312 1594 0 1286 0 
C 1069 0 762 100 685 431 
C 710 424 742 418 768 418 
C 979 418 1146 603 1146 788 
C 1146 890 1082 1024 890 1024 
C 774 1024 506 961 506 549 
C 506 151 838 -128 1299 -128 
C 1882 -128 2509 311 2662 915 
L 3418 3912 
z
" transform="scale(0.015625)"/>
       <path id="CMR17-29" d="M 1683 1581 
C 1683 2040 1638 2817 1254 3639 
C 947 4303 422 4768 346 4768 
C 326 4768 301 4761 301 4729 
C 301 4717 307 4710 314 4697 
C 621 4378 1402 3568 1402 1584 
C 1402 -407 627 -1217 314 -1537 
C 307 -1549 301 -1556 301 -1568 
C 301 -1600 326 -1600 346 -1600 
C 416 -1600 960 -1128 1274 -426 
C 1594 281 1683 969 1683 1581 
z
" transform="scale(0.015625)"/>
      </defs>
      <use xlink:href="#CMR17-74" transform="scale(0.996264)"/>
      <use xlink:href="#CMR17-69" transform="translate(35.280768 0) scale(0.996264)"/>
      <use xlink:href="#CMR17-6d" transform="translate(60.151826 0) scale(0.996264)"/>
      <use xlink:href="#CMR17-65" transform="translate(137.071416 0) scale(0.996264)"/>
      <use xlink:href="#CMR17-28" transform="translate(207.633043 0) scale(0.996264)"/>
      <use xlink:href="#CMR17-31" transform="translate(242.913811 0) scale(0.996264)"/>
      <use xlink:href="#CMMI12-3d" transform="translate(288.604288 0) scale(0.996264)"/>
      <use xlink:href="#CMMI12-4a" transform="translate(337.379207 0) scale(0.996264)"/>
      <use xlink:href="#CMR17-30" transform="translate(391.297162 -14.943915) scale(0.697382)"/>
      <use xlink:href="#CMR17-29" transform="translate(423.778476 0) scale(0.996264)"/>
     </g>
    </g>
   </g>
   <g id="matplotlib.axis_10">
    <g id="ytick_5">
     <g id="line2d_48">
      <defs>
       <path id="m7c4d1c35cc" d="M 0 0 
L -4 0 
" style="stroke: #ff0000; stroke-opacity: 0.9"/>
      </defs>
      <g>
       <use xlink:href="#m7c4d1c35cc" x="63.691392" y="271.68394" style="fill: #ff0000; fill-opacity: 0.9; stroke: #ff0000; stroke-opacity: 0.9"/>
      </g>
     </g>
     <g id="text_14">
      <!-- $-0.5$ -->
      <g style="fill: #ff0000; opacity: 0.9" transform="translate(7.2 280.332067) scale(0.25 -0.25)">
       <defs>
        <path id="CMSY10-0" d="M 4218 1472 
C 4326 1472 4442 1472 4442 1600 
C 4442 1728 4326 1728 4218 1728 
L 755 1728 
C 646 1728 531 1728 531 1600 
C 531 1472 646 1472 755 1472 
L 4218 1472 
z
" transform="scale(0.015625)"/>
       </defs>
       <use xlink:href="#CMSY10-0" transform="scale(0.996264)"/>
       <use xlink:href="#CMR17-30" transform="translate(77.487468 0) scale(0.996264)"/>
       <use xlink:href="#CMMI12-3a" transform="translate(123.177945 0) scale(0.996264)"/>
       <use xlink:href="#CMR17-35" transform="translate(150.275122 0) scale(0.996264)"/>
      </g>
     </g>
    </g>
    <g id="ytick_6">
     <g id="line2d_49">
      <g>
       <use xlink:href="#m7c4d1c35cc" x="63.691392" y="250.12394" style="fill: #ff0000; fill-opacity: 0.9; stroke: #ff0000; stroke-opacity: 0.9"/>
      </g>
     </g>
     <g id="text_15">
      <!-- $-0.4$ -->
      <g style="fill: #ff0000; opacity: 0.9" transform="translate(7.2 258.772067) scale(0.25 -0.25)">
       <defs>
        <path id="CMR17-34" d="M 2150 4122 
C 2150 4256 2144 4256 2029 4256 
L 128 1254 
L 128 1088 
L 1779 1088 
L 1779 457 
C 1779 224 1766 160 1318 160 
L 1197 160 
L 1197 0 
C 1402 0 1747 0 1965 0 
C 2182 0 2528 0 2733 0 
L 2733 160 
L 2611 160 
C 2163 160 2150 224 2150 457 
L 2150 1088 
L 2803 1088 
L 2803 1254 
L 2150 1254 
L 2150 4122 
z
M 1798 3703 
L 1798 1254 
L 256 1254 
L 1798 3703 
z
" transform="scale(0.015625)"/>
       </defs>
       <use xlink:href="#CMSY10-0" transform="scale(0.996264)"/>
       <use xlink:href="#CMR17-30" transform="translate(77.487468 0) scale(0.996264)"/>
       <use xlink:href="#CMMI12-3a" transform="translate(123.177945 0) scale(0.996264)"/>
       <use xlink:href="#CMR17-34" transform="translate(150.275122 0) scale(0.996264)"/>
      </g>
     </g>
    </g>
    <g id="ytick_7">
     <g id="line2d_50">
      <g>
       <use xlink:href="#m7c4d1c35cc" x="63.691392" y="228.56394" style="fill: #ff0000; fill-opacity: 0.9; stroke: #ff0000; stroke-opacity: 0.9"/>
      </g>
     </g>
     <g id="text_16">
      <!-- $-0.3$ -->
      <g style="fill: #ff0000; opacity: 0.9" transform="translate(7.2 237.212067) scale(0.25 -0.25)">
       <defs>
        <path id="CMR17-33" d="M 1414 2157 
C 1984 2157 2234 1662 2234 1090 
C 2234 320 1824 25 1453 25 
C 1114 25 563 194 390 693 
C 422 680 454 680 486 680 
C 640 680 755 782 755 948 
C 755 1133 614 1216 486 1216 
C 378 1216 211 1165 211 926 
C 211 335 787 -128 1466 -128 
C 2176 -128 2720 430 2720 1085 
C 2720 1707 2208 2157 1600 2227 
C 2086 2328 2554 2756 2554 3329 
C 2554 3820 2048 4179 1472 4179 
C 890 4179 378 3829 378 3329 
C 378 3110 544 3072 627 3072 
C 762 3072 877 3155 877 3321 
C 877 3486 762 3569 627 3569 
C 602 3569 570 3569 544 3557 
C 730 3959 1235 4032 1459 4032 
C 1683 4032 2106 3925 2106 3320 
C 2106 3143 2080 2828 1862 2550 
C 1670 2304 1453 2304 1242 2284 
C 1210 2284 1062 2269 1037 2269 
C 992 2263 966 2257 966 2208 
C 966 2163 973 2157 1101 2157 
L 1414 2157 
z
" transform="scale(0.015625)"/>
       </defs>
       <use xlink:href="#CMSY10-0" transform="scale(0.996264)"/>
       <use xlink:href="#CMR17-30" transform="translate(77.487468 0) scale(0.996264)"/>
       <use xlink:href="#CMMI12-3a" transform="translate(123.177945 0) scale(0.996264)"/>
       <use xlink:href="#CMR17-33" transform="translate(150.275122 0) scale(0.996264)"/>
      </g>
     </g>
    </g>
    <g id="ytick_8">
     <g id="line2d_51">
      <g>
       <use xlink:href="#m7c4d1c35cc" x="63.691392" y="207.00394" style="fill: #ff0000; fill-opacity: 0.9; stroke: #ff0000; stroke-opacity: 0.9"/>
      </g>
     </g>
     <g id="text_17">
      <!-- $-0.2$ -->
      <g style="fill: #ff0000; opacity: 0.9" transform="translate(7.2 215.652067) scale(0.25 -0.25)">
       <use xlink:href="#CMSY10-0" transform="scale(0.996264)"/>
       <use xlink:href="#CMR17-30" transform="translate(77.487468 0) scale(0.996264)"/>
       <use xlink:href="#CMMI12-3a" transform="translate(123.177945 0) scale(0.996264)"/>
       <use xlink:href="#CMR17-32" transform="translate(150.275122 0) scale(0.996264)"/>
      </g>
     </g>
    </g>
    <g id="ytick_9">
     <g id="line2d_52">
      <g>
       <use xlink:href="#m7c4d1c35cc" x="63.691392" y="185.44394" style="fill: #ff0000; fill-opacity: 0.9; stroke: #ff0000; stroke-opacity: 0.9"/>
      </g>
     </g>
     <g id="text_18">
      <!-- $-0.1$ -->
      <g style="fill: #ff0000; opacity: 0.9" transform="translate(7.2 194.092067) scale(0.25 -0.25)">
       <use xlink:href="#CMSY10-0" transform="scale(0.996264)"/>
       <use xlink:href="#CMR17-30" transform="translate(77.487468 0) scale(0.996264)"/>
       <use xlink:href="#CMMI12-3a" transform="translate(123.177945 0) scale(0.996264)"/>
       <use xlink:href="#CMR17-31" transform="translate(150.275122 0) scale(0.996264)"/>
      </g>
     </g>
    </g>
    <g id="ytick_10">
     <g id="line2d_53">
      <g>
       <use xlink:href="#m7c4d1c35cc" x="63.691392" y="163.88394" style="fill: #ff0000; fill-opacity: 0.9; stroke: #ff0000; stroke-opacity: 0.9"/>
      </g>
     </g>
     <g id="text_19">
      <!-- $0$ -->
      <g style="fill: #ff0000; opacity: 0.9" transform="translate(44.768773 172.532067) scale(0.25 -0.25)">
       <use xlink:href="#CMR17-30" transform="scale(0.996264)"/>
      </g>
     </g>
    </g>
   </g>
   <g id="line2d_54">
    <path d="M 63.691392 163.88394 
L 621.691392 163.88394 
" clip-path="url(#pe9820ed0ec)" style="fill: none; stroke-dasharray: 2.775,1.2; stroke-dashoffset: 0; stroke: #ff0000; stroke-width: 0.75"/>
   </g>
   <g id="line2d_55">
    <path d="M 63.691392 271.564282 
L 64.435392 271.980436 
L 65.179392 272.238856 
L 65.923392 271.365386 
L 66.667392 271.56734 
L 67.411392 271.413442 
L 68.155392 270.838122 
L 68.899392 271.297424 
L 69.643392 270.846418 
L 71.131392 269.241936 
L 73.363392 268.617354 
L 74.107392 267.35871 
L 74.851392 267.555841 
L 75.595392 266.2553 
L 76.339392 265.942356 
L 77.083392 264.786007 
L 77.827392 264.962214 
L 78.571392 263.601893 
L 79.315392 263.52134 
L 80.059392 261.954351 
L 80.803392 261.243282 
L 81.547392 260.952256 
L 83.779392 257.487718 
L 85.267392 255.146823 
L 86.011392 254.095995 
L 86.755392 253.788486 
L 87.499392 252.785703 
L 88.987392 249.757488 
L 89.731392 248.807158 
L 90.475392 247.395124 
L 91.219392 245.738042 
L 91.963392 245.02296 
L 92.707392 243.644485 
L 94.195392 240.373911 
L 94.939392 239.668599 
L 95.683392 237.623659 
L 96.427392 236.794807 
L 97.171392 235.316591 
L 97.915392 233.434979 
L 100.147392 229.559917 
L 102.379392 225.36029 
L 103.123392 223.552272 
L 103.867392 222.470189 
L 104.611392 220.915353 
L 105.355392 219.021559 
L 106.099392 218.045231 
L 106.843392 216.788515 
L 107.587392 214.894676 
L 109.075392 211.797629 
L 109.819392 210.562806 
L 110.563392 208.742234 
L 112.051392 206.423845 
L 112.795392 204.496763 
L 113.539392 203.559952 
L 114.283392 201.694174 
L 115.027392 200.415311 
L 115.771392 199.872965 
L 116.515392 198.055156 
L 117.259392 196.704036 
L 118.003392 194.916228 
L 119.491392 192.090698 
L 120.235392 191.292008 
L 120.979392 189.49855 
L 121.723392 188.48103 
L 122.467392 187.087944 
L 123.211392 185.963084 
L 124.699392 183.306132 
L 125.443392 182.185595 
L 126.187392 181.372598 
L 130.651392 175.129777 
L 131.395392 173.925046 
L 132.139392 173.463749 
L 133.627392 171.506098 
L 134.371392 171.028498 
L 135.115392 170.404404 
L 135.859392 170.123855 
L 136.603392 169.223414 
L 137.347392 168.621723 
L 138.091392 168.221214 
L 138.835392 167.432515 
L 140.323392 166.386919 
L 141.067392 166.208583 
L 142.555392 165.121068 
L 143.299392 165.416557 
L 144.043392 164.668407 
L 145.531392 164.395887 
L 146.275392 164.291303 
L 147.763392 163.805822 
L 148.507392 163.989482 
L 214.723392 162.810648 
L 252.667392 162.362254 
L 286.891392 162.177535 
L 320.371392 162.221532 
L 354.595392 162.49091 
L 393.283392 163.026657 
L 448.339392 164.042397 
L 513.067392 165.193454 
L 550.267392 165.625038 
L 583.003392 165.785663 
L 614.995392 165.721567 
L 648.475392 165.429712 
L 650.412468 165.406486 
L 650.412468 165.406486 
" clip-path="url(#pe9820ed0ec)" style="fill: none; stroke: #ff0000; stroke-opacity: 0.75; stroke-width: 6; stroke-linecap: square"/>
   </g>
   <g id="line2d_56">
    <path d="M 63.319392 271.68394 
L 65.179392 271.554632 
L 67.039392 271.167328 
L 68.899392 270.523885 
L 70.759392 269.627393 
L 72.619392 268.482151 
L 74.479392 267.093655 
L 76.711392 265.115826 
L 78.943392 262.811026 
L 81.175392 260.195179 
L 83.779392 256.774448 
L 86.383392 252.987183 
L 89.359392 248.255877 
L 92.707392 242.48912 
L 96.427392 235.635675 
L 101.263392 226.235095 
L 115.771392 197.643403 
L 119.491392 190.930984 
L 122.839392 185.326447 
L 125.815392 180.765315 
L 128.419392 177.14531 
L 131.023392 173.907333 
L 133.255392 171.459165 
L 135.487392 169.331009 
L 137.719392 167.537568 
L 139.579392 166.307726 
L 141.439392 165.324872 
L 143.299392 164.593721 
L 145.159392 164.117781 
L 147.019392 163.899335 
L 148.879392 163.939432 
L 150.739392 164.237879 
L 152.599392 164.793245 
L 154.459392 165.602864 
L 156.319392 166.662852 
L 158.179392 167.968123 
L 160.039392 169.512415 
L 162.271392 171.67056 
L 164.503392 174.147257 
L 167.107392 177.416409 
L 169.711392 181.065042 
L 172.687392 185.655426 
L 176.035392 191.28803 
L 179.755392 198.025113 
L 184.219392 206.597674 
L 192.403392 222.93881 
L 198.355392 234.610428 
L 202.447392 242.190043 
L 205.795392 247.978161 
L 208.771392 252.732087 
L 211.747392 257.057011 
L 214.351392 260.447524 
L 216.583392 263.035571 
L 218.815392 265.311019 
L 221.047392 267.258149 
L 222.907392 268.620184 
L 224.767392 269.738303 
L 226.627392 270.607141 
L 228.487392 271.222529 
L 230.347392 271.581514 
L 232.207392 271.682374 
L 234.067392 271.524625 
L 235.927392 271.109024 
L 237.787392 270.437565 
L 239.647392 269.51347 
L 241.507392 268.341172 
L 243.367392 266.926297 
L 245.599392 264.917882 
L 247.831392 262.583865 
L 250.063392 259.94037 
L 252.667392 256.489621 
L 255.271392 252.675014 
L 258.247392 247.916068 
L 261.595392 242.123217 
L 265.687392 234.539232 
L 270.895392 224.349155 
L 283.543392 199.351833 
L 287.635392 191.87522 
L 290.983392 186.197426 
L 293.959392 181.55978 
L 296.563392 177.86479 
L 299.167392 174.545065 
L 301.399392 172.022025 
L 303.631392 169.815109 
L 305.863392 167.939562 
L 307.723392 166.639155 
L 309.583392 165.584144 
L 311.443392 164.779592 
L 313.303392 164.229359 
L 315.163392 163.936085 
L 317.023392 163.901178 
L 318.883392 164.124804 
L 320.743392 164.605892 
L 322.603392 165.342131 
L 324.463392 166.329991 
L 326.323392 167.564731 
L 328.183392 169.040427 
L 330.415392 171.119275 
L 332.647392 173.520483 
L 334.879392 176.227464 
L 337.483392 179.747013 
L 340.087392 183.624132 
L 343.063392 188.446072 
L 346.411392 194.298102 
L 350.503392 201.936341 
L 355.711392 212.164916 
L 367.615392 235.706353 
L 371.707392 243.216598 
L 375.055392 248.930163 
L 378.031392 253.605366 
L 380.635392 257.33729 
L 383.239392 260.697389 
L 385.471392 263.257485 
L 387.703392 265.50345 
L 389.935392 267.419767 
L 391.795392 268.755263 
L 393.655392 269.846194 
L 395.515392 270.687327 
L 397.375392 271.274624 
L 399.235392 271.60527 
L 401.095392 271.677676 
L 402.955392 271.491495 
L 404.815392 271.047622 
L 406.675392 270.348185 
L 408.535392 269.396541 
L 410.395392 268.197255 
L 412.255392 266.756082 
L 414.487392 264.717199 
L 416.719392 262.354101 
L 418.951392 259.683111 
L 421.555392 256.202543 
L 424.159392 252.360817 
L 427.135392 247.574508 
L 430.483392 241.7559 
L 434.575392 234.148215 
L 439.783392 223.941136 
L 452.059392 199.667903 
L 456.151392 192.17033 
L 459.499392 186.470271 
L 462.475392 181.809265 
L 465.079392 178.091311 
L 467.683392 174.746493 
L 469.915392 172.200428 
L 472.147392 169.969254 
L 474.379392 168.068386 
L 476.239392 166.746189 
L 478.099392 165.668875 
L 479.959392 164.841614 
L 481.819392 164.268374 
L 483.679392 163.951906 
L 485.539392 163.893728 
L 487.399392 164.094121 
L 489.259392 164.552121 
L 491.119392 165.265531 
L 492.979392 166.23093 
L 494.839392 167.443683 
L 496.699392 168.897974 
L 498.931392 170.952046 
L 501.163392 173.329634 
L 503.395392 176.014313 
L 505.999392 179.509714 
L 508.603392 183.364917 
L 511.579392 188.164803 
L 514.927392 193.996163 
L 519.019392 201.615533 
L 524.227392 211.83089 
L 536.131392 235.389155 
L 540.223392 242.919889 
L 543.571392 248.655362 
L 546.547392 253.353633 
L 549.523392 257.615271 
L 552.127392 260.94476 
L 554.359392 263.476757 
L 556.591392 265.693108 
L 558.823392 267.578501 
L 560.683392 268.887379 
L 562.543392 269.95106 
L 564.403392 270.764438 
L 566.263392 271.323612 
L 568.123392 271.625897 
L 569.983392 271.669845 
L 571.843392 271.455244 
L 573.703392 270.983124 
L 575.563392 270.25575 
L 577.423392 269.276612 
L 579.283392 268.050408 
L 581.143392 266.583021 
L 583.375392 264.513789 
L 585.607392 262.121746 
L 587.839392 259.423417 
L 590.443392 255.913233 
L 593.047392 252.044611 
L 596.023392 247.231216 
L 599.371392 241.387189 
L 603.463392 233.756246 
L 608.671392 223.532759 
L 620.575392 199.984676 
L 622.063392 197.193602 
L 622.063392 197.193602 
" clip-path="url(#pe9820ed0ec)" style="fill: none; stroke-dasharray: 20,4; stroke-dashoffset: 0; stroke: #291f1e; stroke-opacity: 0.4; stroke-width: 4"/>
   </g>
   <g id="patch_11">
    <path d="M 63.691392 282.46394 
L 63.691392 153.10394 
" style="fill: none; stroke: #000000; stroke-width: 0.8; stroke-linejoin: miter; stroke-linecap: square"/>
   </g>
   <g id="patch_12">
    <path d="M 63.691392 282.46394 
L 621.691392 282.46394 
" style="fill: none; stroke: #000000; stroke-width: 0.8; stroke-linejoin: miter; stroke-linecap: square"/>
   </g>
  </g>
 </g>
 <defs>
  <clipPath id="p5f9432bc85">
   <rect x="63.691392" y="49.61594" width="558" height="129.36"/>
  </clipPath>
  <clipPath id="pb2568b5316">
   <rect x="63.691392" y="75.48794" width="558" height="129.36"/>
  </clipPath>
  <clipPath id="p63c8e71de5">
   <rect x="63.691392" y="101.35994" width="558" height="129.36"/>
  </clipPath>
  <clipPath id="pca75099099">
   <rect x="63.691392" y="127.23194" width="558" height="129.36"/>
  </clipPath>
  <clipPath id="pe9820ed0ec">
   <rect x="63.691392" y="153.10394" width="558" height="129.36"/>
  </clipPath>
 </defs>
</svg>
