<?xml version="1.0" encoding="utf-8" standalone="no"?>
<!DOCTYPE svg PUBLIC "-//W3C//DTD SVG 1.1//EN"
  "http://www.w3.org/Graphics/SVG/1.1/DTD/svg11.dtd">
<svg xmlns:xlink="http://www.w3.org/1999/xlink" width="648.912468pt" height="347.711328pt" viewBox="0 0 648.912468 347.711328" xmlns="http://www.w3.org/2000/svg" version="1.1">
 <metadata>
  <rdf:RDF xmlns:dc="http://purl.org/dc/elements/1.1/" xmlns:cc="http://creativecommons.org/ns#" xmlns:rdf="http://www.w3.org/1999/02/22-rdf-syntax-ns#">
   <cc:Work>
    <dc:type rdf:resource="http://purl.org/dc/dcmitype/StillImage"/>
    <dc:date>2025-07-11T16:36:09.326005</dc:date>
    <dc:format>image/svg+xml</dc:format>
    <dc:creator>
     <cc:Agent>
      <dc:title>Matplotlib v3.9.0, https://matplotlib.org/</dc:title>
     </cc:Agent>
    </dc:creator>
   </cc:Work>
  </rdf:RDF>
 </metadata>
 <defs>
  <style type="text/css">*{stroke-linejoin: round; stroke-linecap: butt}</style>
 </defs>
 <g id="figure_1">
  <g id="patch_1">
   <path d="M -0 347.711328 
L 648.912468 347.711328 
L 648.912468 0 
L -0 0 
z
" style="fill: #ffffff"/>
  </g>
  <g id="axes_1">
   <g id="patch_2">
    <path d="M 63.191392 160.49594 
L 621.191392 160.49594 
L 621.191392 49.61594 
L 63.191392 49.61594 
z
" style="fill: #ffffff"/>
   </g>
   <g id="matplotlib.axis_1">
    <g id="xtick_1">
     <g id="line2d_1"/>
    </g>
    <g id="xtick_2">
     <g id="line2d_2"/>
    </g>
    <g id="xtick_3">
     <g id="line2d_3"/>
    </g>
    <g id="xtick_4">
     <g id="line2d_4"/>
    </g>
    <g id="xtick_5">
     <g id="line2d_5"/>
    </g>
    <g id="xtick_6">
     <g id="line2d_6"/>
    </g>
    <g id="xtick_7">
     <g id="line2d_7"/>
    </g>
   </g>
   <g id="matplotlib.axis_2">
    <g id="ytick_1">
     <g id="line2d_8">
      <defs>
       <path id="m080c809ba1" d="M 0 0 
L -3.5 0 
" style="stroke: #000000; stroke-width: 0.8"/>
      </defs>
      <g>
       <use xlink:href="#m080c809ba1" x="63.191392" y="151.25594" style="stroke: #000000; stroke-width: 0.8"/>
      </g>
     </g>
     <g id="text_1">
      <!-- $-0.5$ -->
      <g transform="translate(7.2 159.904067) scale(0.25 -0.25)">
       <defs>
        <path id="CMSY10-0" d="M 4218 1472 
C 4326 1472 4442 1472 4442 1600 
C 4442 1728 4326 1728 4218 1728 
L 755 1728 
C 646 1728 531 1728 531 1600 
C 531 1472 646 1472 755 1472 
L 4218 1472 
z
" transform="scale(0.015625)"/>
        <path id="CMR17-30" d="M 2688 2025 
C 2688 2416 2682 3080 2413 3591 
C 2176 4039 1798 4198 1466 4198 
C 1158 4198 768 4058 525 3597 
C 269 3118 243 2524 243 2025 
C 243 1661 250 1106 448 619 
C 723 -39 1216 -128 1466 -128 
C 1760 -128 2208 -7 2470 600 
C 2662 1042 2688 1559 2688 2025 
z
M 1466 -26 
C 1056 -26 813 325 723 812 
C 653 1188 653 1738 653 2096 
C 653 2588 653 2997 736 3387 
C 858 3929 1216 4096 1466 4096 
C 1728 4096 2067 3923 2189 3400 
C 2272 3036 2278 2607 2278 2096 
C 2278 1680 2278 1169 2202 792 
C 2067 95 1690 -26 1466 -26 
z
" transform="scale(0.015625)"/>
        <path id="CMMI12-3a" d="M 1178 307 
C 1178 492 1024 619 870 619 
C 685 619 557 466 557 313 
C 557 128 710 0 864 0 
C 1050 0 1178 153 1178 307 
z
" transform="scale(0.015625)"/>
        <path id="CMR17-35" d="M 730 3692 
C 794 3666 1056 3584 1325 3584 
C 1920 3584 2246 3911 2432 4100 
C 2432 4157 2432 4192 2394 4192 
C 2387 4192 2374 4192 2323 4163 
C 2099 4058 1837 3973 1517 3973 
C 1325 3973 1037 3999 723 4139 
C 653 4171 640 4171 634 4171 
C 602 4171 595 4164 595 4037 
L 595 2203 
C 595 2089 595 2057 659 2057 
C 691 2057 704 2070 736 2114 
C 941 2401 1222 2522 1542 2522 
C 1766 2522 2246 2382 2246 1289 
C 2246 1085 2246 715 2054 421 
C 1894 159 1645 25 1370 25 
C 947 25 518 320 403 814 
C 429 807 480 795 506 795 
C 589 795 749 840 749 1038 
C 749 1210 627 1280 506 1280 
C 358 1280 262 1190 262 1011 
C 262 454 704 -128 1382 -128 
C 2042 -128 2669 440 2669 1264 
C 2669 2030 2170 2624 1549 2624 
C 1222 2624 947 2503 730 2274 
L 730 3692 
z
" transform="scale(0.015625)"/>
       </defs>
       <use xlink:href="#CMSY10-0" transform="scale(0.996264)"/>
       <use xlink:href="#CMR17-30" transform="translate(77.487468 0) scale(0.996264)"/>
       <use xlink:href="#CMMI12-3a" transform="translate(123.177945 0) scale(0.996264)"/>
       <use xlink:href="#CMR17-35" transform="translate(150.275122 0) scale(0.996264)"/>
      </g>
     </g>
    </g>
    <g id="ytick_2">
     <g id="line2d_9">
      <g>
       <use xlink:href="#m080c809ba1" x="63.191392" y="132.77594" style="stroke: #000000; stroke-width: 0.8"/>
      </g>
     </g>
    </g>
    <g id="ytick_3">
     <g id="line2d_10">
      <g>
       <use xlink:href="#m080c809ba1" x="63.191392" y="114.29594" style="stroke: #000000; stroke-width: 0.8"/>
      </g>
     </g>
    </g>
    <g id="ytick_4">
     <g id="line2d_11">
      <g>
       <use xlink:href="#m080c809ba1" x="63.191392" y="95.81594" style="stroke: #000000; stroke-width: 0.8"/>
      </g>
     </g>
    </g>
    <g id="ytick_5">
     <g id="line2d_12">
      <g>
       <use xlink:href="#m080c809ba1" x="63.191392" y="77.33594" style="stroke: #000000; stroke-width: 0.8"/>
      </g>
     </g>
    </g>
    <g id="ytick_6">
     <g id="line2d_13">
      <g>
       <use xlink:href="#m080c809ba1" x="63.191392" y="58.85594" style="stroke: #000000; stroke-width: 0.8"/>
      </g>
     </g>
     <g id="text_2">
      <!-- $0$ -->
      <g transform="translate(44.768773 67.504067) scale(0.25 -0.25)">
       <use xlink:href="#CMR17-30" transform="scale(0.996264)"/>
      </g>
     </g>
    </g>
   </g>
   <g id="line2d_14">
    <path d="M 63.191392 58.85594 
L 621.191392 58.85594 
" clip-path="url(#p5a6b1a33c5)" style="fill: none; stroke-dasharray: 2.775,1.2; stroke-dashoffset: 0; stroke: #8f2d56; stroke-width: 0.75"/>
   </g>
   <g id="line2d_15">
    <path d="M 63.191392 123.376557 
L 63.935392 122.750162 
L 64.679392 123.249634 
L 65.423392 123.331034 
L 66.167392 123.859812 
L 66.911392 123.287406 
L 67.655392 122.892126 
L 69.143392 122.705499 
L 69.887392 121.922333 
L 70.631392 121.70098 
L 71.375392 121.357564 
L 72.119392 120.758353 
L 72.863392 120.305498 
L 74.351392 118.076469 
L 75.095392 117.616946 
L 75.839392 117.864639 
L 76.583392 117.624201 
L 77.327392 117.199977 
L 78.071392 116.501182 
L 78.815392 115.08739 
L 79.559392 114.835677 
L 80.303392 114.346636 
L 81.791392 112.124866 
L 84.767392 109.332014 
L 85.511392 108.262033 
L 86.255392 107.512432 
L 86.999392 106.420557 
L 87.743392 106.047525 
L 88.487392 105.236845 
L 89.231392 103.577081 
L 89.975392 103.12553 
L 90.719392 101.991089 
L 91.463392 101.643402 
L 92.207392 100.122131 
L 92.951392 99.518621 
L 93.695392 99.116643 
L 94.439392 97.141502 
L 95.183392 96.694628 
L 95.927392 96.002324 
L 96.671392 94.012161 
L 97.415392 94.157688 
L 98.159392 92.763277 
L 98.903392 91.741233 
L 99.647392 91.420166 
L 100.391392 89.847665 
L 101.135392 89.49109 
L 101.879392 88.46437 
L 102.623392 87.948215 
L 103.367392 86.695584 
L 104.111392 86.203394 
L 104.855392 84.938236 
L 105.599392 84.590049 
L 106.343392 83.691541 
L 107.087392 83.372442 
L 108.575392 80.994322 
L 109.319392 80.815381 
L 110.063392 79.33132 
L 111.551392 79.051673 
L 112.295392 77.39217 
L 113.039392 77.345505 
L 113.783392 76.547539 
L 114.527392 75.565806 
L 115.271392 75.361988 
L 116.015392 74.958256 
L 117.503392 73.751614 
L 118.247392 73.480543 
L 118.991392 72.838853 
L 119.735392 71.993351 
L 120.479392 71.943009 
L 121.223392 71.614413 
L 121.967392 70.602323 
L 122.711392 70.324835 
L 123.455392 70.814187 
L 124.199392 70.016104 
L 124.943392 69.70304 
L 125.687392 68.955172 
L 126.431392 68.831816 
L 127.175392 67.382724 
L 127.919392 67.106797 
L 128.663392 67.278356 
L 129.407392 66.960176 
L 130.151392 66.884059 
L 130.895392 66.294095 
L 131.639392 65.938937 
L 132.383392 66.330051 
L 133.127392 65.783358 
L 133.871392 65.845539 
L 134.615392 64.863738 
L 135.359392 64.234761 
L 136.103392 64.905403 
L 136.847392 65.380527 
L 137.591392 64.18086 
L 138.335392 64.477769 
L 139.079392 63.787524 
L 139.823392 64.049421 
L 141.311392 63.949603 
L 142.799392 64.227433 
L 143.543392 63.365214 
L 144.287392 63.156949 
L 145.775392 63.007134 
L 146.519392 63.64358 
L 147.263392 62.600433 
L 148.007392 63.111105 
L 148.751392 62.440489 
L 149.495392 62.375313 
L 150.239392 61.992883 
L 150.983392 62.706639 
L 151.727392 62.00853 
L 152.471392 62.886497 
L 153.215392 61.86859 
L 153.959392 62.091238 
L 154.703392 61.416903 
L 155.447392 61.649801 
L 156.191392 61.628243 
L 156.935392 61.229292 
L 157.679392 62.155045 
L 158.423392 61.849392 
L 159.167392 62.217202 
L 159.911392 62.26711 
L 160.655392 62.538308 
L 161.399392 62.348438 
L 162.143392 61.599423 
L 162.887392 61.049403 
L 163.631392 61.387362 
L 164.375392 61.940919 
L 165.119392 60.489069 
L 165.863392 61.431332 
L 166.607392 61.719529 
L 167.351392 61.567525 
L 168.839392 61.619961 
L 169.583392 61.029177 
L 170.327392 61.071821 
L 171.071392 61.477243 
L 171.815392 60.534846 
L 172.559392 61.186185 
L 173.303392 61.341264 
L 174.047392 60.957768 
L 174.791392 60.331296 
L 175.535392 61.481522 
L 176.279392 60.706825 
L 177.023392 60.544232 
L 177.767392 60.515114 
L 178.511392 60.613282 
L 179.255392 60.356744 
L 179.999392 61.382052 
L 180.743392 61.121156 
L 181.487392 61.276786 
L 182.231392 61.811513 
L 182.975392 61.483231 
L 183.719392 61.344183 
L 184.463392 60.588423 
L 185.951392 61.481348 
L 186.695392 61.352674 
L 187.439392 61.47566 
L 188.183392 62.356737 
L 188.927392 61.675412 
L 190.415392 61.91266 
L 191.159392 61.640403 
L 191.903392 61.865538 
L 192.647392 61.661403 
L 194.135392 62.102559 
L 194.879392 61.796921 
L 195.623392 61.174724 
L 196.367392 61.5936 
L 197.855392 60.299521 
L 198.599392 60.918029 
L 199.343392 60.928062 
L 200.087392 61.146032 
L 200.831392 61.209252 
L 201.575392 61.061056 
L 202.319392 62.178033 
L 203.063392 61.327757 
L 203.807392 61.964934 
L 204.551392 60.672197 
L 205.295392 61.219933 
L 207.527392 62.040146 
L 208.271392 62.227829 
L 209.015392 61.495229 
L 209.759392 61.423697 
L 211.247392 61.752425 
L 211.991392 61.483403 
L 212.735392 62.078303 
L 213.479392 60.720144 
L 214.223392 60.804472 
L 214.967392 61.243247 
L 216.455392 60.677293 
L 217.199392 61.601429 
L 217.943392 61.055104 
L 218.687392 60.927977 
L 219.431392 60.497401 
L 220.175392 60.328917 
L 220.919392 61.202133 
L 221.663392 60.426769 
L 222.407392 60.822504 
L 223.151392 60.924629 
L 223.895392 61.238514 
L 224.639392 61.079593 
L 225.383392 60.377572 
L 226.127392 60.055292 
L 226.871392 61.15015 
L 227.615392 61.453331 
L 228.359392 61.392191 
L 229.103392 61.005168 
L 229.847392 61.526016 
L 230.591392 60.369407 
L 231.335392 60.236544 
L 232.079392 60.424466 
L 232.823392 60.455576 
L 233.567392 60.332275 
L 234.311392 60.428462 
L 235.055392 59.555818 
L 235.799392 61.437053 
L 236.543392 60.670889 
L 237.287392 62.182723 
L 238.031392 61.451593 
L 238.775392 61.324124 
L 239.519392 61.782949 
L 240.263392 60.729662 
L 241.007392 61.797445 
L 241.751392 61.52356 
L 242.495392 60.567106 
L 243.239392 61.234325 
L 243.983392 60.738634 
L 244.727392 60.615067 
L 245.471392 60.620798 
L 246.215392 60.841346 
L 246.959392 60.141046 
L 247.703392 59.694548 
L 248.447392 59.85504 
L 249.191392 59.896631 
L 249.935392 60.757686 
L 250.679392 60.99551 
L 251.423392 60.773194 
L 252.167392 61.770814 
L 252.911392 61.05991 
L 253.655392 61.103011 
L 254.399392 60.454347 
L 255.143392 61.399583 
L 255.887392 60.270234 
L 256.631392 59.386386 
L 257.375392 59.977518 
L 258.119392 59.278555 
L 258.863392 59.234162 
L 259.607392 60.422617 
L 260.351392 59.509255 
L 261.095392 60.127192 
L 261.839392 59.33773 
L 262.583392 59.23743 
L 263.327392 58.780122 
L 264.071392 58.131368 
L 264.815392 59.525674 
L 265.559392 59.05534 
L 266.303392 59.116147 
L 267.047392 59.950816 
L 267.791392 59.993557 
L 268.535392 59.115455 
L 269.279392 58.689443 
L 270.023392 59.198737 
L 270.767392 58.932953 
L 271.511392 60.427569 
L 272.255392 60.012004 
L 272.999392 59.844574 
L 273.743392 58.970482 
L 274.487392 59.266395 
L 275.975392 59.377186 
L 276.719392 58.542446 
L 277.463392 58.461487 
L 278.207392 59.612002 
L 278.951392 59.796527 
L 279.695392 59.718944 
L 280.439392 59.129259 
L 281.183392 59.757721 
L 281.927392 60.229852 
L 282.671392 60.196824 
L 283.415392 61.521218 
L 284.159392 59.976203 
L 284.903392 60.98547 
L 285.647392 60.747811 
L 286.391392 60.381548 
L 287.135392 60.259185 
L 287.879392 60.295833 
L 288.623392 59.413386 
L 289.367392 58.895873 
L 290.111392 59.102503 
L 290.855392 60.372809 
L 291.599392 60.127006 
L 292.343392 61.073693 
L 293.087392 59.978321 
L 293.831392 59.91941 
L 294.575392 59.373862 
L 295.319392 60.849484 
L 296.063392 59.345916 
L 296.807392 58.846848 
L 297.551392 59.336237 
L 298.295392 58.382102 
L 299.039392 59.540952 
L 299.783392 60.043861 
L 300.527392 59.40933 
L 301.271392 59.920043 
L 302.759392 59.872428 
L 303.503392 58.763159 
L 304.991392 58.583255 
L 305.735392 57.595148 
L 306.479392 58.76477 
L 307.223392 59.159612 
L 307.967392 60.382983 
L 309.455392 59.979156 
L 310.199392 59.213681 
L 310.943392 59.670061 
L 311.687392 59.245234 
L 312.431392 58.991356 
L 313.175392 58.936204 
L 313.919392 58.385908 
L 314.663392 58.575059 
L 315.407392 59.91049 
L 316.151392 58.801549 
L 316.895392 59.931252 
L 317.639392 60.495667 
L 318.383392 61.511169 
L 319.127392 59.651201 
L 319.871392 59.14041 
L 320.615392 58.205403 
L 321.359392 58.812878 
L 322.103392 60.196257 
L 322.847392 59.87641 
L 323.591392 60.157115 
L 324.335392 59.85778 
L 325.079392 58.997436 
L 325.823392 60.780459 
L 326.567392 60.025162 
L 327.311392 60.693542 
L 328.055392 61.123132 
L 328.799392 60.256558 
L 329.543392 59.91269 
L 330.287392 60.311252 
L 331.031392 59.75101 
L 331.775392 59.519554 
L 333.263392 59.807617 
L 334.007392 61.711068 
L 334.751392 60.06968 
L 335.495392 60.281833 
L 336.239392 60.206531 
L 336.983392 59.238486 
L 337.727392 60.581598 
L 338.471392 60.43356 
L 339.215392 60.025896 
L 339.959392 60.947389 
L 340.703392 60.299801 
L 341.447392 60.580175 
L 342.191392 60.662735 
L 342.935392 60.896868 
L 343.679392 60.190069 
L 344.423392 60.89977 
L 345.911392 60.744585 
L 346.655392 60.31002 
L 347.399392 62.178036 
L 348.143392 60.814946 
L 348.887392 61.710446 
L 349.631392 60.250964 
L 350.375392 60.318753 
L 351.119392 59.441162 
L 351.863392 62.200797 
L 352.607392 63.114559 
L 353.351392 60.548551 
L 354.095392 59.621587 
L 354.839392 60.688209 
L 355.583392 60.837192 
L 356.327392 60.270104 
L 357.071392 62.500503 
L 357.815392 60.100473 
L 358.559392 59.484347 
L 359.303392 59.591549 
L 360.047392 60.039879 
L 360.791392 59.948909 
L 361.535392 60.776089 
L 362.279392 60.184927 
L 363.023392 60.638021 
L 363.767392 60.927624 
L 364.511392 59.805043 
L 365.255392 60.882409 
L 365.999392 60.796193 
L 366.743392 58.959098 
L 367.487392 59.837236 
L 368.231392 59.295013 
L 368.975392 59.581437 
L 369.719392 59.378466 
L 370.463392 60.971972 
L 371.207392 61.073822 
L 371.951392 62.127892 
L 372.695392 61.362291 
L 373.439392 61.349821 
L 374.183392 61.109318 
L 374.927392 61.412413 
L 376.415392 59.760584 
L 377.159392 61.669975 
L 377.903392 61.325641 
L 378.647392 60.293492 
L 379.391392 61.117015 
L 380.135392 59.297822 
L 380.879392 58.90833 
L 381.623392 59.899278 
L 382.367392 60.616609 
L 383.111392 61.048362 
L 383.855392 59.416896 
L 384.599392 60.717895 
L 385.343392 61.605178 
L 386.087392 61.976932 
L 386.831392 59.203402 
L 387.575392 60.547585 
L 388.319392 59.746812 
L 389.063392 62.059986 
L 389.807392 60.967957 
L 390.551392 61.318055 
L 391.295392 61.929964 
L 392.039392 61.898849 
L 392.783392 61.396275 
L 393.527392 60.253614 
L 394.271392 59.911812 
L 395.015392 59.317944 
L 395.759392 61.621033 
L 396.503392 62.935681 
L 397.247392 59.632059 
L 397.991392 61.885696 
L 398.735392 61.363208 
L 399.479392 62.389954 
L 400.223392 62.365534 
L 400.967392 61.441339 
L 401.711392 61.174149 
L 402.455392 60.146431 
L 403.199392 60.178841 
L 403.943392 63.090583 
L 404.687392 60.557729 
L 405.431392 60.035158 
L 406.175392 61.422281 
L 406.919392 62.007073 
L 407.663392 62.104878 
L 408.407392 60.936685 
L 409.895392 59.335132 
L 410.639392 60.899408 
L 411.383392 61.254425 
L 412.127392 61.234974 
L 413.615392 61.471454 
L 414.359392 61.16895 
L 415.847392 61.087702 
L 416.591392 61.181644 
L 417.335392 62.335401 
L 418.079392 60.771752 
L 418.823392 60.005427 
L 419.567392 59.400686 
L 420.311392 58.62222 
L 421.055392 62.525211 
L 421.799392 62.909748 
L 422.543392 61.851068 
L 423.287392 61.333481 
L 424.031392 59.576651 
L 425.519392 62.327787 
L 427.007392 63.118045 
L 427.751392 61.011328 
L 428.495392 60.135174 
L 429.239392 59.959816 
L 429.983392 60.979864 
L 430.727392 58.268459 
L 431.471392 60.90454 
L 432.215392 57.804711 
L 432.959392 59.711108 
L 433.703392 60.665048 
L 434.447392 59.271292 
L 435.191392 60.766958 
L 435.935392 60.977393 
L 436.679392 59.450602 
L 438.167392 61.385934 
L 438.911392 59.072565 
L 439.655392 63.458735 
L 440.399392 60.783181 
L 441.143392 60.845293 
L 442.631392 59.589275 
L 443.375392 60.046992 
L 444.119392 59.899279 
L 444.863392 60.623659 
L 445.607392 56.910061 
L 446.351392 60.488017 
L 447.095392 60.070082 
L 447.839392 60.773854 
L 448.583392 61.065665 
L 449.327392 60.563813 
L 450.071392 57.848794 
L 450.815392 60.170553 
L 451.559392 58.541004 
L 452.303392 59.810248 
L 453.047392 58.708025 
L 453.791392 59.453182 
L 454.535392 58.563625 
L 455.279392 59.516495 
L 456.023392 58.49879 
L 456.767392 58.631626 
L 457.511392 59.767611 
L 458.255392 61.200046 
L 458.999392 60.608165 
L 459.743392 58.714361 
L 460.487392 58.064012 
L 461.231392 57.608415 
L 461.975392 58.414434 
L 464.207392 58.887664 
L 464.951392 57.951003 
L 465.695392 57.937947 
L 466.439392 57.710023 
L 467.183392 55.211963 
L 467.927392 56.422422 
L 468.671392 59.078626 
L 469.415392 56.869851 
L 470.159392 58.524401 
L 470.903392 57.949157 
L 471.647392 56.906223 
L 472.391392 57.612496 
L 473.135392 55.177371 
L 473.879392 58.208248 
L 474.623392 55.337447 
L 475.367392 55.535167 
L 476.111392 53.682236 
L 476.855392 52.559329 
L 477.599392 54.066159 
L 478.343392 55.187252 
L 479.087392 53.596379 
L 479.831392 57.242595 
L 480.575392 57.485546 
L 481.319392 54.299778 
L 482.063392 55.655289 
L 482.807392 56.011417 
L 483.551392 53.258547 
L 484.295392 54.858977 
L 485.039392 53.237082 
L 485.783392 55.131425 
L 486.527392 55.480851 
L 487.271392 56.270643 
L 488.015392 53.84581 
L 488.759392 51.834759 
L 489.503392 53.648372 
L 490.247392 52.153692 
L 490.991392 56.145658 
L 491.735392 54.959683 
L 492.479392 53.248551 
L 493.223392 54.905272 
L 493.967392 53.448893 
L 495.455392 53.914923 
L 496.199392 51.354754 
L 496.943392 52.676987 
L 497.687392 55.569472 
L 498.431392 56.647506 
L 499.175392 53.95688 
L 499.919392 55.103958 
L 500.663392 52.423471 
L 501.407392 54.703456 
L 502.151392 55.086896 
L 502.895392 55.159688 
L 503.639392 54.861283 
L 504.383392 53.265898 
L 505.127392 55.081821 
L 505.871392 55.021918 
L 506.615392 53.830696 
L 507.359392 54.490657 
L 508.103392 55.400877 
L 508.847392 55.496884 
L 509.591392 52.91574 
L 510.335392 54.832795 
L 511.079392 55.163005 
L 511.823392 54.839073 
L 512.567392 56.547139 
L 513.311392 53.978486 
L 514.055392 52.304938 
L 514.799392 54.060339 
L 515.543392 55.444905 
L 516.287392 53.640953 
L 517.031392 53.440972 
L 517.775392 53.806564 
L 519.263392 55.242441 
L 520.007392 54.288027 
L 520.751392 52.25526 
L 521.495392 53.432265 
L 522.239392 51.867204 
L 522.983392 53.15591 
L 523.727392 55.752454 
L 524.471392 55.652343 
L 525.215392 55.095228 
L 525.959392 54.396591 
L 526.703392 54.874376 
L 527.447392 54.731637 
L 528.191392 54.989314 
L 528.935392 55.454438 
L 529.679392 55.633639 
L 530.423392 56.659843 
L 531.167392 54.777559 
L 531.911392 52.555854 
L 532.655392 54.039562 
L 533.399392 53.20079 
L 534.887392 56.220902 
L 535.631392 51.954529 
L 536.375392 53.683642 
L 537.119392 52.703398 
L 537.863392 54.448258 
L 538.607392 52.446994 
L 539.351392 54.010404 
L 540.095392 53.059296 
L 540.839392 54.721897 
L 541.583392 53.526111 
L 542.327392 54.032549 
L 543.071392 54.236229 
L 543.815392 53.896941 
L 544.559392 52.424011 
L 545.303392 52.631684 
L 546.047392 53.673785 
L 546.791392 53.761171 
L 547.535392 52.883998 
L 548.279392 54.026929 
L 549.023392 55.516098 
L 549.767392 55.574802 
L 550.511392 56.99076 
L 551.255392 56.025906 
L 551.999392 54.824087 
L 552.743392 55.681722 
L 553.487392 54.087668 
L 554.231392 55.765391 
L 554.975392 53.506964 
L 555.719392 56.989942 
L 556.463392 54.642191 
L 557.207392 54.058575 
L 557.951392 54.98165 
L 558.695392 54.037036 
L 559.439392 55.906175 
L 560.183392 54.300219 
L 560.927392 57.023966 
L 561.671392 55.457108 
L 562.415392 53.560738 
L 563.159392 56.025663 
L 563.903392 54.336213 
L 564.647392 57.443418 
L 565.391392 56.857559 
L 566.135392 55.032905 
L 566.879392 55.007719 
L 567.623392 55.191195 
L 568.367392 54.069319 
L 569.111392 54.203011 
L 569.855392 56.013423 
L 570.599392 53.132027 
L 571.343392 53.689165 
L 572.087392 53.439429 
L 572.831392 55.12659 
L 573.575392 54.663398 
L 574.319392 54.758944 
L 575.063392 53.747686 
L 575.807392 53.326259 
L 576.551392 54.516268 
L 577.295392 54.005276 
L 578.039392 54.157061 
L 578.783392 53.857468 
L 579.527392 55.749726 
L 580.271392 54.906987 
L 581.015392 53.469739 
L 581.759392 52.628161 
L 582.503392 53.055261 
L 583.247392 55.577552 
L 583.991392 50.778569 
L 584.735392 53.865721 
L 585.479392 54.272157 
L 586.223392 56.620531 
L 586.967392 54.317758 
L 587.711392 55.569364 
L 588.455392 53.335901 
L 589.199392 55.12038 
L 589.943392 55.488278 
L 590.687392 53.454516 
L 591.431392 54.505698 
L 592.175392 53.637309 
L 592.919392 53.366915 
L 593.663392 54.179631 
L 594.407392 55.652679 
L 595.151392 54.604923 
L 595.895392 52.897114 
L 596.639392 54.563689 
L 597.383392 54.001148 
L 598.127392 51.842078 
L 598.871392 52.310835 
L 599.615392 54.491935 
L 600.359392 56.015044 
L 601.103392 54.913761 
L 601.847392 56.814372 
L 602.591392 55.851067 
L 603.335392 54.02608 
L 604.079392 53.828503 
L 604.823392 55.608264 
L 605.567392 54.074325 
L 606.311392 55.033332 
L 607.055392 53.78208 
L 607.799392 53.01071 
L 608.543392 55.88354 
L 609.287392 53.190026 
L 610.031392 53.357031 
L 610.775392 54.834573 
L 611.519392 55.275192 
L 612.263392 55.514188 
L 613.007392 55.292183 
L 613.751392 52.860836 
L 614.495392 54.556048 
L 615.239392 54.333767 
L 615.983392 54.939449 
L 616.727392 54.662049 
L 617.471392 55.131415 
L 618.215392 57.601488 
L 618.959392 56.824402 
L 619.703392 55.240801 
L 620.447392 54.240037 
L 621.191392 57.039063 
L 621.935392 57.29925 
L 622.679392 54.747034 
L 623.423392 56.777827 
L 624.167392 56.902381 
L 624.911392 54.265861 
L 625.655392 57.683403 
L 626.399392 55.041126 
L 627.143392 54.563193 
L 628.631392 56.62043 
L 629.375392 54.768348 
L 630.119392 58.101811 
L 631.607392 56.050671 
L 632.351392 55.456682 
L 633.095392 54.694097 
L 633.839392 55.727233 
L 634.583392 53.298668 
L 635.327392 57.266974 
L 636.071392 55.992168 
L 636.815392 54.477165 
L 637.559392 58.508934 
L 638.303392 56.179324 
L 639.047392 56.087882 
L 639.791392 56.482131 
L 640.535392 55.256358 
L 641.279392 54.474087 
L 642.023392 57.928806 
L 642.767392 55.007254 
L 643.511392 57.350486 
L 644.255392 55.441392 
L 644.999392 55.820937 
L 645.743392 56.477873 
L 646.487392 56.215636 
L 647.231392 55.56579 
L 647.975392 55.597404 
L 648.719392 56.125376 
L 649.463392 54.739577 
L 649.912468 55.182478 
L 649.912468 55.182478 
" clip-path="url(#p5a6b1a33c5)" style="fill: none; stroke: #8f2d56; stroke-opacity: 0.75; stroke-width: 6; stroke-linecap: square"/>
   </g>
   <g id="patch_3">
    <path d="M 63.191392 160.49594 
L 63.191392 49.61594 
" style="fill: none; stroke: #000000; stroke-width: 0.8; stroke-linejoin: miter; stroke-linecap: square"/>
   </g>
   <g id="text_3">
    <!-- correlation function $\left&lt; S_i S_{i+1} \right&gt;$ -->
    <g transform="translate(171.081566 29.61594) scale(0.3 -0.3)">
     <defs>
      <path id="CMR17-63" d="M 2234 2240 
C 2112 2240 1933 2240 1933 2017 
C 1933 1838 2080 1787 2163 1787 
C 2208 1787 2394 1807 2394 2024 
C 2394 2467 1958 2803 1466 2803 
C 787 2803 211 2178 211 1363 
C 211 516 813 -64 1466 -64 
C 2259 -64 2458 677 2458 748 
C 2458 774 2451 793 2406 793 
C 2362 793 2355 787 2330 703 
C 2163 180 1798 51 1523 51 
C 1114 51 621 427 621 1369 
C 621 2338 1094 2688 1472 2688 
C 1722 2688 2093 2573 2234 2240 
z
" transform="scale(0.015625)"/>
      <path id="CMR17-6f" d="M 2758 1356 
C 2758 2176 2163 2816 1466 2816 
C 768 2816 173 2176 173 1356 
C 173 551 768 -64 1466 -64 
C 2163 -64 2758 551 2758 1356 
z
M 1466 51 
C 1165 51 909 230 762 480 
C 602 767 582 1126 582 1408 
C 582 1677 595 2010 762 2298 
C 890 2509 1139 2714 1466 2714 
C 1754 2714 1997 2554 2150 2330 
C 2349 2029 2349 1607 2349 1408 
C 2349 1158 2336 775 2163 467 
C 1984 173 1709 51 1466 51 
z
" transform="scale(0.015625)"/>
      <path id="CMR17-72" d="M 960 1497 
C 960 2112 1222 2688 1702 2688 
C 1747 2688 1792 2682 1837 2662 
C 1837 2662 1696 2617 1696 2452 
C 1696 2298 1818 2234 1914 2234 
C 1990 2234 2131 2279 2131 2458 
C 2131 2663 1926 2790 1709 2790 
C 1222 2790 1011 2317 947 2093 
L 941 2093 
L 941 2790 
L 198 2720 
L 198 2554 
C 576 2554 634 2515 634 2208 
L 634 428 
C 634 184 608 153 198 153 
L 198 -13 
C 352 0 646 0 813 0 
C 998 0 1325 0 1498 -13 
L 1498 153 
C 1037 153 960 153 960 440 
L 960 1497 
z
" transform="scale(0.015625)"/>
      <path id="CMR17-65" d="M 2438 1472 
C 2464 1498 2464 1511 2464 1576 
C 2464 2238 2118 2816 1389 2816 
C 710 2816 173 2169 173 1383 
C 173 551 781 -64 1459 -64 
C 2176 -64 2458 607 2458 740 
C 2458 784 2419 784 2406 784 
C 2362 784 2355 771 2330 696 
C 2189 265 1837 51 1504 51 
C 1229 51 954 203 781 480 
C 582 803 582 1176 582 1472 
L 2438 1472 
z
M 589 1568 
C 634 2505 1126 2714 1382 2714 
C 1818 2714 2112 2297 2118 1568 
L 589 1568 
z
" transform="scale(0.015625)"/>
      <path id="CMR17-6c" d="M 979 4396 
L 218 4326 
L 218 4160 
C 595 4160 653 4122 653 3817 
L 653 426 
C 653 184 627 153 218 153 
L 218 -13 
C 371 0 653 0 813 0 
C 979 0 1261 0 1414 -13 
L 1414 153 
C 1005 153 979 178 979 426 
L 979 4396 
z
" transform="scale(0.015625)"/>
      <path id="CMR17-61" d="M 2304 1653 
C 2304 2072 2304 2294 2035 2543 
C 1798 2752 1523 2816 1306 2816 
C 800 2816 435 2407 435 1971 
C 435 1728 627 1728 666 1728 
C 749 1728 896 1778 896 1954 
C 896 2112 774 2181 666 2181 
C 640 2181 608 2174 589 2168 
C 723 2592 1069 2714 1293 2714 
C 1613 2714 1965 2429 1965 1885 
L 1965 1600 
C 1587 1600 1133 1549 774 1357 
C 371 1133 256 813 256 570 
C 256 77 832 -64 1171 -64 
C 1523 -64 1850 139 1990 511 
C 2003 233 2182 -18 2464 -18 
C 2598 -18 2938 70 2938 567 
L 2938 920 
L 2822 920 
L 2822 562 
C 2822 178 2650 128 2566 128 
C 2304 128 2304 458 2304 738 
L 2304 1653 
z
M 1965 870 
C 1965 317 1568 38 1216 38 
C 896 38 646 275 646 570 
C 646 761 730 1100 1101 1305 
C 1408 1478 1760 1504 1965 1504 
L 1965 870 
z
" transform="scale(0.015625)"/>
      <path id="CMR17-74" d="M 966 2560 
L 1862 2560 
L 1862 2725 
L 966 2725 
L 966 3904 
L 851 3904 
C 838 3245 614 2668 70 2668 
L 70 2560 
L 627 2560 
L 627 771 
C 627 650 627 -64 1370 -64 
C 1747 -64 1965 306 1965 777 
L 1965 1140 
L 1850 1140 
L 1850 783 
C 1850 344 1677 51 1408 51 
C 1222 51 966 178 966 758 
L 966 2560 
z
" transform="scale(0.015625)"/>
      <path id="CMR17-69" d="M 992 3909 
C 992 4049 877 4170 730 4170 
C 589 4170 467 4056 467 3909 
C 467 3769 582 3648 730 3648 
C 870 3648 992 3763 992 3909 
z
M 243 2706 
L 243 2541 
C 602 2541 653 2502 653 2197 
L 653 427 
C 653 184 627 153 218 153 
L 218 -13 
C 371 0 646 0 806 0 
C 960 0 1222 0 1370 -13 
L 1370 153 
C 992 153 979 191 979 420 
L 979 2776 
L 243 2706 
z
" transform="scale(0.015625)"/>
      <path id="CMR17-6e" d="M 2656 1933 
C 2656 2259 2592 2790 1837 2790 
C 1331 2790 1069 2400 973 2144 
L 966 2144 
L 966 2790 
L 211 2720 
L 211 2554 
C 589 2554 646 2515 646 2208 
L 646 428 
C 646 184 621 153 211 153 
L 211 -13 
C 365 0 646 0 813 0 
C 979 0 1267 0 1421 -13 
L 1421 153 
C 1011 153 986 178 986 428 
L 986 1658 
C 986 2247 1344 2688 1792 2688 
C 2266 2688 2317 2266 2317 1958 
L 2317 428 
C 2317 184 2291 153 1882 153 
L 1882 -13 
C 2035 0 2317 0 2483 0 
C 2650 0 2938 0 3091 -13 
L 3091 153 
C 2682 153 2656 178 2656 428 
L 2656 1933 
z
" transform="scale(0.015625)"/>
      <path id="CMR17-66" d="M 979 2560 
L 1709 2560 
L 1709 2725 
L 966 2725 
L 966 3494 
C 966 4022 1235 4352 1510 4352 
C 1594 4352 1690 4327 1754 4282 
C 1702 4269 1568 4225 1568 4067 
C 1568 3901 1696 3850 1786 3850 
C 1875 3850 2003 3901 2003 4067 
C 2003 4308 1773 4454 1517 4454 
C 1152 4454 653 4156 653 3481 
L 653 2725 
L 141 2725 
L 141 2560 
L 653 2560 
L 653 427 
C 653 184 627 153 218 153 
L 218 -13 
C 371 0 666 0 832 0 
C 1018 0 1344 0 1517 -13 
L 1517 153 
C 1056 153 979 153 979 439 
L 979 2560 
z
" transform="scale(0.015625)"/>
      <path id="CMR17-75" d="M 1882 2693 
L 1882 2528 
C 2259 2528 2317 2489 2317 2186 
L 2317 1032 
C 2317 500 2029 38 1555 38 
C 1030 38 986 348 986 678 
L 986 2763 
L 211 2693 
L 211 2528 
C 467 2528 640 2528 646 2274 
L 646 1058 
C 646 633 646 361 813 183 
C 896 101 1056 -64 1517 -64 
C 2061 -64 2272 377 2323 506 
L 2330 506 
L 2330 -63 
L 3091 -63 
L 3091 128 
C 2714 128 2656 166 2656 473 
L 2656 2763 
L 1882 2693 
z
" transform="scale(0.015625)"/>
      <path id="CMSY10-68" d="M 2099 4557 
C 2131 4627 2131 4640 2131 4672 
C 2131 4742 2074 4800 2003 4800 
C 1946 4800 1901 4768 1856 4653 
L 736 1715 
C 723 1677 704 1638 704 1600 
C 704 1581 704 1568 736 1491 
L 1856 -1446 
C 1882 -1517 1914 -1600 2003 -1600 
C 2074 -1600 2131 -1542 2131 -1472 
C 2131 -1453 2131 -1440 2099 -1370 
L 966 1600 
L 2099 4557 
z
" transform="scale(0.015625)"/>
      <path id="CMMI12-53" d="M 4064 4423 
C 4064 4480 4019 4480 4006 4480 
C 3981 4480 3974 4474 3898 4378 
C 3859 4333 3597 4001 3590 3995 
C 3379 4410 2957 4480 2688 4480 
C 1875 4480 1139 3743 1139 3025 
C 1139 2549 1427 2269 1741 2161 
C 1811 2135 2189 2033 2381 1989 
C 2707 1900 2790 1875 2925 1735 
C 2950 1703 3078 1557 3078 1258 
C 3078 667 2528 57 1888 57 
C 1363 57 781 280 781 991 
C 781 1112 806 1265 826 1328 
C 826 1348 832 1378 832 1391 
C 832 1417 819 1449 768 1449 
C 710 1449 704 1436 678 1328 
L 352 24 
C 352 18 326 -64 326 -71 
C 326 -128 378 -128 390 -128 
C 416 -128 422 -122 499 -26 
L 794 356 
C 947 126 1280 -128 1875 -128 
C 2701 -128 3456 666 3456 1460 
C 3456 1728 3392 1963 3149 2197 
C 3014 2331 2899 2363 2310 2516 
C 1882 2630 1824 2649 1709 2751 
C 1600 2858 1517 3011 1517 3227 
C 1517 3761 2061 4308 2669 4308 
C 3296 4308 3590 3926 3590 3323 
C 3590 3158 3558 2986 3558 2961 
C 3558 2903 3610 2903 3629 2903 
C 3686 2903 3693 2922 3718 3024 
L 4064 4423 
z
" transform="scale(0.015625)"/>
      <path id="CMMI12-69" d="M 1811 913 
C 1811 945 1786 971 1747 971 
C 1690 971 1683 952 1651 843 
C 1485 262 1222 64 1011 64 
C 934 64 845 83 845 275 
C 845 447 922 639 992 830 
L 1440 2018 
C 1459 2069 1504 2184 1504 2305 
C 1504 2574 1312 2816 998 2816 
C 410 2816 173 1890 173 1839 
C 173 1814 198 1782 243 1782 
C 301 1782 307 1807 333 1896 
C 486 2428 730 2682 979 2682 
C 1037 2682 1146 2682 1146 2478 
C 1146 2312 1062 2101 1011 1961 
L 563 773 
C 525 671 486 568 486 453 
C 486 166 685 -64 992 -64 
C 1581 -64 1811 869 1811 913 
z
M 1760 4013 
C 1760 4109 1683 4224 1542 4224 
C 1395 4224 1229 4083 1229 3917 
C 1229 3758 1363 3707 1440 3707 
C 1613 3707 1760 3873 1760 4013 
z
" transform="scale(0.015625)"/>
      <path id="CMR17-2b" d="M 2413 1472 
L 4109 1472 
C 4198 1472 4307 1472 4307 1580 
C 4307 1695 4205 1695 4109 1695 
L 2413 1695 
L 2413 3386 
C 2413 3475 2413 3584 2304 3584 
C 2189 3584 2189 3482 2189 3386 
L 2189 1695 
L 493 1695 
C 403 1695 294 1695 294 1587 
C 294 1472 397 1472 493 1472 
L 2189 1472 
L 2189 -218 
C 2189 -307 2189 -416 2298 -416 
C 2413 -416 2413 -314 2413 -218 
L 2413 1472 
z
" transform="scale(0.015625)"/>
      <path id="CMR17-31" d="M 1702 4058 
C 1702 4192 1696 4192 1606 4192 
C 1357 3916 979 3827 621 3827 
C 602 3827 570 3827 563 3808 
C 557 3795 557 3782 557 3648 
C 755 3648 1088 3686 1344 3839 
L 1344 461 
C 1344 236 1331 160 781 160 
L 589 160 
L 589 0 
C 896 0 1216 0 1523 0 
C 1830 0 2150 0 2458 0 
L 2458 160 
L 2266 160 
C 1715 160 1702 230 1702 458 
L 1702 4058 
z
" transform="scale(0.015625)"/>
      <path id="CMSY10-69" d="M 1747 1491 
C 1779 1568 1779 1581 1779 1600 
C 1779 1619 1779 1632 1747 1709 
L 627 4653 
C 589 4762 550 4800 480 4800 
C 410 4800 352 4742 352 4672 
C 352 4653 352 4640 384 4570 
L 1517 1600 
L 384 -1357 
C 352 -1427 352 -1440 352 -1472 
C 352 -1542 410 -1600 480 -1600 
C 563 -1600 589 -1536 614 -1472 
L 1747 1491 
z
" transform="scale(0.015625)"/>
     </defs>
     <use xlink:href="#CMR17-63" transform="scale(0.996264)"/>
     <use xlink:href="#CMR17-6f" transform="translate(40.48566 0) scale(0.996264)"/>
     <use xlink:href="#CMR17-72" transform="translate(86.176138 0) scale(0.996264)"/>
     <use xlink:href="#CMR17-72" transform="translate(121.456905 0) scale(0.996264)"/>
     <use xlink:href="#CMR17-65" transform="translate(156.737673 0) scale(0.996264)"/>
     <use xlink:href="#CMR17-6c" transform="translate(197.223334 0) scale(0.996264)"/>
     <use xlink:href="#CMR17-61" transform="translate(222.094392 0) scale(0.996264)"/>
     <use xlink:href="#CMR17-74" transform="translate(267.784869 0) scale(0.996264)"/>
     <use xlink:href="#CMR17-69" transform="translate(303.065637 0) scale(0.996264)"/>
     <use xlink:href="#CMR17-6f" transform="translate(327.936696 0) scale(0.996264)"/>
     <use xlink:href="#CMR17-6e" transform="translate(373.627173 0) scale(0.996264)"/>
     <use xlink:href="#CMR17-66" transform="translate(454.598509 0) scale(0.996264)"/>
     <use xlink:href="#CMR17-75" transform="translate(482.072021 0) scale(0.996264)"/>
     <use xlink:href="#CMR17-6e" transform="translate(532.967391 0) scale(0.996264)"/>
     <use xlink:href="#CMR17-63" transform="translate(583.862761 0) scale(0.996264)"/>
     <use xlink:href="#CMR17-74" transform="translate(624.348421 0) scale(0.996264)"/>
     <use xlink:href="#CMR17-69" transform="translate(659.629189 0) scale(0.996264)"/>
     <use xlink:href="#CMR17-6f" transform="translate(684.500247 0) scale(0.996264)"/>
     <use xlink:href="#CMR17-6e" transform="translate(730.190725 0) scale(0.996264)"/>
     <use xlink:href="#CMSY10-68" transform="translate(811.162061 0) scale(0.996264)"/>
     <use xlink:href="#CMMI12-53" transform="translate(849.905795 0) scale(0.996264)"/>
     <use xlink:href="#CMMI12-69" transform="translate(909.900282 -14.943915) scale(0.697382)"/>
     <use xlink:href="#CMMI12-53" transform="translate(933.693322 0) scale(0.996264)"/>
     <use xlink:href="#CMMI12-69" transform="translate(993.68781 -14.943915) scale(0.697382)"/>
     <use xlink:href="#CMR17-2b" transform="translate(1016.982717 -14.943915) scale(0.697382)"/>
     <use xlink:href="#CMR17-31" transform="translate(1067.182848 -14.943915) scale(0.697382)"/>
     <use xlink:href="#CMSY10-69" transform="translate(1099.664162 0) scale(0.996264)"/>
    </g>
   </g>
   <g id="legend_1">
    <g id="line2d_16">
     <path d="M 475.404721 80.86594 
L 500.404721 80.86594 
L 525.404721 80.86594 
" style="fill: none; stroke: #8f2d56; stroke-opacity: 0.75; stroke-width: 6; stroke-linecap: square"/>
    </g>
    <g id="text_4">
     <!-- $4 \times 4$ -->
     <g transform="translate(545.404721 89.61594) scale(0.25 -0.25)">
      <defs>
       <path id="CMR17-34" d="M 2150 4122 
C 2150 4256 2144 4256 2029 4256 
L 128 1254 
L 128 1088 
L 1779 1088 
L 1779 457 
C 1779 224 1766 160 1318 160 
L 1197 160 
L 1197 0 
C 1402 0 1747 0 1965 0 
C 2182 0 2528 0 2733 0 
L 2733 160 
L 2611 160 
C 2163 160 2150 224 2150 457 
L 2150 1088 
L 2803 1088 
L 2803 1254 
L 2150 1254 
L 2150 4122 
z
M 1798 3703 
L 1798 1254 
L 256 1254 
L 1798 3703 
z
" transform="scale(0.015625)"/>
       <path id="CMSY10-2" d="M 2490 1785 
L 1210 3059 
C 1133 3136 1120 3148 1069 3148 
C 1005 3148 941 3091 941 3020 
C 941 2976 954 2963 1024 2892 
L 2304 1606 
L 1024 320 
C 954 249 941 236 941 192 
C 941 121 1005 64 1069 64 
C 1120 64 1133 76 1210 153 
L 2483 1427 
L 3808 102 
C 3821 96 3866 64 3904 64 
C 3981 64 4032 121 4032 192 
C 4032 204 4032 230 4013 262 
C 4006 275 2989 1280 2669 1606 
L 3840 2777 
C 3872 2816 3968 2899 4000 2937 
C 4006 2950 4032 2976 4032 3020 
C 4032 3091 3981 3148 3904 3148 
C 3853 3148 3827 3123 3757 3052 
L 2490 1785 
z
" transform="scale(0.015625)"/>
      </defs>
      <use xlink:href="#CMR17-34" transform="scale(0.996264)"/>
      <use xlink:href="#CMSY10-2" transform="translate(67.829684 0) scale(0.996264)"/>
      <use xlink:href="#CMR17-34" transform="translate(167.456359 0) scale(0.996264)"/>
     </g>
    </g>
   </g>
  </g>
  <g id="axes_2">
   <g id="patch_4">
    <path d="M 63.191392 282.46394 
L 621.191392 282.46394 
L 621.191392 171.58394 
L 63.191392 171.58394 
z
" style="fill: #ffffff"/>
   </g>
   <g id="matplotlib.axis_3">
    <g id="xtick_8">
     <g id="line2d_17">
      <defs>
       <path id="mfefdb91178" d="M 0 0 
L 0 3.5 
" style="stroke: #000000; stroke-width: 0.8"/>
      </defs>
      <g>
       <use xlink:href="#mfefdb91178" x="63.191392" y="282.46394" style="stroke: #000000; stroke-width: 0.8"/>
      </g>
     </g>
     <g id="text_5">
      <!-- $\mathdefault{0.00}$ -->
      <g transform="translate(42.670316 306.760194) scale(0.25 -0.25)">
       <use xlink:href="#CMR17-30" transform="scale(0.996264)"/>
       <use xlink:href="#CMMI12-3a" transform="translate(45.690477 0) scale(0.996264)"/>
       <use xlink:href="#CMR17-30" transform="translate(72.787654 0) scale(0.996264)"/>
       <use xlink:href="#CMR17-30" transform="translate(118.478131 0) scale(0.996264)"/>
      </g>
     </g>
    </g>
    <g id="xtick_9">
     <g id="line2d_18">
      <g>
       <use xlink:href="#mfefdb91178" x="156.191392" y="282.46394" style="stroke: #000000; stroke-width: 0.8"/>
      </g>
     </g>
     <g id="text_6">
      <!-- $\mathdefault{0.25}$ -->
      <g transform="translate(135.670316 306.760194) scale(0.25 -0.25)">
       <defs>
        <path id="CMR17-32" d="M 2669 989 
L 2554 989 
C 2490 536 2438 459 2413 420 
C 2381 369 1920 369 1830 369 
L 602 369 
C 832 619 1280 1072 1824 1597 
C 2214 1967 2669 2402 2669 3035 
C 2669 3790 2067 4224 1395 4224 
C 691 4224 262 3604 262 3030 
C 262 2780 448 2748 525 2748 
C 589 2748 781 2787 781 3010 
C 781 3207 614 3264 525 3264 
C 486 3264 448 3258 422 3245 
C 544 3790 915 4058 1306 4058 
C 1862 4058 2227 3617 2227 3035 
C 2227 2479 1901 2000 1536 1584 
L 262 146 
L 262 0 
L 2515 0 
L 2669 989 
z
" transform="scale(0.015625)"/>
       </defs>
       <use xlink:href="#CMR17-30" transform="scale(0.996264)"/>
       <use xlink:href="#CMMI12-3a" transform="translate(45.690477 0) scale(0.996264)"/>
       <use xlink:href="#CMR17-32" transform="translate(72.787654 0) scale(0.996264)"/>
       <use xlink:href="#CMR17-35" transform="translate(118.478131 0) scale(0.996264)"/>
      </g>
     </g>
    </g>
    <g id="xtick_10">
     <g id="line2d_19">
      <g>
       <use xlink:href="#mfefdb91178" x="249.191392" y="282.46394" style="stroke: #000000; stroke-width: 0.8"/>
      </g>
     </g>
     <g id="text_7">
      <!-- $\mathdefault{0.50}$ -->
      <g transform="translate(228.670316 306.760194) scale(0.25 -0.25)">
       <use xlink:href="#CMR17-30" transform="scale(0.996264)"/>
       <use xlink:href="#CMMI12-3a" transform="translate(45.690477 0) scale(0.996264)"/>
       <use xlink:href="#CMR17-35" transform="translate(72.787654 0) scale(0.996264)"/>
       <use xlink:href="#CMR17-30" transform="translate(118.478131 0) scale(0.996264)"/>
      </g>
     </g>
    </g>
    <g id="xtick_11">
     <g id="line2d_20">
      <g>
       <use xlink:href="#mfefdb91178" x="342.191392" y="282.46394" style="stroke: #000000; stroke-width: 0.8"/>
      </g>
     </g>
     <g id="text_8">
      <!-- $\mathdefault{0.75}$ -->
      <g transform="translate(321.670316 306.760194) scale(0.25 -0.25)">
       <defs>
        <path id="CMR17-37" d="M 2886 3941 
L 2886 4081 
L 1382 4081 
C 634 4081 621 4165 595 4288 
L 480 4288 
L 294 3094 
L 410 3094 
C 429 3215 474 3540 550 3661 
C 589 3712 1062 3712 1171 3712 
L 2579 3712 
L 1869 2661 
C 1395 1954 1069 999 1069 165 
C 1069 89 1069 -128 1299 -128 
C 1530 -128 1530 89 1530 171 
L 1530 465 
C 1530 1508 1709 2196 2003 2636 
L 2886 3941 
z
" transform="scale(0.015625)"/>
       </defs>
       <use xlink:href="#CMR17-30" transform="scale(0.996264)"/>
       <use xlink:href="#CMMI12-3a" transform="translate(45.690477 0) scale(0.996264)"/>
       <use xlink:href="#CMR17-37" transform="translate(72.787654 0) scale(0.996264)"/>
       <use xlink:href="#CMR17-35" transform="translate(118.478131 0) scale(0.996264)"/>
      </g>
     </g>
    </g>
    <g id="xtick_12">
     <g id="line2d_21">
      <g>
       <use xlink:href="#mfefdb91178" x="435.191392" y="282.46394" style="stroke: #000000; stroke-width: 0.8"/>
      </g>
     </g>
     <g id="text_9">
      <!-- $\mathdefault{1.00}$ -->
      <g transform="translate(414.670316 306.760194) scale(0.25 -0.25)">
       <use xlink:href="#CMR17-31" transform="scale(0.996264)"/>
       <use xlink:href="#CMMI12-3a" transform="translate(45.690477 0) scale(0.996264)"/>
       <use xlink:href="#CMR17-30" transform="translate(72.787654 0) scale(0.996264)"/>
       <use xlink:href="#CMR17-30" transform="translate(118.478131 0) scale(0.996264)"/>
      </g>
     </g>
    </g>
    <g id="xtick_13">
     <g id="line2d_22">
      <g>
       <use xlink:href="#mfefdb91178" x="528.191392" y="282.46394" style="stroke: #000000; stroke-width: 0.8"/>
      </g>
     </g>
     <g id="text_10">
      <!-- $\mathdefault{1.25}$ -->
      <g transform="translate(507.670316 306.760194) scale(0.25 -0.25)">
       <use xlink:href="#CMR17-31" transform="scale(0.996264)"/>
       <use xlink:href="#CMMI12-3a" transform="translate(45.690477 0) scale(0.996264)"/>
       <use xlink:href="#CMR17-32" transform="translate(72.787654 0) scale(0.996264)"/>
       <use xlink:href="#CMR17-35" transform="translate(118.478131 0) scale(0.996264)"/>
      </g>
     </g>
    </g>
    <g id="xtick_14">
     <g id="line2d_23">
      <g>
       <use xlink:href="#mfefdb91178" x="621.191392" y="282.46394" style="stroke: #000000; stroke-width: 0.8"/>
      </g>
     </g>
     <g id="text_11">
      <!-- $\mathdefault{1.50}$ -->
      <g transform="translate(600.670316 306.760194) scale(0.25 -0.25)">
       <use xlink:href="#CMR17-31" transform="scale(0.996264)"/>
       <use xlink:href="#CMMI12-3a" transform="translate(45.690477 0) scale(0.996264)"/>
       <use xlink:href="#CMR17-35" transform="translate(72.787654 0) scale(0.996264)"/>
       <use xlink:href="#CMR17-30" transform="translate(118.478131 0) scale(0.996264)"/>
      </g>
     </g>
    </g>
    <g id="text_12">
     <!-- time $(1/J_0)$ -->
     <g transform="translate(284.622227 334.284678) scale(0.25 -0.25)">
      <defs>
       <path id="CMR17-6d" d="M 4326 1933 
C 4326 2252 4269 2790 3507 2790 
C 3072 2790 2771 2496 2656 2151 
L 2650 2151 
C 2573 2676 2195 2790 1837 2790 
C 1331 2790 1069 2400 973 2144 
L 966 2144 
L 966 2790 
L 211 2720 
L 211 2554 
C 589 2554 646 2515 646 2208 
L 646 428 
C 646 184 621 153 211 153 
L 211 -13 
C 365 0 646 0 813 0 
C 979 0 1267 0 1421 -13 
L 1421 153 
C 1011 153 986 178 986 428 
L 986 1658 
C 986 2247 1344 2688 1792 2688 
C 2266 2688 2317 2266 2317 1958 
L 2317 428 
C 2317 184 2291 153 1882 153 
L 1882 -13 
C 2035 0 2317 0 2483 0 
C 2650 0 2938 0 3091 -13 
L 3091 153 
C 2682 153 2656 178 2656 428 
L 2656 1658 
C 2656 2247 3014 2688 3462 2688 
C 3936 2688 3987 2266 3987 1958 
L 3987 428 
C 3987 184 3962 153 3552 153 
L 3552 -13 
C 3706 0 3987 0 4154 0 
C 4320 0 4608 0 4762 -13 
L 4762 153 
C 4352 153 4326 178 4326 428 
L 4326 1933 
z
" transform="scale(0.015625)"/>
       <path id="CMR17-28" d="M 1958 -1561 
C 1958 -1555 1958 -1542 1939 -1523 
C 1645 -1224 858 -407 858 1581 
C 858 3569 1632 4379 1946 4697 
C 1946 4704 1958 4717 1958 4736 
C 1958 4755 1939 4768 1914 4768 
C 1843 4768 1299 4296 986 3594 
C 666 2887 576 2199 576 1588 
C 576 1128 621 351 1005 -471 
C 1312 -1135 1837 -1600 1914 -1600 
C 1946 -1600 1958 -1587 1958 -1561 
z
" transform="scale(0.015625)"/>
       <path id="CMMI12-3d" d="M 2746 4562 
C 2746 4569 2784 4666 2784 4678 
C 2784 4755 2720 4800 2669 4800 
C 2637 4800 2579 4800 2528 4659 
L 384 -1363 
C 384 -1370 346 -1465 346 -1478 
C 346 -1555 410 -1600 461 -1600 
C 499 -1600 557 -1593 602 -1459 
L 2746 4562 
z
" transform="scale(0.015625)"/>
       <path id="CMMI12-4a" d="M 3418 3912 
C 3469 4103 3482 4167 3795 4167 
C 3898 4167 3962 4167 3962 4282 
C 3962 4352 3904 4352 3878 4352 
C 3770 4352 3648 4352 3533 4352 
L 3181 4352 
C 2912 4352 2630 4352 2362 4352 
C 2304 4352 2227 4352 2227 4237 
C 2227 4173 2278 4173 2278 4167 
L 2438 4167 
C 2950 4167 2950 4116 2950 4020 
C 2950 4013 2950 3969 2925 3868 
L 2189 960 
C 2022 312 1594 0 1286 0 
C 1069 0 762 100 685 431 
C 710 424 742 418 768 418 
C 979 418 1146 603 1146 788 
C 1146 890 1082 1024 890 1024 
C 774 1024 506 961 506 549 
C 506 151 838 -128 1299 -128 
C 1882 -128 2509 311 2662 915 
L 3418 3912 
z
" transform="scale(0.015625)"/>
       <path id="CMR17-29" d="M 1683 1581 
C 1683 2040 1638 2817 1254 3639 
C 947 4303 422 4768 346 4768 
C 326 4768 301 4761 301 4729 
C 301 4717 307 4710 314 4697 
C 621 4378 1402 3568 1402 1584 
C 1402 -407 627 -1217 314 -1537 
C 307 -1549 301 -1556 301 -1568 
C 301 -1600 326 -1600 346 -1600 
C 416 -1600 960 -1128 1274 -426 
C 1594 281 1683 969 1683 1581 
z
" transform="scale(0.015625)"/>
      </defs>
      <use xlink:href="#CMR17-74" transform="scale(0.996264)"/>
      <use xlink:href="#CMR17-69" transform="translate(35.280768 0) scale(0.996264)"/>
      <use xlink:href="#CMR17-6d" transform="translate(60.151826 0) scale(0.996264)"/>
      <use xlink:href="#CMR17-65" transform="translate(137.071416 0) scale(0.996264)"/>
      <use xlink:href="#CMR17-28" transform="translate(207.633043 0) scale(0.996264)"/>
      <use xlink:href="#CMR17-31" transform="translate(242.913811 0) scale(0.996264)"/>
      <use xlink:href="#CMMI12-3d" transform="translate(288.604288 0) scale(0.996264)"/>
      <use xlink:href="#CMMI12-4a" transform="translate(337.379207 0) scale(0.996264)"/>
      <use xlink:href="#CMR17-30" transform="translate(391.297162 -14.943915) scale(0.697382)"/>
      <use xlink:href="#CMR17-29" transform="translate(423.778476 0) scale(0.996264)"/>
     </g>
    </g>
   </g>
   <g id="matplotlib.axis_4">
    <g id="ytick_7">
     <g id="line2d_24">
      <g>
       <use xlink:href="#m080c809ba1" x="63.191392" y="273.22394" style="stroke: #000000; stroke-width: 0.8"/>
      </g>
     </g>
     <g id="text_13">
      <!-- $-0.5$ -->
      <g transform="translate(7.2 281.872067) scale(0.25 -0.25)">
       <use xlink:href="#CMSY10-0" transform="scale(0.996264)"/>
       <use xlink:href="#CMR17-30" transform="translate(77.487468 0) scale(0.996264)"/>
       <use xlink:href="#CMMI12-3a" transform="translate(123.177945 0) scale(0.996264)"/>
       <use xlink:href="#CMR17-35" transform="translate(150.275122 0) scale(0.996264)"/>
      </g>
     </g>
    </g>
    <g id="ytick_8">
     <g id="line2d_25">
      <g>
       <use xlink:href="#m080c809ba1" x="63.191392" y="254.74394" style="stroke: #000000; stroke-width: 0.8"/>
      </g>
     </g>
    </g>
    <g id="ytick_9">
     <g id="line2d_26">
      <g>
       <use xlink:href="#m080c809ba1" x="63.191392" y="236.26394" style="stroke: #000000; stroke-width: 0.8"/>
      </g>
     </g>
    </g>
    <g id="ytick_10">
     <g id="line2d_27">
      <g>
       <use xlink:href="#m080c809ba1" x="63.191392" y="217.78394" style="stroke: #000000; stroke-width: 0.8"/>
      </g>
     </g>
    </g>
    <g id="ytick_11">
     <g id="line2d_28">
      <g>
       <use xlink:href="#m080c809ba1" x="63.191392" y="199.30394" style="stroke: #000000; stroke-width: 0.8"/>
      </g>
     </g>
    </g>
    <g id="ytick_12">
     <g id="line2d_29">
      <g>
       <use xlink:href="#m080c809ba1" x="63.191392" y="180.82394" style="stroke: #000000; stroke-width: 0.8"/>
      </g>
     </g>
     <g id="text_14">
      <!-- $0$ -->
      <g transform="translate(44.768773 189.472067) scale(0.25 -0.25)">
       <use xlink:href="#CMR17-30" transform="scale(0.996264)"/>
      </g>
     </g>
    </g>
   </g>
   <g id="line2d_30">
    <path d="M 63.191392 180.82394 
L 621.191392 180.82394 
" clip-path="url(#pb06b4c570c)" style="fill: none; stroke-dasharray: 2.775,1.2; stroke-dashoffset: 0; stroke: #947bd3; stroke-width: 0.75"/>
   </g>
   <g id="line2d_31">
    <path d="M 63.191392 244.60555 
L 64.679392 242.926697 
L 65.423392 243.573968 
L 66.167392 242.783721 
L 66.911392 242.910295 
L 67.655392 242.531384 
L 68.399392 243.007633 
L 69.143392 241.958839 
L 69.887392 242.187623 
L 70.631392 240.716898 
L 71.375392 241.293638 
L 72.119392 241.395219 
L 72.863392 240.673042 
L 73.607392 240.832983 
L 74.351392 239.569709 
L 75.095392 240.215656 
L 75.839392 238.00516 
L 76.583392 239.102154 
L 77.327392 238.471106 
L 78.071392 235.950704 
L 78.815392 237.340616 
L 79.559392 236.349314 
L 80.303392 235.068155 
L 81.047392 234.776763 
L 81.791392 233.347026 
L 82.535392 233.495063 
L 83.279392 232.492687 
L 84.023392 231.081112 
L 84.767392 231.398293 
L 85.511392 230.048912 
L 86.255392 229.639746 
L 87.743392 228.398103 
L 88.487392 226.197094 
L 89.231392 225.36216 
L 89.975392 226.081371 
L 90.719392 224.85814 
L 91.463392 223.080959 
L 92.207392 222.65413 
L 92.951392 221.594483 
L 93.695392 221.018004 
L 95.183392 219.200613 
L 95.927392 218.881243 
L 96.671392 217.261905 
L 98.159392 216.174961 
L 99.647392 213.631627 
L 101.135392 213.164115 
L 101.879392 211.097199 
L 102.623392 210.171278 
L 103.367392 210.324642 
L 104.111392 209.827855 
L 104.855392 208.013116 
L 106.343392 206.609129 
L 107.087392 205.140211 
L 107.831392 205.121826 
L 109.319392 203.941372 
L 110.063392 202.764554 
L 110.807392 202.915908 
L 112.295392 200.740543 
L 113.039392 199.970569 
L 113.783392 199.788634 
L 114.527392 198.481295 
L 115.271392 198.668836 
L 116.015392 198.035087 
L 116.759392 196.332811 
L 117.503392 196.289253 
L 118.247392 195.92755 
L 118.991392 196.242644 
L 119.735392 195.342853 
L 120.479392 195.248996 
L 121.223392 194.833625 
L 121.967392 193.324975 
L 122.711392 193.209855 
L 123.455392 193.618812 
L 124.199392 192.136256 
L 124.943392 191.972188 
L 125.687392 191.693117 
L 126.431392 191.787679 
L 127.175392 191.079472 
L 127.919392 190.798364 
L 128.663392 190.892364 
L 129.407392 190.442739 
L 130.151392 190.222708 
L 133.127392 188.571935 
L 133.871392 187.511246 
L 134.615392 188.146015 
L 135.359392 187.930692 
L 136.103392 188.276784 
L 136.847392 187.088284 
L 137.591392 187.264124 
L 138.335392 187.244907 
L 139.079392 186.756924 
L 139.823392 186.409738 
L 140.567392 187.467245 
L 141.311392 186.70141 
L 142.055392 186.337671 
L 142.799392 185.678266 
L 143.543392 185.733544 
L 144.287392 186.678504 
L 145.031392 186.303658 
L 145.775392 186.353661 
L 146.519392 185.570604 
L 147.263392 185.718312 
L 148.007392 185.401125 
L 148.751392 185.915367 
L 149.495392 185.238275 
L 150.239392 185.572351 
L 151.727392 185.251893 
L 152.471392 184.881668 
L 153.959392 185.754613 
L 155.447392 185.211013 
L 156.935392 185.46658 
L 157.679392 186.021121 
L 158.423392 184.892522 
L 159.167392 185.50611 
L 159.911392 184.902862 
L 161.399392 184.717964 
L 162.143392 185.100135 
L 162.887392 184.702587 
L 163.631392 185.116034 
L 165.863392 185.53269 
L 166.607392 185.305416 
L 167.351392 184.881889 
L 168.095392 184.781652 
L 168.839392 185.44192 
L 169.583392 185.289151 
L 170.327392 184.855765 
L 171.071392 185.904829 
L 171.815392 185.080348 
L 172.559392 185.212518 
L 173.303392 185.963043 
L 174.047392 185.946516 
L 174.791392 185.147641 
L 175.535392 185.966946 
L 176.279392 184.955231 
L 177.023392 185.05002 
L 177.767392 184.918865 
L 178.511392 185.41125 
L 179.255392 185.495051 
L 179.999392 185.362948 
L 180.743392 185.813262 
L 181.487392 185.133585 
L 182.975392 185.042471 
L 183.719392 185.690308 
L 184.463392 185.361967 
L 185.207392 185.893513 
L 185.951392 185.410201 
L 186.695392 185.48434 
L 187.439392 184.889946 
L 188.183392 185.430729 
L 189.671392 185.556101 
L 190.415392 185.140821 
L 191.159392 184.918773 
L 191.903392 185.194561 
L 192.647392 186.545124 
L 193.391392 184.967251 
L 194.879392 186.809976 
L 195.623392 185.475482 
L 196.367392 185.123604 
L 197.111392 185.805458 
L 197.855392 185.518823 
L 198.599392 186.183639 
L 199.343392 185.184363 
L 200.087392 185.661803 
L 200.831392 184.674983 
L 201.575392 185.300928 
L 203.063392 185.275022 
L 203.807392 186.173012 
L 204.551392 185.455724 
L 205.295392 185.021705 
L 206.039392 186.238125 
L 206.783392 185.507464 
L 208.271392 184.748453 
L 209.015392 185.291357 
L 209.759392 185.371192 
L 210.503392 185.919026 
L 211.247392 185.815383 
L 211.991392 186.193548 
L 212.735392 184.498631 
L 213.479392 185.494716 
L 214.223392 185.628049 
L 214.967392 184.585462 
L 215.711392 186.176393 
L 216.455392 185.798135 
L 217.199392 186.150476 
L 217.943392 185.39629 
L 218.687392 185.809938 
L 220.175392 184.744089 
L 220.919392 185.225492 
L 221.663392 185.029631 
L 222.407392 185.287703 
L 223.151392 184.808933 
L 223.895392 185.001665 
L 224.639392 184.50657 
L 225.383392 184.803619 
L 226.127392 185.776124 
L 226.871392 185.678461 
L 227.615392 185.041436 
L 229.847392 185.321043 
L 230.591392 185.154988 
L 231.335392 185.710548 
L 232.079392 184.933 
L 233.567392 184.697279 
L 234.311392 185.036711 
L 235.055392 184.738112 
L 235.799392 183.761109 
L 236.543392 184.803451 
L 237.287392 184.548319 
L 238.031392 185.025016 
L 238.775392 184.887263 
L 239.519392 183.791926 
L 240.263392 183.582421 
L 241.007392 183.976646 
L 241.751392 184.653272 
L 242.495392 184.311534 
L 243.239392 185.022964 
L 243.983392 183.875302 
L 244.727392 183.567399 
L 245.471392 184.151652 
L 246.215392 183.583006 
L 246.959392 183.787306 
L 247.703392 183.690842 
L 248.447392 183.720898 
L 249.191392 183.373082 
L 249.935392 182.883726 
L 250.679392 184.231297 
L 251.423392 183.036027 
L 252.167392 182.504822 
L 252.911392 183.383125 
L 253.655392 183.478843 
L 254.399392 184.028838 
L 255.143392 183.245341 
L 256.631392 184.05936 
L 258.119392 183.688787 
L 258.863392 183.88038 
L 259.607392 182.866947 
L 260.351392 182.479861 
L 261.839392 183.219649 
L 262.583392 182.700599 
L 263.327392 182.66319 
L 264.071392 183.295523 
L 264.815392 182.125354 
L 265.559392 182.423591 
L 267.047392 183.410615 
L 267.791392 182.68676 
L 268.535392 181.382634 
L 269.279392 181.633151 
L 270.023392 182.638497 
L 270.767392 182.661527 
L 271.511392 183.376544 
L 272.255392 182.099549 
L 272.999392 182.472929 
L 273.743392 181.975634 
L 274.487392 182.837144 
L 275.231392 181.520328 
L 275.975392 182.271471 
L 276.719392 181.859304 
L 277.463392 182.470536 
L 278.207392 182.294505 
L 278.951392 182.2349 
L 279.695392 182.026193 
L 280.439392 182.639011 
L 281.183392 182.835523 
L 281.927392 182.10802 
L 282.671392 182.386521 
L 283.415392 182.185277 
L 284.159392 182.89366 
L 285.647392 181.752968 
L 286.391392 183.244228 
L 287.135392 180.846511 
L 287.879392 181.980419 
L 288.623392 182.257291 
L 289.367392 181.609625 
L 290.111392 181.806153 
L 290.855392 182.63011 
L 291.599392 182.662172 
L 292.343392 181.866254 
L 293.087392 182.275876 
L 293.831392 181.605703 
L 294.575392 181.910915 
L 295.319392 180.718531 
L 296.063392 182.389445 
L 296.807392 183.177568 
L 297.551392 181.053566 
L 298.295392 180.915584 
L 299.783392 181.011117 
L 300.527392 180.690934 
L 301.271392 181.752044 
L 302.015392 182.126998 
L 302.759392 181.388875 
L 303.503392 180.427104 
L 304.247392 181.292861 
L 304.991392 181.420033 
L 305.735392 182.037523 
L 306.479392 180.989533 
L 307.223392 181.746809 
L 307.967392 181.744235 
L 308.711392 180.290129 
L 309.455392 181.868898 
L 310.199392 181.244378 
L 310.943392 181.464761 
L 311.687392 181.37479 
L 312.431392 181.114328 
L 313.175392 181.286288 
L 313.919392 180.787352 
L 314.663392 181.421642 
L 315.407392 181.22986 
L 316.151392 181.691884 
L 316.895392 181.145456 
L 317.639392 181.284986 
L 318.383392 181.15072 
L 319.127392 181.58167 
L 319.871392 181.336797 
L 320.615392 181.891213 
L 321.359392 181.360896 
L 322.103392 181.40227 
L 322.847392 181.139389 
L 323.591392 181.805758 
L 324.335392 181.154726 
L 325.079392 180.847434 
L 325.823392 181.874059 
L 326.567392 182.225445 
L 328.055392 180.961149 
L 328.799392 182.105112 
L 329.543392 181.136168 
L 330.287392 180.785191 
L 331.031392 181.758142 
L 331.775392 181.506693 
L 332.519392 180.79516 
L 333.263392 182.062641 
L 334.007392 182.314086 
L 334.751392 181.418384 
L 335.495392 181.212737 
L 336.239392 182.193137 
L 336.983392 180.238172 
L 337.727392 181.023327 
L 338.471392 182.327397 
L 339.215392 182.137768 
L 339.959392 181.006178 
L 340.703392 182.129693 
L 341.447392 181.407964 
L 342.191392 182.477304 
L 342.935392 181.612715 
L 343.679392 180.920019 
L 344.423392 181.998957 
L 345.911392 181.138259 
L 346.655392 181.816569 
L 348.143392 182.637831 
L 348.887392 181.55434 
L 349.631392 181.56878 
L 350.375392 181.837289 
L 351.119392 181.562346 
L 352.607392 182.072183 
L 353.351392 182.684967 
L 354.095392 181.701263 
L 354.839392 181.360662 
L 355.583392 182.283212 
L 356.327392 181.547883 
L 357.071392 181.282617 
L 357.815392 181.429742 
L 358.559392 182.106151 
L 359.303392 181.086513 
L 360.047392 181.664652 
L 360.791392 181.842396 
L 361.535392 181.840694 
L 362.279392 181.448466 
L 363.023392 181.431239 
L 363.767392 181.595599 
L 364.511392 182.479052 
L 365.255392 182.542011 
L 365.999392 181.956768 
L 366.743392 182.450972 
L 367.487392 181.521657 
L 368.231392 181.650015 
L 368.975392 182.876962 
L 369.719392 182.643731 
L 370.463392 182.785894 
L 371.207392 181.956935 
L 371.951392 183.138952 
L 372.695392 183.007949 
L 373.439392 182.419119 
L 374.183392 182.111486 
L 374.927392 182.742783 
L 375.671392 182.848691 
L 376.415392 182.134115 
L 377.159392 182.158273 
L 377.903392 182.687084 
L 378.647392 181.941079 
L 379.391392 182.618653 
L 380.135392 182.480201 
L 380.879392 182.180495 
L 381.623392 182.224516 
L 383.111392 182.784472 
L 384.599392 181.500167 
L 385.343392 181.890653 
L 386.087392 182.689639 
L 386.831392 182.229575 
L 387.575392 183.229969 
L 388.319392 182.90576 
L 389.063392 181.999925 
L 389.807392 182.126929 
L 390.551392 182.982956 
L 392.039392 182.631449 
L 392.783392 181.761898 
L 393.527392 182.654025 
L 394.271392 182.536203 
L 395.015392 181.995102 
L 395.759392 181.804481 
L 396.503392 182.578911 
L 397.247392 182.192113 
L 397.991392 182.499654 
L 398.735392 183.250559 
L 399.479392 183.376029 
L 400.223392 182.860832 
L 400.967392 182.542903 
L 401.711392 181.317557 
L 402.455392 182.305111 
L 403.199392 181.874879 
L 403.943392 181.919734 
L 404.687392 183.0001 
L 405.431392 182.453241 
L 406.175392 183.028117 
L 406.919392 182.382726 
L 407.663392 182.336916 
L 408.407392 182.922334 
L 409.151392 182.978492 
L 409.895392 182.476301 
L 410.639392 182.974188 
L 411.383392 182.821051 
L 412.127392 182.419591 
L 412.871392 182.151653 
L 413.615392 183.045624 
L 414.359392 182.593678 
L 415.103392 183.057176 
L 415.847392 183.173326 
L 416.591392 181.283495 
L 417.335392 182.914655 
L 418.079392 182.013964 
L 418.823392 182.063144 
L 419.567392 182.949996 
L 420.311392 182.220233 
L 421.055392 182.627095 
L 421.799392 183.50547 
L 422.543392 181.501949 
L 423.287392 182.36846 
L 425.519392 183.229647 
L 426.263392 182.632942 
L 427.007392 182.658265 
L 427.751392 182.103988 
L 428.495392 182.749213 
L 429.239392 183.237122 
L 429.983392 182.496069 
L 430.727392 182.900564 
L 431.471392 183.503093 
L 432.215392 182.610376 
L 432.959392 182.109215 
L 433.703392 181.960617 
L 434.447392 182.525088 
L 435.191392 182.69008 
L 436.679392 182.775259 
L 437.423392 183.0731 
L 438.167392 182.470243 
L 438.911392 182.62175 
L 439.655392 182.097416 
L 440.399392 182.493413 
L 441.143392 182.005348 
L 441.887392 182.946147 
L 442.631392 181.41093 
L 443.375392 182.676619 
L 444.119392 181.990623 
L 444.863392 183.117488 
L 445.607392 182.508286 
L 446.351392 182.061106 
L 447.095392 183.3332 
L 447.839392 183.004974 
L 448.583392 183.448958 
L 449.327392 182.792282 
L 450.071392 183.04316 
L 450.815392 182.211663 
L 451.559392 182.319899 
L 452.303392 182.970923 
L 453.047392 182.906033 
L 453.791392 182.657601 
L 454.535392 183.630763 
L 455.279392 183.551769 
L 456.023392 182.792415 
L 456.767392 182.449744 
L 457.511392 182.274063 
L 458.255392 182.629934 
L 458.999392 182.439032 
L 459.743392 181.699477 
L 460.487392 182.844192 
L 461.231392 183.351044 
L 461.975392 182.358793 
L 462.719392 182.811609 
L 463.463392 183.932894 
L 464.207392 182.912168 
L 464.951392 183.096322 
L 465.695392 183.075964 
L 466.439392 182.365904 
L 467.183392 181.897204 
L 467.927392 182.422803 
L 468.671392 183.098195 
L 469.415392 182.96575 
L 470.159392 182.431342 
L 470.903392 182.814234 
L 471.647392 183.569792 
L 472.391392 182.901992 
L 473.135392 183.125051 
L 473.879392 181.923543 
L 474.623392 182.889109 
L 475.367392 182.768839 
L 476.111392 182.888312 
L 476.855392 183.171484 
L 477.599392 183.329196 
L 479.087392 182.368644 
L 479.831392 183.550749 
L 480.575392 183.896576 
L 481.319392 182.909828 
L 482.063392 183.114228 
L 482.807392 182.939564 
L 483.551392 181.7651 
L 484.295392 183.417474 
L 485.039392 183.506888 
L 485.783392 182.275728 
L 486.527392 183.894472 
L 487.271392 183.119935 
L 488.015392 183.024627 
L 488.759392 182.564647 
L 489.503392 182.647766 
L 490.247392 182.937692 
L 490.991392 182.91519 
L 491.735392 182.429596 
L 492.479392 182.996236 
L 493.223392 183.007363 
L 493.967392 183.330619 
L 494.711392 182.8905 
L 495.455392 184.537317 
L 496.199392 183.408303 
L 496.943392 183.1416 
L 497.687392 183.156339 
L 498.431392 183.521878 
L 499.175392 182.711145 
L 499.919392 183.39629 
L 500.663392 182.66742 
L 501.407392 184.3335 
L 502.151392 183.794217 
L 502.895392 183.633869 
L 503.639392 182.859416 
L 504.383392 183.512075 
L 505.127392 184.342052 
L 505.871392 183.867391 
L 506.615392 183.239506 
L 507.359392 183.158204 
L 508.103392 184.111228 
L 508.847392 184.141229 
L 509.591392 183.757623 
L 510.335392 183.58628 
L 511.079392 184.960641 
L 511.823392 183.748954 
L 513.311392 184.358728 
L 514.055392 184.238361 
L 514.799392 183.744338 
L 515.543392 184.947613 
L 516.287392 184.890828 
L 517.031392 183.983755 
L 517.775392 184.226385 
L 518.519392 185.314377 
L 519.263392 184.230983 
L 520.007392 185.307678 
L 520.751392 184.927679 
L 521.495392 184.776621 
L 522.239392 185.461197 
L 522.983392 184.461408 
L 523.727392 184.946071 
L 524.471392 185.066407 
L 525.215392 184.648364 
L 525.959392 184.617594 
L 526.703392 185.948993 
L 527.447392 184.85702 
L 528.191392 185.399038 
L 528.935392 185.73924 
L 530.423392 185.706788 
L 531.167392 186.47755 
L 531.911392 185.03739 
L 534.143392 186.601778 
L 534.887392 186.005589 
L 535.631392 186.391663 
L 536.375392 186.495057 
L 537.119392 186.733257 
L 537.863392 186.453503 
L 538.607392 186.453595 
L 539.351392 186.223751 
L 540.095392 186.739049 
L 540.839392 186.328404 
L 541.583392 186.727364 
L 542.327392 186.71438 
L 543.071392 186.392837 
L 543.815392 186.864396 
L 545.303392 187.367562 
L 546.047392 186.814821 
L 546.791392 187.490872 
L 547.535392 187.401047 
L 548.279392 187.80304 
L 549.023392 188.016823 
L 550.511392 187.229894 
L 552.743392 188.234153 
L 553.487392 187.72272 
L 554.231392 188.335908 
L 554.975392 188.728997 
L 555.719392 189.332432 
L 556.463392 189.027868 
L 557.207392 188.927596 
L 557.951392 187.929888 
L 558.695392 189.4867 
L 559.439392 189.372828 
L 560.183392 188.942168 
L 560.927392 189.355243 
L 561.671392 189.448868 
L 562.415392 189.806615 
L 563.159392 188.505583 
L 563.903392 189.435988 
L 564.647392 189.435464 
L 566.135392 189.740448 
L 566.879392 189.551187 
L 567.623392 189.597559 
L 568.367392 189.972886 
L 569.111392 190.491508 
L 569.855392 189.566422 
L 570.599392 188.998347 
L 571.343392 191.052813 
L 572.087392 190.538993 
L 572.831392 189.446653 
L 573.575392 189.911315 
L 574.319392 190.935798 
L 575.063392 189.776521 
L 575.807392 189.80073 
L 576.551392 189.996108 
L 577.295392 190.538915 
L 578.039392 191.529176 
L 578.783392 190.010153 
L 579.527392 190.233914 
L 580.271392 190.111297 
L 581.015392 190.417126 
L 581.759392 190.947845 
L 582.503392 190.427623 
L 583.247392 191.273607 
L 583.991392 191.309376 
L 584.735392 190.863693 
L 585.479392 190.719396 
L 586.223392 191.101161 
L 586.967392 191.212984 
L 588.455392 190.917499 
L 589.199392 191.294337 
L 589.943392 190.374664 
L 590.687392 191.299623 
L 591.431392 190.849472 
L 592.175392 191.533562 
L 592.919392 190.894244 
L 593.663392 191.14043 
L 594.407392 190.878027 
L 595.895392 191.064771 
L 596.639392 191.552122 
L 597.383392 190.22772 
L 598.871392 191.488401 
L 599.615392 191.046491 
L 600.359392 191.150662 
L 601.103392 191.659748 
L 602.591392 190.365072 
L 603.335392 191.033115 
L 604.079392 191.470922 
L 604.823392 190.283027 
L 605.567392 190.777159 
L 606.311392 190.73212 
L 607.055392 190.920678 
L 607.799392 191.36038 
L 608.543392 190.928924 
L 609.287392 190.699986 
L 610.031392 190.27595 
L 610.775392 190.692559 
L 611.519392 191.272862 
L 613.007392 191.195494 
L 613.751392 190.106794 
L 615.239392 190.374529 
L 615.983392 190.442166 
L 616.727392 190.13906 
L 617.471392 190.497497 
L 618.215392 190.478509 
L 618.959392 190.060968 
L 620.447392 190.439704 
L 621.191392 188.940562 
L 621.935392 190.502189 
L 622.679392 189.462695 
L 623.423392 189.520717 
L 624.167392 190.174794 
L 624.911392 190.086305 
L 625.655392 190.472352 
L 626.399392 189.835668 
L 627.143392 189.386224 
L 627.887392 189.628871 
L 629.375392 188.960763 
L 630.119392 189.400291 
L 630.863392 188.713082 
L 631.607392 188.565581 
L 632.351392 188.833399 
L 633.095392 188.773369 
L 633.839392 188.903488 
L 634.583392 189.240088 
L 635.327392 188.030913 
L 636.071392 188.389579 
L 636.815392 188.581691 
L 637.559392 188.938467 
L 638.303392 188.325474 
L 639.047392 188.409329 
L 639.791392 187.808288 
L 640.535392 188.007777 
L 641.279392 187.815107 
L 642.023392 188.365783 
L 642.767392 187.740153 
L 643.511392 187.263046 
L 644.255392 188.364243 
L 644.999392 187.512408 
L 646.487392 187.568841 
L 647.231392 187.206367 
L 647.975392 187.925714 
L 649.912468 187.025872 
L 649.912468 187.025872 
" clip-path="url(#pb06b4c570c)" style="fill: none; stroke: #947bd3; stroke-opacity: 0.75; stroke-width: 6; stroke-linecap: square"/>
   </g>
   <g id="patch_5">
    <path d="M 63.191392 282.46394 
L 63.191392 171.58394 
" style="fill: none; stroke: #000000; stroke-width: 0.8; stroke-linejoin: miter; stroke-linecap: square"/>
   </g>
   <g id="patch_6">
    <path d="M 63.191392 282.46394 
L 621.191392 282.46394 
" style="fill: none; stroke: #000000; stroke-width: 0.8; stroke-linejoin: miter; stroke-linecap: square"/>
   </g>
   <g id="legend_2">
    <g id="line2d_32">
     <path d="M 475.404721 246.369406 
L 500.404721 246.369406 
L 525.404721 246.369406 
" style="fill: none; stroke: #947bd3; stroke-opacity: 0.75; stroke-width: 6; stroke-linecap: square"/>
    </g>
    <g id="text_15">
     <!-- $6 \times 6$ -->
     <g transform="translate(545.404721 255.119406) scale(0.25 -0.25)">
      <defs>
       <path id="CMR17-36" d="M 678 2176 
C 678 3690 1395 4032 1811 4032 
C 1946 4032 2272 4009 2400 3776 
C 2298 3776 2106 3776 2106 3553 
C 2106 3381 2246 3323 2336 3323 
C 2394 3323 2566 3348 2566 3560 
C 2566 3954 2246 4179 1805 4179 
C 1043 4179 243 3390 243 1984 
C 243 253 966 -128 1478 -128 
C 2099 -128 2688 427 2688 1283 
C 2688 2081 2170 2662 1517 2662 
C 1126 2662 838 2407 678 1960 
L 678 2176 
z
M 1478 25 
C 691 25 691 1200 691 1436 
C 691 1896 909 2560 1504 2560 
C 1613 2560 1926 2560 2138 2120 
C 2253 1870 2253 1609 2253 1289 
C 2253 944 2253 690 2118 434 
C 1978 171 1773 25 1478 25 
z
" transform="scale(0.015625)"/>
      </defs>
      <use xlink:href="#CMR17-36" transform="scale(0.996264)"/>
      <use xlink:href="#CMSY10-2" transform="translate(67.829684 0) scale(0.996264)"/>
      <use xlink:href="#CMR17-36" transform="translate(167.456359 0) scale(0.996264)"/>
     </g>
    </g>
   </g>
  </g>
 </g>
 <defs>
  <clipPath id="p5a6b1a33c5">
   <rect x="63.191392" y="49.61594" width="558" height="110.88"/>
  </clipPath>
  <clipPath id="pb06b4c570c">
   <rect x="63.191392" y="171.58394" width="558" height="110.88"/>
  </clipPath>
 </defs>
</svg>
