<?xml version="1.0" encoding="utf-8" standalone="no"?>
<!DOCTYPE svg PUBLIC "-//W3C//DTD SVG 1.1//EN"
  "http://www.w3.org/Graphics/SVG/1.1/DTD/svg11.dtd">
<svg xmlns:xlink="http://www.w3.org/1999/xlink" width="407.932837pt" height="273.102342pt" viewBox="0 0 407.932837 273.102342" xmlns="http://www.w3.org/2000/svg" version="1.1">
 <metadata>
  <rdf:RDF xmlns:dc="http://purl.org/dc/elements/1.1/" xmlns:cc="http://creativecommons.org/ns#" xmlns:rdf="http://www.w3.org/1999/02/22-rdf-syntax-ns#">
   <cc:Work>
    <dc:type rdf:resource="http://purl.org/dc/dcmitype/StillImage"/>
    <dc:date>2025-07-14T17:03:47.483760</dc:date>
    <dc:format>image/svg+xml</dc:format>
    <dc:creator>
     <cc:Agent>
      <dc:title>Matplotlib v3.9.0, https://matplotlib.org/</dc:title>
     </cc:Agent>
    </dc:creator>
   </cc:Work>
  </rdf:RDF>
 </metadata>
 <defs>
  <style type="text/css">*{stroke-linejoin: round; stroke-linecap: butt}</style>
 </defs>
 <g id="figure_1">
  <g id="patch_1">
   <path d="M 0 273.102342 
L 407.932837 273.102342 
L 407.932837 0 
L 0 0 
z
" style="fill: #ffffff"/>
  </g>
  <g id="axes_1">
   <g id="patch_2">
    <path d="M 14.531562 236.761554 
L 349.331562 236.761554 
L 349.331562 15.001554 
L 14.531562 15.001554 
z
" style="fill: #ffffff"/>
   </g>
   <g id="matplotlib.axis_1">
    <g id="xtick_1">
     <g id="line2d_1">
      <path d="M 29.400637 236.761554 
L 29.400637 15.001554 
" clip-path="url(#p91ba34db5f)" style="fill: none; stroke-dasharray: 2.96,1.28; stroke-dashoffset: 0; stroke: #808080; stroke-opacity: 0.7; stroke-width: 0.8"/>
     </g>
     <g id="line2d_2">
      <defs>
       <path id="mde359d40e0" d="M 0 0 
L 0 3.5 
" style="stroke: #000000; stroke-width: 0.8"/>
      </defs>
      <g>
       <use xlink:href="#mde359d40e0" x="29.400637" y="236.761554" style="stroke: #000000; stroke-width: 0.8"/>
      </g>
     </g>
     <g id="text_1">
      <!-- $\mathdefault{10^{-9}}$ -->
      <g transform="translate(7.2 261.057807) scale(0.25 -0.25)">
       <defs>
        <path id="CMR17-31" d="M 1702 4058 
C 1702 4192 1696 4192 1606 4192 
C 1357 3916 979 3827 621 3827 
C 602 3827 570 3827 563 3808 
C 557 3795 557 3782 557 3648 
C 755 3648 1088 3686 1344 3839 
L 1344 461 
C 1344 236 1331 160 781 160 
L 589 160 
L 589 0 
C 896 0 1216 0 1523 0 
C 1830 0 2150 0 2458 0 
L 2458 160 
L 2266 160 
C 1715 160 1702 230 1702 458 
L 1702 4058 
z
" transform="scale(0.015625)"/>
        <path id="CMR17-30" d="M 2688 2025 
C 2688 2416 2682 3080 2413 3591 
C 2176 4039 1798 4198 1466 4198 
C 1158 4198 768 4058 525 3597 
C 269 3118 243 2524 243 2025 
C 243 1661 250 1106 448 619 
C 723 -39 1216 -128 1466 -128 
C 1760 -128 2208 -7 2470 600 
C 2662 1042 2688 1559 2688 2025 
z
M 1466 -26 
C 1056 -26 813 325 723 812 
C 653 1188 653 1738 653 2096 
C 653 2588 653 2997 736 3387 
C 858 3929 1216 4096 1466 4096 
C 1728 4096 2067 3923 2189 3400 
C 2272 3036 2278 2607 2278 2096 
C 2278 1680 2278 1169 2202 792 
C 2067 95 1690 -26 1466 -26 
z
" transform="scale(0.015625)"/>
        <path id="CMSY10-0" d="M 4218 1472 
C 4326 1472 4442 1472 4442 1600 
C 4442 1728 4326 1728 4218 1728 
L 755 1728 
C 646 1728 531 1728 531 1600 
C 531 1472 646 1472 755 1472 
L 4218 1472 
z
" transform="scale(0.015625)"/>
        <path id="CMR17-39" d="M 2253 1864 
C 2253 464 1670 31 1190 31 
C 1043 31 685 31 538 294 
C 704 268 826 357 826 518 
C 826 692 685 749 595 749 
C 538 749 365 723 365 506 
C 365 71 742 -128 1203 -128 
C 1939 -128 2688 674 2688 2073 
C 2688 3817 1971 4179 1485 4179 
C 851 4179 243 3628 243 2778 
C 243 1991 762 1408 1414 1408 
C 1952 1408 2189 1903 2253 2112 
L 2253 1864 
z
M 1427 1510 
C 1254 1510 1011 1542 813 1922 
C 678 2169 678 2461 678 2771 
C 678 3146 678 3405 858 3684 
C 947 3817 1114 4032 1485 4032 
C 2240 4032 2240 2885 2240 2632 
C 2240 2182 2035 1510 1427 1510 
z
" transform="scale(0.015625)"/>
       </defs>
       <use xlink:href="#CMR17-31" transform="scale(0.996264)"/>
       <use xlink:href="#CMR17-30" transform="translate(45.690477 0) scale(0.996264)"/>
       <use xlink:href="#CMSY10-0" transform="translate(91.380954 36.153639) scale(0.697382)"/>
       <use xlink:href="#CMR17-39" transform="translate(145.621947 36.153639) scale(0.697382)"/>
      </g>
     </g>
    </g>
    <g id="xtick_2">
     <g id="line2d_3">
      <path d="M 128.188637 236.761554 
L 128.188637 15.001554 
" clip-path="url(#p91ba34db5f)" style="fill: none; stroke-dasharray: 2.96,1.28; stroke-dashoffset: 0; stroke: #808080; stroke-opacity: 0.7; stroke-width: 0.8"/>
     </g>
     <g id="line2d_4">
      <g>
       <use xlink:href="#mde359d40e0" x="128.188637" y="236.761554" style="stroke: #000000; stroke-width: 0.8"/>
      </g>
     </g>
     <g id="text_2">
      <!-- $\mathdefault{10^{-7}}$ -->
      <g transform="translate(105.987999 261.057807) scale(0.25 -0.25)">
       <defs>
        <path id="CMR17-37" d="M 2886 3941 
L 2886 4081 
L 1382 4081 
C 634 4081 621 4165 595 4288 
L 480 4288 
L 294 3094 
L 410 3094 
C 429 3215 474 3540 550 3661 
C 589 3712 1062 3712 1171 3712 
L 2579 3712 
L 1869 2661 
C 1395 1954 1069 999 1069 165 
C 1069 89 1069 -128 1299 -128 
C 1530 -128 1530 89 1530 171 
L 1530 465 
C 1530 1508 1709 2196 2003 2636 
L 2886 3941 
z
" transform="scale(0.015625)"/>
       </defs>
       <use xlink:href="#CMR17-31" transform="scale(0.996264)"/>
       <use xlink:href="#CMR17-30" transform="translate(45.690477 0) scale(0.996264)"/>
       <use xlink:href="#CMSY10-0" transform="translate(91.380954 36.153639) scale(0.697382)"/>
       <use xlink:href="#CMR17-37" transform="translate(145.621947 36.153639) scale(0.697382)"/>
      </g>
     </g>
    </g>
    <g id="xtick_3">
     <g id="line2d_5">
      <path d="M 226.976636 236.761554 
L 226.976636 15.001554 
" clip-path="url(#p91ba34db5f)" style="fill: none; stroke-dasharray: 2.96,1.28; stroke-dashoffset: 0; stroke: #808080; stroke-opacity: 0.7; stroke-width: 0.8"/>
     </g>
     <g id="line2d_6">
      <g>
       <use xlink:href="#mde359d40e0" x="226.976636" y="236.761554" style="stroke: #000000; stroke-width: 0.8"/>
      </g>
     </g>
     <g id="text_3">
      <!-- $\mathdefault{10^{-5}}$ -->
      <g transform="translate(204.775998 261.057807) scale(0.25 -0.25)">
       <defs>
        <path id="CMR17-35" d="M 730 3692 
C 794 3666 1056 3584 1325 3584 
C 1920 3584 2246 3911 2432 4100 
C 2432 4157 2432 4192 2394 4192 
C 2387 4192 2374 4192 2323 4163 
C 2099 4058 1837 3973 1517 3973 
C 1325 3973 1037 3999 723 4139 
C 653 4171 640 4171 634 4171 
C 602 4171 595 4164 595 4037 
L 595 2203 
C 595 2089 595 2057 659 2057 
C 691 2057 704 2070 736 2114 
C 941 2401 1222 2522 1542 2522 
C 1766 2522 2246 2382 2246 1289 
C 2246 1085 2246 715 2054 421 
C 1894 159 1645 25 1370 25 
C 947 25 518 320 403 814 
C 429 807 480 795 506 795 
C 589 795 749 840 749 1038 
C 749 1210 627 1280 506 1280 
C 358 1280 262 1190 262 1011 
C 262 454 704 -128 1382 -128 
C 2042 -128 2669 440 2669 1264 
C 2669 2030 2170 2624 1549 2624 
C 1222 2624 947 2503 730 2274 
L 730 3692 
z
" transform="scale(0.015625)"/>
       </defs>
       <use xlink:href="#CMR17-31" transform="scale(0.996264)"/>
       <use xlink:href="#CMR17-30" transform="translate(45.690477 0) scale(0.996264)"/>
       <use xlink:href="#CMSY10-0" transform="translate(91.380954 36.153639) scale(0.697382)"/>
       <use xlink:href="#CMR17-35" transform="translate(145.621947 36.153639) scale(0.697382)"/>
      </g>
     </g>
    </g>
    <g id="xtick_4">
     <g id="line2d_7">
      <path d="M 325.764635 236.761554 
L 325.764635 15.001554 
" clip-path="url(#p91ba34db5f)" style="fill: none; stroke-dasharray: 2.96,1.28; stroke-dashoffset: 0; stroke: #808080; stroke-opacity: 0.7; stroke-width: 0.8"/>
     </g>
     <g id="line2d_8">
      <g>
       <use xlink:href="#mde359d40e0" x="325.764635" y="236.761554" style="stroke: #000000; stroke-width: 0.8"/>
      </g>
     </g>
     <g id="text_4">
      <!-- $\mathdefault{10^{-3}}$ -->
      <g transform="translate(303.563997 261.057807) scale(0.25 -0.25)">
       <defs>
        <path id="CMR17-33" d="M 1414 2157 
C 1984 2157 2234 1662 2234 1090 
C 2234 320 1824 25 1453 25 
C 1114 25 563 194 390 693 
C 422 680 454 680 486 680 
C 640 680 755 782 755 948 
C 755 1133 614 1216 486 1216 
C 378 1216 211 1165 211 926 
C 211 335 787 -128 1466 -128 
C 2176 -128 2720 430 2720 1085 
C 2720 1707 2208 2157 1600 2227 
C 2086 2328 2554 2756 2554 3329 
C 2554 3820 2048 4179 1472 4179 
C 890 4179 378 3829 378 3329 
C 378 3110 544 3072 627 3072 
C 762 3072 877 3155 877 3321 
C 877 3486 762 3569 627 3569 
C 602 3569 570 3569 544 3557 
C 730 3959 1235 4032 1459 4032 
C 1683 4032 2106 3925 2106 3320 
C 2106 3143 2080 2828 1862 2550 
C 1670 2304 1453 2304 1242 2284 
C 1210 2284 1062 2269 1037 2269 
C 992 2263 966 2257 966 2208 
C 966 2163 973 2157 1101 2157 
L 1414 2157 
z
" transform="scale(0.015625)"/>
       </defs>
       <use xlink:href="#CMR17-31" transform="scale(0.996264)"/>
       <use xlink:href="#CMR17-30" transform="translate(45.690477 0) scale(0.996264)"/>
       <use xlink:href="#CMSY10-0" transform="translate(91.380954 36.153639) scale(0.697382)"/>
       <use xlink:href="#CMR17-33" transform="translate(145.621947 36.153639) scale(0.697382)"/>
      </g>
     </g>
    </g>
   </g>
   <g id="matplotlib.axis_2">
    <g id="ytick_1">
     <g id="line2d_9">
      <path d="M 14.531562 179.364787 
L 349.331562 179.364787 
" clip-path="url(#p91ba34db5f)" style="fill: none; stroke-dasharray: 2.96,1.28; stroke-dashoffset: 0; stroke: #808080; stroke-opacity: 0.7; stroke-width: 0.8"/>
     </g>
     <g id="line2d_10">
      <defs>
       <path id="mfa3d7b5e7a" d="M 0 0 
L 3.5 0 
" style="stroke: #000000; stroke-width: 0.8"/>
      </defs>
      <g>
       <use xlink:href="#mfa3d7b5e7a" x="349.331562" y="179.364787" style="stroke: #000000; stroke-width: 0.8"/>
      </g>
     </g>
     <g id="text_5">
      <!-- $\mathdefault{10^{-8}}$ -->
      <g transform="translate(356.331562 188.012913) scale(0.25 -0.25)">
       <defs>
        <path id="CMR17-38" d="M 1741 2264 
C 2144 2467 2554 2773 2554 3263 
C 2554 3841 1990 4179 1472 4179 
C 890 4179 378 3759 378 3180 
C 378 3021 416 2747 666 2505 
C 730 2442 998 2251 1171 2130 
C 883 1983 211 1634 211 934 
C 211 279 838 -128 1459 -128 
C 2144 -128 2720 362 2720 1010 
C 2720 1590 2330 1857 2074 2029 
L 1741 2264 
z
M 902 2822 
C 851 2854 595 3051 595 3351 
C 595 3739 998 4032 1459 4032 
C 1965 4032 2336 3676 2336 3262 
C 2336 2669 1670 2331 1638 2331 
C 1632 2331 1626 2331 1574 2370 
L 902 2822 
z
M 2080 1519 
C 2176 1449 2483 1240 2483 851 
C 2483 381 2010 25 1472 25 
C 890 25 448 438 448 940 
C 448 1443 838 1862 1280 2060 
L 2080 1519 
z
" transform="scale(0.015625)"/>
       </defs>
       <use xlink:href="#CMR17-31" transform="scale(0.996264)"/>
       <use xlink:href="#CMR17-30" transform="translate(45.690477 0) scale(0.996264)"/>
       <use xlink:href="#CMSY10-0" transform="translate(91.380954 36.153639) scale(0.697382)"/>
       <use xlink:href="#CMR17-38" transform="translate(145.621947 36.153639) scale(0.697382)"/>
      </g>
     </g>
    </g>
    <g id="ytick_2">
     <g id="line2d_11">
      <path d="M 14.531562 97.606457 
L 349.331562 97.606457 
" clip-path="url(#p91ba34db5f)" style="fill: none; stroke-dasharray: 2.96,1.28; stroke-dashoffset: 0; stroke: #808080; stroke-opacity: 0.7; stroke-width: 0.8"/>
     </g>
     <g id="line2d_12">
      <g>
       <use xlink:href="#mfa3d7b5e7a" x="349.331562" y="97.606457" style="stroke: #000000; stroke-width: 0.8"/>
      </g>
     </g>
     <g id="text_6">
      <!-- $\mathdefault{10^{-5}}$ -->
      <g transform="translate(356.331562 106.254583) scale(0.25 -0.25)">
       <use xlink:href="#CMR17-31" transform="scale(0.996264)"/>
       <use xlink:href="#CMR17-30" transform="translate(45.690477 0) scale(0.996264)"/>
       <use xlink:href="#CMSY10-0" transform="translate(91.380954 36.153639) scale(0.697382)"/>
       <use xlink:href="#CMR17-35" transform="translate(145.621947 36.153639) scale(0.697382)"/>
      </g>
     </g>
    </g>
    <g id="ytick_3">
     <g id="line2d_13">
      <path d="M 14.531562 15.848127 
L 349.331562 15.848127 
" clip-path="url(#p91ba34db5f)" style="fill: none; stroke-dasharray: 2.96,1.28; stroke-dashoffset: 0; stroke: #808080; stroke-opacity: 0.7; stroke-width: 0.8"/>
     </g>
     <g id="line2d_14">
      <g>
       <use xlink:href="#mfa3d7b5e7a" x="349.331562" y="15.848127" style="stroke: #000000; stroke-width: 0.8"/>
      </g>
     </g>
     <g id="text_7">
      <!-- $\mathdefault{10^{-2}}$ -->
      <g transform="translate(356.331562 24.496254) scale(0.25 -0.25)">
       <defs>
        <path id="CMR17-32" d="M 2669 989 
L 2554 989 
C 2490 536 2438 459 2413 420 
C 2381 369 1920 369 1830 369 
L 602 369 
C 832 619 1280 1072 1824 1597 
C 2214 1967 2669 2402 2669 3035 
C 2669 3790 2067 4224 1395 4224 
C 691 4224 262 3604 262 3030 
C 262 2780 448 2748 525 2748 
C 589 2748 781 2787 781 3010 
C 781 3207 614 3264 525 3264 
C 486 3264 448 3258 422 3245 
C 544 3790 915 4058 1306 4058 
C 1862 4058 2227 3617 2227 3035 
C 2227 2479 1901 2000 1536 1584 
L 262 146 
L 262 0 
L 2515 0 
L 2669 989 
z
" transform="scale(0.015625)"/>
       </defs>
       <use xlink:href="#CMR17-31" transform="scale(0.996264)"/>
       <use xlink:href="#CMR17-30" transform="translate(45.690477 0) scale(0.996264)"/>
       <use xlink:href="#CMSY10-0" transform="translate(91.380954 36.153639) scale(0.697382)"/>
       <use xlink:href="#CMR17-32" transform="translate(145.621947 36.153639) scale(0.697382)"/>
      </g>
     </g>
    </g>
   </g>
   <g id="line2d_15">
    <path d="M 325.764635 25.081554 
L 312.32682 57.07886 
L 297.457745 56.641835 
L 282.588669 56.529811 
L 267.719594 56.527818 
L 252.850518 56.515914 
L 237.981443 56.51448 
L 223.112367 56.514177 
L 208.243292 56.514066 
L 193.374217 56.514042 
L 178.505141 56.514044 
L 163.636066 56.514038 
L 137.808993 56.514039 
L 122.939918 56.514038 
L 108.070842 56.514038 
L 93.201767 56.514038 
L 78.332691 56.514038 
L 63.463616 56.514038 
L 26.678546 56.514038 
" clip-path="url(#p91ba34db5f)" style="fill: none; stroke-dasharray: 7.5,1.5; stroke-dashoffset: 0; stroke: #808080; stroke-width: 1.5"/>
    <defs>
     <path id="m3f29b8afa1" d="M 0 3 
C 0.795609 3 1.55874 2.683901 2.12132 2.12132 
C 2.683901 1.55874 3 0.795609 3 0 
C 3 -0.795609 2.683901 -1.55874 2.12132 -2.12132 
C 1.55874 -2.683901 0.795609 -3 0 -3 
C -0.795609 -3 -1.55874 -2.683901 -2.12132 -2.12132 
C -2.683901 -1.55874 -3 -0.795609 -3 0 
C -3 0.795609 -2.683901 1.55874 -2.12132 2.12132 
C -1.55874 2.683901 -0.795609 3 0 3 
z
" style="stroke: #808080"/>
    </defs>
    <g clip-path="url(#p91ba34db5f)">
     <use xlink:href="#m3f29b8afa1" x="325.764635" y="25.081554" style="fill: #808080; stroke: #808080"/>
     <use xlink:href="#m3f29b8afa1" x="312.32682" y="57.07886" style="fill: #808080; stroke: #808080"/>
     <use xlink:href="#m3f29b8afa1" x="297.457745" y="56.641835" style="fill: #808080; stroke: #808080"/>
     <use xlink:href="#m3f29b8afa1" x="282.588669" y="56.529811" style="fill: #808080; stroke: #808080"/>
     <use xlink:href="#m3f29b8afa1" x="267.719594" y="56.527818" style="fill: #808080; stroke: #808080"/>
     <use xlink:href="#m3f29b8afa1" x="252.850518" y="56.515914" style="fill: #808080; stroke: #808080"/>
     <use xlink:href="#m3f29b8afa1" x="237.981443" y="56.51448" style="fill: #808080; stroke: #808080"/>
     <use xlink:href="#m3f29b8afa1" x="223.112367" y="56.514177" style="fill: #808080; stroke: #808080"/>
     <use xlink:href="#m3f29b8afa1" x="208.243292" y="56.514066" style="fill: #808080; stroke: #808080"/>
     <use xlink:href="#m3f29b8afa1" x="193.374217" y="56.514042" style="fill: #808080; stroke: #808080"/>
     <use xlink:href="#m3f29b8afa1" x="178.505141" y="56.514044" style="fill: #808080; stroke: #808080"/>
     <use xlink:href="#m3f29b8afa1" x="163.636066" y="56.514038" style="fill: #808080; stroke: #808080"/>
     <use xlink:href="#m3f29b8afa1" x="137.808993" y="56.514039" style="fill: #808080; stroke: #808080"/>
     <use xlink:href="#m3f29b8afa1" x="122.939918" y="56.514038" style="fill: #808080; stroke: #808080"/>
     <use xlink:href="#m3f29b8afa1" x="108.070842" y="56.514038" style="fill: #808080; stroke: #808080"/>
     <use xlink:href="#m3f29b8afa1" x="93.201767" y="56.514038" style="fill: #808080; stroke: #808080"/>
     <use xlink:href="#m3f29b8afa1" x="78.332691" y="56.514038" style="fill: #808080; stroke: #808080"/>
     <use xlink:href="#m3f29b8afa1" x="63.463616" y="56.514038" style="fill: #808080; stroke: #808080"/>
     <use xlink:href="#m3f29b8afa1" x="26.678546" y="56.514038" style="fill: #808080; stroke: #808080"/>
    </g>
   </g>
   <g id="line2d_16">
    <path d="M 340.63371 77.92972 
L 312.32682 109.716573 
L 297.457745 126.340354 
L 282.588669 143.093612 
L 267.719594 158.864251 
L 252.850518 170.556435 
L 237.981443 183.880186 
L 223.112367 195.782074 
L 208.243292 202.45261 
L 193.374217 206.064204 
L 178.505141 207.553228 
L 163.636066 207.763691 
L 148.76699 207.764265 
L 133.897915 207.764292 
L 119.028839 207.764291 
L 104.159764 207.764292 
L 86.548465 207.764293 
L 71.67939 207.764293 
L 56.810314 207.764294 
L 41.941239 207.764294 
L 27.072163 207.764297 
" clip-path="url(#p91ba34db5f)" style="fill: none; stroke: #291f1e; stroke-width: 1.5; stroke-linecap: square"/>
    <defs>
     <path id="m717d8d0110" d="M 0 3 
C 0.795609 3 1.55874 2.683901 2.12132 2.12132 
C 2.683901 1.55874 3 0.795609 3 0 
C 3 -0.795609 2.683901 -1.55874 2.12132 -2.12132 
C 1.55874 -2.683901 0.795609 -3 0 -3 
C -0.795609 -3 -1.55874 -2.683901 -2.12132 -2.12132 
C -2.683901 -1.55874 -3 -0.795609 -3 0 
C -3 0.795609 -2.683901 1.55874 -2.12132 2.12132 
C -1.55874 2.683901 -0.795609 3 0 3 
z
" style="stroke: #291f1e"/>
    </defs>
    <g clip-path="url(#p91ba34db5f)">
     <use xlink:href="#m717d8d0110" x="340.63371" y="77.92972" style="fill: #291f1e; stroke: #291f1e"/>
     <use xlink:href="#m717d8d0110" x="312.32682" y="109.716573" style="fill: #291f1e; stroke: #291f1e"/>
     <use xlink:href="#m717d8d0110" x="297.457745" y="126.340354" style="fill: #291f1e; stroke: #291f1e"/>
     <use xlink:href="#m717d8d0110" x="282.588669" y="143.093612" style="fill: #291f1e; stroke: #291f1e"/>
     <use xlink:href="#m717d8d0110" x="267.719594" y="158.864251" style="fill: #291f1e; stroke: #291f1e"/>
     <use xlink:href="#m717d8d0110" x="252.850518" y="170.556435" style="fill: #291f1e; stroke: #291f1e"/>
     <use xlink:href="#m717d8d0110" x="237.981443" y="183.880186" style="fill: #291f1e; stroke: #291f1e"/>
     <use xlink:href="#m717d8d0110" x="223.112367" y="195.782074" style="fill: #291f1e; stroke: #291f1e"/>
     <use xlink:href="#m717d8d0110" x="208.243292" y="202.45261" style="fill: #291f1e; stroke: #291f1e"/>
     <use xlink:href="#m717d8d0110" x="193.374217" y="206.064204" style="fill: #291f1e; stroke: #291f1e"/>
     <use xlink:href="#m717d8d0110" x="178.505141" y="207.553228" style="fill: #291f1e; stroke: #291f1e"/>
     <use xlink:href="#m717d8d0110" x="163.636066" y="207.763691" style="fill: #291f1e; stroke: #291f1e"/>
     <use xlink:href="#m717d8d0110" x="148.76699" y="207.764265" style="fill: #291f1e; stroke: #291f1e"/>
     <use xlink:href="#m717d8d0110" x="133.897915" y="207.764292" style="fill: #291f1e; stroke: #291f1e"/>
     <use xlink:href="#m717d8d0110" x="119.028839" y="207.764291" style="fill: #291f1e; stroke: #291f1e"/>
     <use xlink:href="#m717d8d0110" x="104.159764" y="207.764292" style="fill: #291f1e; stroke: #291f1e"/>
     <use xlink:href="#m717d8d0110" x="86.548465" y="207.764293" style="fill: #291f1e; stroke: #291f1e"/>
     <use xlink:href="#m717d8d0110" x="71.67939" y="207.764293" style="fill: #291f1e; stroke: #291f1e"/>
     <use xlink:href="#m717d8d0110" x="56.810314" y="207.764294" style="fill: #291f1e; stroke: #291f1e"/>
     <use xlink:href="#m717d8d0110" x="41.941239" y="207.764294" style="fill: #291f1e; stroke: #291f1e"/>
     <use xlink:href="#m717d8d0110" x="27.072163" y="207.764297" style="fill: #291f1e; stroke: #291f1e"/>
    </g>
   </g>
   <g id="line2d_17">
    <path d="M 325.764635 195.395197 
L 310.895559 226.681519 
L 296.026484 226.681521 
L 281.157408 226.681519 
L 266.288333 226.681533 
L 251.419257 226.681505 
L 236.550182 226.681519 
L 221.681106 226.681533 
L 161.32911 226.681505 
L 146.460034 226.681519 
L 86.108038 226.681525 
L 71.238962 226.681525 
L 56.369887 226.681525 
L 41.500811 226.681554 
L 24.843072 226.681519 
" clip-path="url(#p91ba34db5f)" style="fill: none; stroke: #f40000; stroke-width: 1.5; stroke-linecap: square"/>
    <defs>
     <path id="m551208988e" d="M 0 3 
C 0.795609 3 1.55874 2.683901 2.12132 2.12132 
C 2.683901 1.55874 3 0.795609 3 0 
C 3 -0.795609 2.683901 -1.55874 2.12132 -2.12132 
C 1.55874 -2.683901 0.795609 -3 0 -3 
C -0.795609 -3 -1.55874 -2.683901 -2.12132 -2.12132 
C -2.683901 -1.55874 -3 -0.795609 -3 0 
C -3 0.795609 -2.683901 1.55874 -2.12132 2.12132 
C -1.55874 2.683901 -0.795609 3 0 3 
z
" style="stroke: #f40000"/>
    </defs>
    <g clip-path="url(#p91ba34db5f)">
     <use xlink:href="#m551208988e" x="325.764635" y="195.395197" style="fill: #f40000; stroke: #f40000"/>
     <use xlink:href="#m551208988e" x="310.895559" y="226.681519" style="fill: #f40000; stroke: #f40000"/>
     <use xlink:href="#m551208988e" x="296.026484" y="226.681521" style="fill: #f40000; stroke: #f40000"/>
     <use xlink:href="#m551208988e" x="281.157408" y="226.681519" style="fill: #f40000; stroke: #f40000"/>
     <use xlink:href="#m551208988e" x="266.288333" y="226.681533" style="fill: #f40000; stroke: #f40000"/>
     <use xlink:href="#m551208988e" x="251.419257" y="226.681505" style="fill: #f40000; stroke: #f40000"/>
     <use xlink:href="#m551208988e" x="236.550182" y="226.681519" style="fill: #f40000; stroke: #f40000"/>
     <use xlink:href="#m551208988e" x="221.681106" y="226.681533" style="fill: #f40000; stroke: #f40000"/>
     <use xlink:href="#m551208988e" x="161.32911" y="226.681505" style="fill: #f40000; stroke: #f40000"/>
     <use xlink:href="#m551208988e" x="146.460034" y="226.681519" style="fill: #f40000; stroke: #f40000"/>
     <use xlink:href="#m551208988e" x="86.108038" y="226.681525" style="fill: #f40000; stroke: #f40000"/>
     <use xlink:href="#m551208988e" x="71.238962" y="226.681525" style="fill: #f40000; stroke: #f40000"/>
     <use xlink:href="#m551208988e" x="56.369887" y="226.681525" style="fill: #f40000; stroke: #f40000"/>
     <use xlink:href="#m551208988e" x="41.500811" y="226.681554" style="fill: #f40000; stroke: #f40000"/>
     <use xlink:href="#m551208988e" x="24.843072" y="226.681519" style="fill: #f40000; stroke: #f40000"/>
    </g>
   </g>
   <g id="patch_3">
    <path d="M 14.531562 236.761554 
L 14.531562 15.001554 
" style="fill: none; stroke: #000000; stroke-width: 0.8; stroke-linejoin: miter; stroke-linecap: square"/>
   </g>
   <g id="patch_4">
    <path d="M 349.331562 236.761554 
L 349.331562 15.001554 
" style="fill: none; stroke: #000000; stroke-width: 0.8; stroke-linejoin: miter; stroke-linecap: square"/>
   </g>
   <g id="patch_5">
    <path d="M 14.531562 236.761554 
L 349.331562 236.761554 
" style="fill: none; stroke: #000000; stroke-width: 0.8; stroke-linejoin: miter; stroke-linecap: square"/>
   </g>
   <g id="patch_6">
    <path d="M 14.531562 15.001554 
L 349.331562 15.001554 
" style="fill: none; stroke: #000000; stroke-width: 0.8; stroke-linejoin: miter; stroke-linecap: square"/>
   </g>
  </g>
 </g>
 <defs>
  <clipPath id="p91ba34db5f">
   <rect x="14.531562" y="15.001554" width="334.8" height="221.76"/>
  </clipPath>
 </defs>
</svg>
